<?xml version="1.0" encoding="UTF-8"?>
<!DOCTYPE svg PUBLIC "-//W3C//DTD SVG 1.1//EN" "http://www.w3.org/Graphics/SVG/1.1/DTD/svg11.dtd">
<svg xmlns="http://www.w3.org/2000/svg" version="1.1" width="167px" height="140px" style="shape-rendering:geometricPrecision; text-rendering:geometricPrecision; image-rendering:optimizeQuality; fill-rule:evenodd; clip-rule:evenodd" xmlns:xlink="http://www.w3.org/1999/xlink">
<g><path style="opacity:1" fill="#000000" d="M -0.5,-0.5 C 55.1667,-0.5 110.833,-0.5 166.5,-0.5C 166.5,46.1667 166.5,92.8333 166.5,139.5C 110.833,139.5 55.1667,139.5 -0.5,139.5C -0.5,92.8333 -0.5,46.1667 -0.5,-0.5 Z"/></g>
<g><path style="opacity:1" fill="#fdd61f" d="M 81.5,0.5 C 107.681,45.6857 134.014,90.8524 160.5,136C 108.167,136.667 55.8333,136.667 3.5,136C 30.1547,91.1862 56.1547,46.0196 81.5,0.5 Z"/></g>
<g><path style="opacity:1" fill="#000000" d="M 66.5,50.5 C 76.2471,50.0796 85.9138,50.5796 95.5,52C 97.8745,54.039 99.8745,56.3723 101.5,59C 116.949,61.4515 121.783,69.9515 116,84.5C 115.097,85.7014 113.931,86.5348 112.5,87C 118.853,90.2039 121.519,95.3705 120.5,102.5C 120.131,112.703 114.798,118.203 104.5,119C 101.596,124.243 97.2623,127.576 91.5,129C 83.1733,129.5 74.84,129.666 66.5,129.5C 66.5,125.833 66.5,122.167 66.5,118.5C 61.8333,118.5 57.1667,118.5 52.5,118.5C 52.5,98.8333 52.5,79.1667 52.5,59.5C 57.1667,59.5 61.8333,59.5 66.5,59.5C 66.5,56.5 66.5,53.5 66.5,50.5 Z"/></g>
<g><path style="opacity:1" fill="#fdd61f" d="M 73.5,56.5 C 78.5111,56.3341 83.5111,56.5007 88.5,57C 90.0441,57.2896 91.3774,57.9563 92.5,59C 86.1754,59.4995 79.8421,59.6662 73.5,59.5C 73.5,58.5 73.5,57.5 73.5,56.5 Z"/></g>
<g><path style="opacity:1" fill="#fdd61f" d="M 59.5,66.5 C 61.8333,66.5 64.1667,66.5 66.5,66.5C 66.5,72.5 66.5,78.5 66.5,84.5C 64.1667,84.5 61.8333,84.5 59.5,84.5C 59.5,78.5 59.5,72.5 59.5,66.5 Z"/></g>
<g><path style="opacity:1" fill="#fdd61f" d="M 73.5,66.5 C 81.1667,66.5 88.8333,66.5 96.5,66.5C 97.6529,72.2127 96.3196,77.3794 92.5,82C 86.3756,84.1779 80.0423,85.0113 73.5,84.5C 73.5,78.5 73.5,72.5 73.5,66.5 Z"/></g>
<g><path style="opacity:1" fill="#fdd61f" d="M 104.5,66.5 C 110.062,69.1012 111.896,73.4345 110,79.5C 107.774,83.8608 104.274,85.3608 99.5,84C 103.715,78.9849 105.382,73.1515 104.5,66.5 Z"/></g>
<g><path style="opacity:1" fill="#fdd61f" d="M 59.5,90.5 C 61.8333,90.5 64.1667,90.5 66.5,90.5C 66.5,97.8333 66.5,105.167 66.5,112.5C 64.1667,112.5 61.8333,112.5 59.5,112.5C 59.5,105.167 59.5,97.8333 59.5,90.5 Z"/></g>
<g><path style="opacity:1" fill="#fdd61f" d="M 73.5,90.5 C 80.3126,90.2251 86.9793,91.0585 93.5,93C 98.8979,98.3583 100.898,104.858 99.5,112.5C 90.8333,112.5 82.1667,112.5 73.5,112.5C 73.5,105.167 73.5,97.8333 73.5,90.5 Z"/></g>
<g><path style="opacity:1" fill="#fdd61f" d="M 102.5,92.5 C 106.477,91.3921 109.643,92.7255 112,96.5C 112.667,99.8333 112.667,103.167 112,106.5C 111.363,108.303 110.197,109.636 108.5,110.5C 107.738,105.407 106.572,100.407 105,95.5C 104.623,94.0577 103.79,93.0577 102.5,92.5 Z"/></g>
<g><path style="opacity:1" fill="#fdd61f" d="M 73.5,118.5 C 80.8409,118.334 88.1742,118.5 95.5,119C 93.6234,121.106 91.29,122.439 88.5,123C 83.5111,123.499 78.5111,123.666 73.5,123.5C 73.5,121.833 73.5,120.167 73.5,118.5 Z"/></g>
</svg>
