<?xml version="1.0" encoding="UTF-8" standalone="no"?>
<!-- Created with Inkscape (http://www.inkscape.org/) -->
<svg
   xmlns:svg="http://www.w3.org/2000/svg"
   xmlns="http://www.w3.org/2000/svg"
   version="1.0"
   width="630"
   height="215"
   viewBox="-0.229 -0.927 630 215"
   id="svg2"
   xml:space="preserve">
	<defs
   id="defs4">
	</defs>
	<g
   id="g6">
		<g
   id="g8">
			<polyline
   fill="#232E52"
   points="1.293,0 629.047,0 629.047,138.781 1.293,138.781 1.293,0 "
   id="polyline10"
   style="fill:#232e52" />
		</g>
		<path
   d="M 109.305,81.059 L 123.809,81.059 L 116.561,53.243 L 109.305,81.059 M 63.781,115.77 L 100.629,115.77 L 103.449,104.207 L 129.285,104.207 L 132.129,115.77 L 226.865,115.77 L 226.865,85.102 L 199.404,85.102 L 199.408,20.766 L 164.34,20.766 L 164.344,102.457 L 134.621,20.766 L 96.709,20.766 L 63.781,115.77 z "
   style="fill:#ffffff;fill-rule:evenodd"
   id="path12" />
		<path
   d="M 266.736,77.266 L 261.797,77.266 L 261.797,93.153 L 268.924,93.153 C 268.924,93.153 278.801,92.993 278.801,85.403 C 278.801,76.531 266.736,77.266 266.736,77.266 M 266.736,43.426 L 261.797,43.426 L 261.797,57.239 L 268.924,57.239 C 268.924,57.239 275.237,56.044 275.237,50.649 C 275.236,43.246 266.736,43.426 266.736,43.426 z M 341.75,81.059 L 356.25,81.059 L 349,53.242 L 341.75,81.059 z M 230.867,115.766 L 267.045,115.77 L 283.332,115.766 C 289.512,115.766 298.545,110.418 298.545,110.418 L 296.465,115.77 L 333.25,115.77 L 336.574,104.207 L 362.402,104.207 L 365.824,115.77 L 401.957,115.77 L 367.961,20.766 L 329.688,20.766 L 307.934,83.196 C 307.934,83.196 306.012,76.141 303.032,72.786 C 300.284,69.684 294.169,66.938 294.169,66.938 C 294.169,66.938 306.142,64.282 306.142,44.711 C 306.142,25.691 283.738,20.766 274.654,20.766 L 230.869,20.766 L 230.869,115.766 L 230.867,115.766 z "
   style="fill:#ffffff;fill-rule:evenodd"
   id="path14" />
		<path
   d="M 505.109,99.934 L 514.261,99.934 L 509.363,90.571 L 505.109,99.934 M 485.371,112.387 L 509.269,72.012 L 532.98,112.571 L 522.375,117.469 L 518.68,109.719 L 500.426,109.719 L 496.535,117.285 L 485.371,112.387 z "
   style="fill:#ffffff;fill-rule:evenodd"
   id="path16" />
		<path
   d="M 535.777,87.176 L 540.351,79.25 L 529.8,78.812 L 535.777,87.176 M 536.695,110.5 L 513.68,69.613 L 560.66,69.359 L 559.597,80.996 L 551.038,80.32 L 541.913,96.129 L 546.518,103.281 L 536.695,110.5 z "
   style="fill:#ffffff;fill-rule:evenodd"
   id="path18" />
		<path
   d="M 540.063,54.242 L 535.493,46.312 L 529.837,55.238 L 540.063,54.242 M 560.723,65.105 L 513.809,64.593 L 537.075,23.78 L 546.626,30.514 L 541.763,37.592 L 550.892,53.401 L 559.384,52.987 L 560.723,65.105 z "
   style="fill:#ffffff;fill-rule:evenodd"
   id="path20" />
		<path
   d="M 513.691,34.059 L 504.539,34.059 L 509.437,43.414 L 513.691,34.059 M 533.43,21.602 L 509.532,61.977 L 485.817,21.414 L 496.426,16.516 L 500.121,24.27 L 518.375,24.27 L 522.266,16.7 L 533.43,21.602 z "
   style="fill:#ffffff;fill-rule:evenodd"
   id="path22" />
		<path
   d="M 483.023,46.809 L 478.449,54.735 L 489,55.172 L 483.023,46.809 M 482.105,23.488 L 505.121,64.371 L 458.141,64.629 L 459.2,52.992 L 467.763,53.664 L 476.888,37.855 L 472.283,30.703 L 482.105,23.488 z "
   style="fill:#ffffff;fill-rule:evenodd"
   id="path24" />
		<path
   d="M 478.734,79.746 L 483.308,87.672 L 488.964,78.75 L 478.734,79.746 M 458.074,68.879 L 504.992,69.391 L 481.722,110.207 L 472.175,103.469 L 477.038,96.391 L 467.909,80.582 L 459.417,80.996 L 458.074,68.879 z "
   style="fill:#ffffff;fill-rule:evenodd"
   id="path26" />
		<g
   id="g28">
			<path
   d="M 20.908,180.152 C 18.248,178.64 14.553,177.687 11.531,177.687 C 5.527,177.687 1.191,181.664 1.191,187.746 C 1.191,193.551 4.412,194.824 9.304,196.215 C 10.972,196.692 14.036,197.449 14.036,199.633 C 14.036,201.742 12.083,202.656 10.255,202.656 C 7.593,202.656 5.288,201.265 3.339,199.554 L 0,205.836 C 3.064,207.984 6.756,209.258 10.537,209.258 C 13.56,209.258 16.699,208.418 19.045,206.434 C 21.428,204.407 22.145,201.344 22.145,198.364 C 22.145,193.512 18.924,191.407 14.749,190.173 L 12.763,189.579 C 11.409,189.141 9.306,188.462 9.306,186.716 C 9.306,185.044 11.214,184.208 12.646,184.208 C 14.554,184.208 16.382,185.005 17.814,186.196 L 20.908,180.152"
   style="fill:#232e52"
   id="path30" />
		</g>
		<g
   id="g32">
			<polyline
   fill="#232E52"
   points="53.613,185.082 53.613,178.484 36.561,178.484 36.561,208.461 53.613,208.461 53.613,201.859      44.352,201.859 44.352,196.691 53.137,196.691 53.137,190.09 44.352,190.09 44.352,185.082 53.613,185.082 "
   id="polyline34"
   style="fill:#232e52" />
		</g>
		<g
   id="g36">
			<g
   id="g38">
				<path
   d="M 84.648,196.176 C 88.904,195.418 91.209,191.844 91.209,187.707 C 91.209,181.305 86.717,178.484 80.793,178.484 L 69.145,178.484 L 69.145,208.461 L 76.934,208.461 L 76.934,196.93 L 77.016,196.93 L 84.373,208.461 L 94.068,208.461 L 84.648,196.176 M 76.934,184.445 L 77.692,184.445 C 80.233,184.445 83.096,184.922 83.096,188.183 C 83.096,191.444 80.233,191.921 77.692,191.921 L 76.934,191.921 L 76.934,184.445 z "
   style="fill:#232e52;fill-rule:evenodd"
   id="path40" />
			</g>
		</g>
		<g
   id="g42">
			<polyline
   fill="#232E52"
   points="111.428,178.484 102.961,178.484 115.568,208.461 121.609,208.461 134.408,178.484      125.939,178.484 118.668,196.691 111.428,178.484 "
   id="polyline44"
   style="fill:#232e52" />
		</g>
		<g
   id="g46">
			<polyline
   fill="#232E52"
   points="154.881,178.484 147.088,178.484 147.088,208.461 154.881,208.461 154.881,178.484 "
   id="polyline48"
   style="fill:#232e52" />
		</g>
		<g
   id="g50">
			<path
   d="M 192.125,179.199 C 189.816,178.246 187.512,177.687 185.008,177.687 C 180.793,177.687 176.541,179.515 173.596,182.539 C 170.737,185.48 169.184,189.418 169.184,193.512 C 169.184,197.965 170.698,201.86 173.997,204.844 C 177.097,207.664 181.069,209.258 185.245,209.258 C 187.673,209.258 189.542,208.66 192.126,207.863 L 192.126,198.519 C 190.493,200.468 187.95,201.703 185.405,201.703 C 180.557,201.703 177.294,198.281 177.294,193.551 C 177.294,188.903 180.517,185.242 185.286,185.242 C 187.95,185.242 190.538,186.394 192.126,188.543 L 192.126,179.199"
   style="fill:#232e52"
   id="path52" />
		</g>
		<g
   id="g54">
			<polyline
   fill="#232E52"
   points="224.717,185.082 224.717,178.484 207.656,178.484 207.656,208.461 224.717,208.461      224.717,201.859 215.449,201.859 215.449,196.691 224.232,196.691 224.232,190.09 215.449,190.09 215.449,185.082      224.717,185.082 "
   id="polyline56"
   style="fill:#232e52" />
		</g>
		<g
   id="g58">
			<polyline
   fill="#232E52"
   points="287.557,208.461 295.309,208.461 297.813,191.207 297.893,191.207 304.768,208.461      307.873,208.461 315.064,191.207 315.145,191.207 317.332,208.461 325.125,208.461 320.59,178.484 312.84,178.484 306.4,194.504      300.316,178.484 292.641,178.484 287.557,208.461 "
   id="polyline60"
   style="fill:#232e52" />
		</g>
		<g
   id="g62">
			<polyline
   fill="#232E52"
   points="346.941,178.484 339.148,178.484 339.148,208.461 346.941,208.461 346.941,178.484 "
   id="polyline64"
   style="fill:#232e52" />
		</g>
		<g
   id="g66">
			<polyline
   fill="#232E52"
   points="374.684,185.082 381.121,185.082 381.121,178.484 360.449,178.484 360.449,185.082      366.895,185.082 366.895,208.461 374.684,208.461 374.684,185.082 "
   id="polyline68"
   style="fill:#232e52" />
		</g>
		<g
   id="g70">
			<path
   d="M 438.582,180.152 C 435.922,178.64 432.223,177.687 429.203,177.687 C 423.199,177.687 418.863,181.664 418.863,187.746 C 418.863,193.551 422.086,194.824 426.976,196.215 C 428.644,196.692 431.706,197.449 431.706,199.633 C 431.706,201.742 429.757,202.656 427.929,202.656 C 425.265,202.656 422.96,201.265 421.011,199.554 L 417.671,205.835 C 420.73,207.983 424.429,209.257 428.206,209.257 C 431.229,209.257 434.37,208.417 436.714,206.433 C 439.101,204.406 439.816,201.343 439.816,198.363 C 439.816,193.511 436.593,191.406 432.421,190.172 L 430.433,189.578 C 429.081,189.14 426.976,188.461 426.976,186.715 C 426.976,185.043 428.886,184.207 430.312,184.207 C 432.222,184.207 434.05,185.004 435.484,186.195 L 438.582,180.152"
   style="fill:#232e52"
   id="path72" />
		</g>
		<g
   id="g74">
			<polyline
   fill="#232E52"
   points="461.984,194.07 461.984,208.461 469.777,208.461 469.777,194.07 480.828,178.484      471.484,178.484 465.887,186.633 460.273,178.484 450.93,178.484 461.984,194.07 "
   id="polyline76"
   style="fill:#232e52" />
		</g>
		<g
   id="g78">
			<path
   d="M 512.895,180.152 C 510.231,178.64 506.536,177.687 503.516,177.687 C 497.512,177.687 493.18,181.664 493.18,187.746 C 493.18,193.551 496.403,194.824 501.289,196.215 C 502.961,196.692 506.019,197.449 506.019,199.633 C 506.019,201.742 504.066,202.656 502.246,202.656 C 499.578,202.656 497.273,201.265 495.324,199.554 L 491.984,205.835 C 495.047,207.983 498.746,209.257 502.523,209.257 C 505.543,209.257 508.683,208.417 511.031,206.433 C 513.414,204.406 514.129,201.343 514.129,198.363 C 514.129,193.511 510.91,191.406 506.738,190.172 L 504.75,189.578 C 503.391,189.14 501.289,188.461 501.289,186.715 C 501.289,185.043 503.199,184.207 504.629,184.207 C 506.535,184.207 508.363,185.004 509.797,186.195 L 512.895,180.152"
   style="fill:#232e52"
   id="path80" />
		</g>
		<g
   id="g82">
			<polyline
   fill="#232E52"
   points="540.473,185.082 546.914,185.082 546.914,178.484 526.238,178.484 526.238,185.082      532.68,185.082 532.68,208.461 540.473,208.461 540.473,185.082 "
   id="polyline84"
   style="fill:#232e52" />
		</g>
		<g
   id="g86">
			<polyline
   fill="#232E52"
   points="577.516,185.082 577.516,178.484 560.461,178.484 560.461,208.461 577.516,208.461      577.516,201.859 568.254,201.859 568.254,196.691 577.039,196.691 577.039,190.09 568.254,190.09 568.254,185.082      577.516,185.082 "
   id="polyline88"
   style="fill:#232e52" />
		</g>
		<g
   id="g90">
			<polyline
   fill="#232E52"
   points="591.254,208.461 599.008,208.461 601.527,191.207 601.609,191.207 608.488,208.461      611.57,208.461 618.77,191.207 618.848,191.207 621.047,208.461 628.848,208.461 624.328,178.484 616.566,178.484      610.129,194.504 604.047,178.484 596.344,178.484 591.254,208.461 "
   id="polyline92"
   style="fill:#232e52" />
		</g>
		<g
   id="g94">
			<polyline
   fill="#232E52"
   points="253.232,173.055 260.904,173.055 260.904,213.09 253.232,213.09 253.232,173.055 "
   id="polyline96"
   style="fill:#232e52" />
		</g>
	</g>
</svg>