<?xml version="1.0" standalone="no"?>
<!DOCTYPE svg PUBLIC "-//W3C//DTD SVG 20010904//EN"
 "http://www.w3.org/TR/2001/REC-SVG-20010904/DTD/svg10.dtd">
<svg version="1.0" xmlns="http://www.w3.org/2000/svg"
 width="800.000000pt" height="618.000000pt" viewBox="0 0 800.000000 618.000000"
 preserveAspectRatio="xMidYMid meet">

<g transform="translate(0.000000,618.000000) scale(0.100000,-0.100000)"
fill="#000000" stroke="none">
<path d="M5391 1346 c-42 -15 -107 -69 -125 -104 -61 -122 -30 -269 69 -328
27 -15 55 -24 72 -22 l28 3 -32 17 c-38 21 -83 107 -91 173 -12 110 57 239
143 267 17 5 17 6 -5 6 -14 0 -40 -5 -59 -12z"/>
<path d="M40 1341 c0 -5 7 -14 15 -21 12 -10 15 -45 15 -197 l0 -184 -26 -24
-27 -25 64 0 64 0 -2 128 c-1 70 -2 173 -2 230 l-1 102 -50 0 c-27 0 -50 -4
-50 -9z"/>
<path d="M246 1342 c-3 -5 5 -17 18 -25 46 -31 43 -128 -5 -156 -36 -20 -36
-28 0 -36 49 -11 74 -47 75 -109 0 -45 -4 -60 -24 -81 -13 -14 -31 -25 -41
-25 -10 0 -21 -4 -24 -10 -8 -14 39 -13 87 2 56 16 78 49 78 113 0 45 -5 58
-29 84 -16 17 -36 31 -44 31 -29 0 -28 20 2 46 26 22 31 33 31 70 0 36 -5 50
-26 69 -15 14 -32 25 -38 25 -6 0 -21 3 -32 6 -12 3 -24 1 -28 -4z"/>
<path d="M875 1308 c-9 -24 -20 -49 -23 -57 -4 -10 -1 -13 12 -8 11 4 19 1 22
-11 8 -22 24 -63 35 -84 5 -10 9 -27 9 -38 0 -18 -7 -20 -58 -20 -32 0 -63 5
-70 12 -9 9 -12 8 -12 -8 0 -18 6 -19 78 -16 l77 4 23 -52 c12 -28 22 -64 22
-80 0 -17 -8 -33 -22 -43 -22 -15 -17 -16 72 -16 l95 0 -27 20 c-16 12 -39 50
-58 97 -18 42 -39 93 -47 112 -8 19 -19 44 -23 55 -4 11 -15 36 -23 55 -9 19
-23 54 -32 78 -10 23 -21 42 -25 42 -4 0 -16 -19 -25 -42z"/>
<path d="M1420 1341 c0 -5 7 -14 15 -21 12 -10 15 -45 15 -192 0 -179 -6 -218
-35 -218 -8 0 -15 -4 -15 -10 0 -6 27 -10 63 -10 l62 0 0 212 c0 160 3 212 13
216 6 2 12 10 12 18 0 11 -16 14 -65 14 -36 0 -65 -4 -65 -9z"/>
<path d="M2017 1343 c-4 -3 -7 -27 -7 -52 l0 -46 20 33 c11 18 31 38 45 44 14
6 25 15 25 20 0 10 -74 11 -83 1z"/>
<path d="M2207 1343 c-4 -3 -7 -96 -7 -205 l0 -199 -26 -24 -27 -25 87 0 c47
0 86 2 86 5 0 2 -11 15 -25 29 l-25 25 0 201 0 200 -28 0 c-16 0 -32 -3 -35
-7z"/>
<path d="M2376 1342 c-3 -6 5 -13 19 -16 13 -3 36 -23 50 -44 l26 -37 -3 50
-3 50 -42 3 c-22 2 -44 -1 -47 -6z"/>
<path d="M2750 1343 c0 -5 7 -17 15 -27 12 -16 15 -57 15 -198 l0 -179 -26
-24 -27 -25 64 0 64 0 -2 128 c-1 70 -2 173 -2 230 l-1 102 -50 0 c-27 0 -50
-3 -50 -7z"/>
<path d="M2956 1342 c-3 -5 5 -17 18 -25 46 -31 43 -128 -5 -156 -36 -20 -36
-28 0 -36 50 -11 75 -48 75 -110 0 -43 -4 -59 -24 -80 -13 -14 -31 -25 -41
-25 -10 0 -21 -4 -24 -10 -8 -14 39 -13 87 2 56 16 78 49 78 113 0 45 -5 58
-29 84 -16 17 -36 31 -44 31 -29 0 -28 20 2 46 26 22 31 33 31 70 0 36 -5 50
-26 69 -15 14 -32 25 -38 25 -6 0 -21 3 -32 6 -12 3 -24 1 -28 -4z"/>
<path d="M3593 1333 c-3 -10 -12 -33 -19 -52 -18 -44 -18 -56 1 -41 12 10 16
9 21 -6 8 -25 24 -64 35 -86 5 -10 9 -27 9 -39 0 -20 -4 -21 -70 -17 -44 2
-70 0 -70 -7 0 -6 31 -10 77 -10 l76 0 23 -45 c31 -59 31 -103 2 -123 -22 -15
-18 -16 70 -16 85 -1 119 10 72 22 -12 3 -31 30 -50 71 -16 37 -30 69 -30 71
0 3 -9 27 -21 53 -12 26 -25 56 -29 67 -4 11 -15 36 -23 55 -9 19 -23 54 -32
78 -18 45 -32 53 -42 25z"/>
<path d="M4130 1338 c0 -7 7 -22 15 -32 12 -16 15 -55 15 -184 l0 -165 36 -33
c27 -26 44 -34 72 -34 l36 0 -34 29 -35 29 -3 172 c-3 143 -1 175 12 195 9 14
16 27 16 30 0 3 -29 5 -65 5 -46 0 -65 -4 -65 -12z"/>
<path d="M4474 1338 c3 -7 9 -21 12 -30 9 -24 19 -22 38 7 22 33 21 35 -20 35
-25 0 -34 -4 -30 -12z"/>
<path d="M5990 1341 c0 -5 7 -14 15 -21 8 -7 15 -27 16 -44 0 -17 3 -25 6 -18
9 23 23 12 48 -43 14 -31 25 -58 25 -60 0 -2 13 -33 28 -67 16 -35 34 -79 42
-98 7 -19 17 -39 22 -45 4 -5 8 -17 8 -27 0 -33 20 -19 40 28 20 46 20 46 0
71 -11 14 -20 30 -20 34 0 5 -9 31 -21 57 -22 50 -36 82 -52 122 -5 14 -13 33
-18 42 -5 10 -9 24 -9 31 0 27 -36 47 -83 47 -26 0 -47 -4 -47 -9z"/>
<path d="M6385 1313 c-11 -25 -12 -40 -5 -47 6 -6 10 -75 10 -172 l0 -162 -27
-21 -28 -20 95 0 95 0 -27 20 -28 21 0 188 c0 154 3 190 15 200 23 19 8 30
-40 30 -42 0 -46 -2 -60 -37z"/>
<path d="M6830 1343 c0 -5 7 -17 15 -27 12 -16 15 -57 15 -198 l0 -179 -26
-24 -27 -25 64 0 64 0 -2 127 c-1 71 -2 174 -3 231 l0 102 -50 0 c-27 0 -50
-3 -50 -7z"/>
<path d="M7030 1341 c0 -5 8 -15 18 -20 10 -5 24 -28 32 -51 12 -35 11 -45 -3
-74 -9 -19 -25 -37 -36 -41 -30 -9 -26 -22 9 -30 94 -21 103 -173 13 -212 -35
-16 -36 -17 -14 -21 34 -5 107 17 127 39 9 10 19 39 22 65 7 62 -18 108 -69
130 l-37 17 34 32 c24 23 34 41 34 63 0 39 -16 75 -39 89 -28 17 -91 27 -91
14z"/>
<path d="M7510 1341 c0 -5 7 -14 15 -21 12 -10 15 -45 15 -197 l0 -184 -26
-24 -27 -25 87 0 c51 0 86 4 86 10 0 6 -7 10 -15 10 -21 0 -37 66 -33 140 l3
65 120 0 120 0 3 -83 c3 -77 1 -84 -23 -108 -14 -13 -25 -27 -25 -29 0 -3 36
-5 80 -5 44 0 80 2 80 5 0 3 -9 14 -20 25 -19 19 -20 33 -20 198 0 141 3 182
15 198 23 31 19 34 -50 34 -69 0 -75 -5 -50 -44 12 -17 15 -44 13 -97 l-3 -74
-100 -3 c-148 -4 -145 -6 -145 82 0 58 4 79 20 99 11 14 20 28 20 31 0 3 -31
6 -70 6 -38 0 -70 -4 -70 -9z"/>
<path d="M5573 1317 c15 -12 34 -39 42 -59 8 -21 17 -38 20 -38 3 0 5 26 5 58
l0 57 -47 2 -47 2 27 -22z"/>
<path d="M6352 1230 c0 -14 2 -19 5 -12 2 6 2 18 0 25 -3 6 -5 1 -5 -13z"/>
<path d="M831 1194 c0 -11 3 -14 6 -6 3 7 2 16 -1 19 -3 4 -6 -2 -5 -13z"/>
<path d="M3541 1194 c0 -11 3 -14 6 -6 3 7 2 16 -1 19 -3 4 -6 -2 -5 -13z"/>
<path d="M6331 1184 c0 -11 3 -14 6 -6 3 7 2 16 -1 19 -3 4 -6 -2 -5 -13z"/>
<path d="M811 1144 c0 -11 3 -14 6 -6 3 7 2 16 -1 19 -3 4 -6 -2 -5 -13z"/>
<path d="M3522 1140 c0 -14 2 -19 5 -12 2 6 2 18 0 25 -3 6 -5 1 -5 -13z"/>
<path d="M6311 1134 c0 -11 3 -14 6 -6 3 7 2 16 -1 19 -3 4 -6 -2 -5 -13z"/>
<path d="M6291 1084 c0 -11 3 -14 6 -6 3 7 2 16 -1 19 -3 4 -6 -2 -5 -13z"/>
<path d="M772 1040 c0 -14 2 -19 5 -12 2 6 2 18 0 25 -3 6 -5 1 -5 -13z"/>
<path d="M5563 1036 c25 -38 21 -74 -13 -108 -16 -16 -30 -31 -30 -34 0 -11
35 -2 81 21 l50 26 -3 57 -3 57 -49 3 -49 3 16 -25z"/>
<path d="M3481 1034 c0 -11 3 -14 6 -6 3 7 2 16 -1 19 -3 4 -6 -2 -5 -13z"/>
<path d="M6271 1034 c0 -11 3 -14 6 -6 3 7 2 16 -1 19 -3 4 -6 -2 -5 -13z"/>
<path d="M741 972 c-7 -18 -28 -44 -45 -57 l-31 -25 63 0 c58 0 80 11 48 23
-9 4 -16 23 -18 49 l-3 43 -14 -33z"/>
<path d="M3449 969 c-9 -19 -29 -45 -45 -57 l-29 -21 63 -1 c58 0 80 11 48 23
-9 4 -16 23 -18 49 l-3 43 -16 -36z"/>
<path d="M1751 955 c-14 -24 -30 -37 -51 -41 -54 -11 -43 -24 19 -24 l61 0 0
50 c0 28 -2 50 -4 50 -2 0 -13 -16 -25 -35z"/>
<path d="M4491 974 c0 -11 3 -14 6 -6 3 7 2 16 -1 19 -3 4 -6 -2 -5 -13z"/>
<path d="M6021 963 c-1 -22 -9 -37 -28 -52 l-28 -20 58 -1 c60 0 68 5 40 25
-9 7 -23 28 -29 46 l-12 34 -1 -32z"/>
<path d="M0 635 c0 -13 451 -15 4000 -15 3549 0 4000 2 4000 15 0 13 -451 15
-4000 15 -3549 0 -4000 -2 -4000 -15z"/>
<path d="M4076 449 c-92 -61 -185 -203 -189 -288 -1 -47 24 -81 61 -81 45 0
283 138 255 147 -7 3 -24 -4 -38 -13 -107 -70 -214 -119 -234 -107 -47 29 -2
157 91 258 74 81 148 114 134 61 -8 -32 10 -43 24 -16 9 17 8 27 -5 46 -21 32
-42 30 -99 -7z"/>
<path d="M4322 459 c-6 -13 -21 -53 -36 -88 -14 -36 -26 -70 -26 -76 0 -7 -9
-23 -19 -36 -16 -20 -17 -28 -6 -42 17 -24 25 -21 25 8 0 13 21 72 46 131 31
73 42 110 35 117 -7 7 -13 3 -19 -14z"/>
<path d="M5065 465 c-62 -17 -145 -56 -145 -67 0 -11 25 -10 55 4 14 6 28 9
31 5 5 -5 -13 -54 -37 -99 -12 -23 -11 -38 1 -38 6 0 10 6 10 13 0 6 11 34 25
61 14 27 25 55 25 62 0 7 9 18 20 24 29 15 109 29 115 19 6 -9 -41 -47 -94
-76 -37 -20 -58 -51 -26 -40 41 16 97 19 121 7 44 -24 22 -74 -40 -91 -20 -5
-36 -14 -36 -19 0 -5 -7 -7 -15 -4 -28 11 -177 -58 -240 -111 -25 -20 -28 -26
-15 -34 15 -10 47 -7 85 9 84 34 151 69 216 111 41 27 83 49 91 49 9 0 20 4
23 10 10 16 65 12 65 -4 0 -8 -4 -18 -10 -21 -17 -10 -11 -25 10 -25 11 0 20
5 20 11 0 8 13 10 39 6 37 -5 38 -4 37 27 -1 44 -20 62 -52 47 -14 -6 -40 -11
-59 -11 -19 0 -37 -4 -40 -10 -11 -17 -25 -11 -25 11 0 29 -18 59 -36 59 -8 0
-25 5 -36 11 -20 11 -20 13 18 44 33 28 37 36 28 52 -14 23 -63 26 -129 8z
m315 -183 c0 -4 -13 -16 -30 -25 -33 -20 -39 -13 -12 14 18 18 42 25 42 11z
m-310 -80 c0 -12 -130 -78 -171 -87 -46 -10 -34 0 63 51 82 43 108 52 108 36z"/>
<path d="M2274 411 c-75 -60 -128 -121 -160 -183 -32 -62 -32 -96 0 -104 25
-6 58 13 145 83 40 32 40 28 -3 -72 -26 -60 -35 -135 -16 -135 6 0 10 11 10
25 0 32 43 145 80 209 35 62 65 91 105 102 l30 8 -28 4 c-25 3 -127 -24 -182
-47 -11 -5 -28 -12 -37 -15 -10 -3 -18 -10 -18 -15 0 -6 12 -6 33 1 43 14 87
21 87 15 0 -6 -124 -107 -163 -132 -45 -29 -56 -7 -27 52 29 58 178 210 214
219 14 3 26 12 26 20 0 26 -35 13 -96 -35z"/>
<path d="M2443 285 c-42 -42 -41 -69 2 -72 l30 -2 -29 13 -29 13 47 32 c25 18
44 36 41 42 -11 16 -26 10 -62 -26z"/>
<path d="M2879 303 c-14 -8 -34 -28 -44 -44 -34 -49 -83 -41 -56 10 26 47 -6
57 -53 16 -16 -14 -40 -25 -53 -25 -16 0 -23 -6 -23 -20 0 -27 24 -25 52 3 13
13 31 26 40 30 15 5 16 2 7 -19 -5 -14 -7 -29 -4 -34 7 -11 145 -11 145 1 0 4
-6 6 -14 3 -20 -8 -30 14 -16 32 7 8 24 20 39 27 24 11 32 29 14 34 -4 1 -20
-5 -34 -14z"/>
<path d="M4336 299 c-30 -23 -46 -56 -39 -76 6 -16 63 -17 63 -2 0 5 -4 8 -9
5 -5 -4 -17 -3 -26 0 -14 6 -14 8 2 26 10 11 28 24 41 29 24 9 31 39 8 39 -7
0 -26 -10 -40 -21z"/>
<path d="M4581 293 c-17 -15 -32 -39 -33 -53 -3 -22 1 -25 32 -27 l35 -2 -28
10 c-35 14 -31 27 14 51 18 10 34 23 34 30 0 23 -24 19 -54 -9z"/>
<path d="M5650 303 c-14 -9 -34 -27 -45 -40 -21 -23 -65 -32 -65 -12 0 6 5 19
10 30 16 29 -2 23 -45 -16 -44 -41 -53 -40 -31 4 18 34 19 41 8 41 -5 0 -20
-18 -34 -39 -19 -28 -23 -42 -15 -50 16 -16 38 -14 59 6 17 15 19 15 37 -1 16
-15 22 -15 40 -4 16 10 23 10 33 0 14 -14 58 -16 58 -2 0 5 -6 7 -14 4 -8 -3
-17 0 -21 6 -7 11 15 36 49 55 18 11 23 28 9 32 -5 2 -20 -5 -33 -14z"/>
<path d="M2563 293 c-4 -10 -14 -23 -22 -30 -11 -9 -12 -12 -3 -13 8 0 10 -8
6 -25 -9 -36 6 -31 51 16 29 29 46 39 63 36 14 -3 22 1 22 10 0 24 -30 27 -54
4 -26 -24 -51 -28 -43 -6 4 8 2 17 -4 20 -5 4 -12 -2 -16 -12z"/>
<path d="M3081 281 c-21 -29 -28 -71 -12 -71 5 0 25 16 46 35 21 19 41 32 45
30 4 -2 5 -18 2 -35 -4 -25 -1 -30 17 -30 11 0 21 5 21 10 0 6 -5 10 -11 10
-8 0 -9 13 -5 40 7 46 -3 50 -41 20 -14 -11 -30 -20 -35 -20 -5 0 -6 9 -3 20
9 28 0 25 -24 -9z"/>
<path d="M3250 274 l-35 -34 33 6 c28 6 32 4 32 -15 0 -12 -4 -20 -10 -16 -12
8 -50 -16 -50 -32 0 -7 7 -13 15 -13 8 0 15 7 15 16 0 9 6 14 13 11 8 -3 27 8
44 23 31 29 46 30 36 4 -3 -9 2 -14 17 -14 15 0 20 5 17 14 -7 18 29 66 49 66
8 0 14 5 14 10 0 16 -22 12 -44 -8 -33 -28 -68 -40 -93 -31 -26 9 -31 29 -8
29 8 0 15 5 15 10 0 19 -25 9 -60 -26z"/>
<path d="M3590 295 c-7 -9 -22 -21 -33 -27 -17 -9 -19 -8 -14 11 6 26 -19 29
-27 4 -13 -47 -17 -83 -9 -83 5 0 29 20 53 45 47 48 62 50 54 6 -9 -44 8 -44
54 -1 24 23 44 35 48 29 3 -6 1 -16 -5 -22 -6 -6 -11 -19 -11 -29 0 -14 8 -18
35 -18 19 0 35 5 35 11 0 6 -7 8 -17 5 -24 -9 -33 12 -17 42 26 50 -8 57 -56
12 -18 -16 -34 -30 -35 -30 -2 0 -5 12 -7 27 -3 32 -29 41 -48 18z"/>
<path d="M4692 290 c-3 -8 -11 -18 -17 -22 -14 -8 -8 -58 6 -58 5 0 9 4 9 9 0
19 52 71 71 71 10 0 19 4 19 9 0 15 -82 7 -88 -9z"/>
<path d="M5747 285 c-17 -19 -22 -34 -19 -56 l5 -31 36 36 c45 44 61 45 61 6
0 -24 4 -30 21 -30 18 0 19 2 9 15 -7 8 -10 29 -8 45 6 40 -6 46 -38 21 -34
-26 -47 -27 -39 -1 8 27 1 25 -28 -5z"/>
<path d="M2980 278 c-32 -30 -29 -68 6 -68 24 0 32 14 14 25 -7 4 -6 13 1 26
17 33 5 42 -21 17z"/>
<path d="M4513 277 c-10 -13 -29 -29 -42 -36 -22 -12 -23 -12 -16 18 7 35 3
38 -23 15 -16 -13 -17 -20 -8 -40 6 -13 17 -26 24 -29 13 -5 102 70 102 86 0
16 -18 9 -37 -14z"/>
<path d="M3418 265 c-33 -28 -36 -39 -9 -32 12 3 22 -1 26 -11 8 -22 17 -8 20
33 2 41 -1 42 -37 10z"/>
<path d="M2495 240 c-3 -5 -1 -10 4 -10 6 0 11 5 11 10 0 6 -2 10 -4 10 -3 0
-8 -4 -11 -10z"/>
<path d="M2910 240 c-13 -8 -12 -10 3 -10 9 0 17 5 17 10 0 12 -1 12 -20 0z"/>
<path d="M4375 240 c-3 -5 1 -10 9 -10 9 0 16 5 16 10 0 6 -4 10 -9 10 -6 0
-13 -4 -16 -10z"/>
<path d="M4625 240 c-3 -5 1 -10 9 -10 9 0 16 5 16 10 0 6 -4 10 -9 10 -6 0
-13 -4 -16 -10z"/>
<path d="M5680 240 c-13 -8 -12 -10 3 -10 9 0 17 5 17 10 0 12 -1 12 -20 0z"/>
</g>
</svg>
