<?xml version="1.0" standalone="no"?>
<!DOCTYPE svg PUBLIC "-//W3C//DTD SVG 20010904//EN"
 "http://www.w3.org/TR/2001/REC-SVG-20010904/DTD/svg10.dtd">
<svg version="1.0" xmlns="http://www.w3.org/2000/svg"
 width="800.000000pt" height="610.000000pt" viewBox="0 0 800.000000 618.000000"
 preserveAspectRatio="xMidYMid meet">

<g transform="translate(0.000000,618.000000) scale(0.100000,-0.100000)"
fill="#000000" stroke="none">
<path d="M3979 4918 c-24 -45 -36 -66 -194 -338 -59 -102 -116 -200 -126 -217
-23 -40 -23 -40 -204 -353 -81 -140 -155 -268 -165 -285 -10 -16 -118 -203
-240 -415 -122 -212 -230 -398 -240 -415 -10 -16 -75 -129 -145 -250 -70 -121
-136 -235 -146 -252 -11 -18 -27 -48 -38 -65 -10 -18 -42 -73 -70 -121 -28
-49 -51 -90 -51 -93 0 -2 738 -4 1640 -4 902 0 1640 2 1640 4 0 3 -87 155
-160 281 -10 17 -83 143 -162 280 -80 138 -180 311 -223 385 -43 74 -143 248
-223 385 -79 138 -152 264 -162 280 -10 17 -84 145 -165 285 -178 308 -180
312 -204 353 -10 17 -76 131 -146 252 -70 121 -140 242 -155 270 -33 58 -44
64 -61 33z m206 -1023 c67 -18 118 -48 164 -97 40 -43 42 -77 4 -79 -16 -1 15
-5 68 -10 116 -9 191 -40 250 -102 94 -100 106 -270 28 -383 -16 -23 -42 -48
-59 -56 -16 -7 -30 -16 -30 -20 0 -4 19 -17 43 -29 101 -51 129 -104 135 -250
5 -136 -12 -202 -69 -264 -87 -94 -159 -107 -579 -103 l-315 3 -3 58 -3 57
263 2 c365 2 404 4 454 23 59 22 88 60 104 134 10 49 10 73 0 123 -20 104 -63
144 -178 167 -30 6 -73 25 -97 41 -24 17 -48 30 -54 30 -20 0 -11 15 17 32 15
9 59 19 98 23 78 7 123 29 151 72 27 40 26 206 -1 246 -34 50 -149 93 -131 50
16 -37 17 -78 5 -147 -21 -117 -71 -196 -150 -236 -22 -11 -40 -24 -40 -28 0
-8 48 -32 65 -32 5 0 38 -29 71 -64 78 -80 104 -145 111 -273 3 -50 3 -102 0
-115 -6 -23 -10 -24 -68 -22 -33 1 -63 4 -65 7 -2 2 -6 51 -7 108 -5 175 -56
249 -212 308 -19 7 -87 11 -185 9 l-155 -3 -3 -329 c-2 -249 1 -332 10 -343
10 -13 39 -15 168 -11 133 4 162 8 207 27 28 13 59 31 69 42 14 16 31 19 96
19 43 0 78 -4 78 -9 0 -22 -94 -110 -147 -138 -94 -49 -145 -57 -388 -58
l-220 0 -3 818 -2 817 223 0 c168 0 237 -4 282 -15z m-527 -243 l-3 -57 -62
-3 -63 -3 0 -194 0 -194 63 -3 62 -3 0 -55 0 -55 -63 -3 -62 -3 2 -227 3 -227
63 -3 62 -3 0 -60 0 -60 -132 3 -133 3 -3 599 c-1 351 2 602 7 605 5 3 66 5
135 3 l127 -3 -3 -57z"/>
<path d="M3823 3785 c-11 -8 -13 -63 -11 -295 l3 -285 160 0 c148 0 163 2 205
23 73 38 93 62 126 147 4 11 10 61 13 110 l6 90 55 6 55 6 -45 2 c-25 1 -151
2 -281 1 -130 -1 -248 2 -263 6 -25 6 -27 9 -24 58 l3 51 213 3 c123 1 212 6
212 12 0 18 -85 59 -136 65 -81 11 -276 11 -291 0z"/>
</g>
</svg>
