<svg xmlns="http://www.w3.org/2000/svg" version="1.1" width="167" height="140">
<path d="M0 0 C55.11 0 110.22 0 167 0 C167 46.2 167 92.4 167 140 C111.89 140 56.78 140 0 140 C0 93.8 0 47.6 0 0 Z " fill="#FEFEFE" transform="translate(0,0)"/>
<path d="M0 0 C3.43862009 4.00653698 5.89000546 8.19288642 8.375 12.8125 C12.36550596 20.11045913 16.48176642 27.32399278 20.6875 34.5 C25.63185445 42.94258476 30.55228667 51.39803663 35.4375 59.875 C36.05971436 60.95458984 36.68192871 62.03417969 37.32299805 63.14648438 C38.58511517 65.3368252 39.84707785 67.52725502 41.10888672 69.71777344 C44.23680147 75.1465994 47.36856046 80.57320669 50.5 86 C54.00644483 92.07716164 57.51274701 98.15440473 61.01696777 104.23284912 C62.02619104 105.98341241 63.03553836 107.73390411 64.04492188 109.484375 C65.3016766 111.66392165 66.55820586 113.84359832 67.81445312 116.0234375 C68.39130859 117.02375 68.96816406 118.0240625 69.5625 119.0546875 C70.40167969 120.5102002 70.40167969 120.5102002 71.2578125 121.99511719 C73.7214031 126.2442586 76.21644012 130.47485922 78.71484375 134.70361328 C80 137 80 137 80 138 C27.53 138 -24.94 138 -79 138 C-72.17527603 124.35055205 -72.17527603 124.35055205 -68.5625 118.375 C-67.6915806 116.91343182 -66.82187049 115.45114263 -65.953125 113.98828125 C-65.48326172 113.19760254 -65.01339844 112.40692383 -64.52929688 111.59228516 C-61.58647461 106.60395712 -58.70270736 101.58143189 -55.8125 96.5625 C-55.17586426 95.45777344 -54.53922852 94.35304688 -53.88330078 93.21484375 C-51.92162553 89.81022667 -49.96073749 86.40515721 -48 83 C-40.13183428 69.3381492 -32.2456284 55.68779701 -24.29125977 42.07592773 C-19.79528237 34.37682954 -15.32881953 26.6610321 -10.875 18.9375 C-10.24722656 17.84888672 -9.61945313 16.76027344 -8.97265625 15.63867188 C-5.97185672 10.4314021 -2.97702404 5.22090037 0 0 Z " fill="#1A1A19" transform="translate(82,0)"/>
<path d="M0 0 C25 0 25 0 32 4 C32.9375 6.25 32.9375 6.25 33 8 C26.58434783 8.2515942 26.58434783 8.2515942 23.75 7.03125 C20.25229645 5.71961117 16.87668719 5.54505319 13.1875 5.375 C10.815625 5.25125 8.44375 5.1275 6 5 C6 14.57 6 24.14 6 34 C8.7225 33.87625 11.445 33.7525 14.25 33.625 C15.10110352 33.59100098 15.95220703 33.55700195 16.82910156 33.52197266 C22.22848651 33.31778192 22.22848651 33.31778192 27 31 C29.69739416 26.00482563 30.50655256 21.6253008 31 16 C32.98 16.33 34.96 16.66 37 17 C37.91713845 26.39217705 37.91713845 26.39217705 35.734375 30.21875 C34.23456991 31.93697331 32.70377451 33.48602421 31 35 C30.34 35.66 29.68 36.32 29 37 C29.99 36.34 30.98 35.68 32 35 C33.134375 34.855625 34.26875 34.71125 35.4375 34.5625 C39.13465169 33.97873921 40.42435136 33.61450541 43 31 C43.67187442 28.14486652 43.67187442 28.14486652 43.5625 25 C43.58441406 23.948125 43.60632813 22.89625 43.62890625 21.8125 C43.28118276 18.86259714 43.28118276 18.86259714 40.90136719 17.35620117 C37.40270507 15.72080332 34.8045897 15.57031042 30.94921875 15.48828125 C30.29041214 15.47033005 29.63160553 15.45237885 28.95283508 15.43388367 C26.86445369 15.38003344 24.7762974 15.34596892 22.6875 15.3125 C21.2649428 15.2793043 19.84241521 15.24481256 18.41992188 15.20898438 C14.94683085 15.12432399 11.47366087 15.0573923 8 15 C8 13.35 8 11.7 8 10 C12.73219762 9.90072847 17.46378213 9.82834367 22.19677734 9.78027344 C23.80495774 9.76022373 25.41306583 9.73297636 27.02099609 9.69824219 C29.3397002 9.64942736 31.65743625 9.62696572 33.9765625 9.609375 C34.68930328 9.58872986 35.40204407 9.56808472 36.13638306 9.54681396 C41.24926201 9.54454316 44.05775962 10.80751978 48 14 C51.67174721 18.15487185 52.64089643 21.41071535 52.39453125 26.8125 C51.7765256 30.23906599 50.26304745 32.41366006 48 35 C47.01 35.33 46.02 35.66 45 36 C45 36.66 45 37.32 45 38 C45.7425 38.04125 46.485 38.0825 47.25 38.125 C50 39 50 39 52.3125 41.375 C54.85827543 46.84370277 54.98481292 52.32025983 53.421875 58.16015625 C52.1693904 61.2980299 50.7809095 64.04306369 48 66 C43.21252582 67.96281929 38.863004 68.26704903 33.7578125 68.1953125 C32.98944061 68.1924826 32.22106873 68.18965271 31.42941284 68.18673706 C28.99444479 68.17561311 26.55985538 68.1505236 24.125 68.125 C22.46615118 68.11496011 20.80729654 68.10583603 19.1484375 68.09765625 C15.09881421 68.07569937 11.04947113 68.04122406 7 68 C7 69.65 7 71.3 7 73 C9.91809581 72.91293747 12.83315711 72.80605266 15.75 72.6875 C16.9875 72.65366211 16.9875 72.65366211 18.25 72.61914062 C22.87781989 72.41387442 25.4091693 72.12535265 29 69 C31.73713695 68.62539184 34.22025584 68.86101279 37 69 C34.66325818 74.2576691 31.13126716 75.99082821 26 78 C17.58588177 80.10352956 8.67307455 79 0 79 C0 52.93 0 26.86 0 0 Z " fill="#DAE014" transform="translate(67,51)"/>
<path d="M0 0 C25 0 25 0 32 4 C32.9375 6.25 32.9375 6.25 33 8 C26.58434783 8.2515942 26.58434783 8.2515942 23.75 7.03125 C20.25229645 5.71961117 16.87668719 5.54505319 13.1875 5.375 C10.815625 5.25125 8.44375 5.1275 6 5 C6 14.57 6 24.14 6 34 C8.7225 33.87625 11.445 33.7525 14.25 33.625 C15.10110352 33.59100098 15.95220703 33.55700195 16.82910156 33.52197266 C22.22848651 33.31778192 22.22848651 33.31778192 27 31 C29.69739416 26.00482563 30.50655256 21.6253008 31 16 C32.98 16.33 34.96 16.66 37 17 C37.91713845 26.39217705 37.91713845 26.39217705 35.734375 30.21875 C34.23456991 31.93697331 32.70377451 33.48602421 31 35 C30.34 35.66 29.68 36.32 29 37 C29.721875 37.37125 30.44375 37.7425 31.1875 38.125 C35.37880699 40.91920466 38.37721433 44.131643 40 49 C40.068991 51.06145107 40.08467727 53.12501401 40.0625 55.1875 C40.05347656 56.27417969 40.04445312 57.36085937 40.03515625 58.48046875 C40.02355469 59.31191406 40.01195312 60.14335938 40 61 C37.69 61 35.38 61 33 61 C32.94392578 59.78763672 32.94392578 59.78763672 32.88671875 58.55078125 C32.82097656 57.48214844 32.75523438 56.41351563 32.6875 55.3125 C32.62949219 54.25675781 32.57148437 53.20101562 32.51171875 52.11328125 C31.93228319 48.58801301 31.27757877 46.75657472 29 44 C20.8109877 40.02667535 20.8109877 40.02667535 6 40 C6 51.22 6 62.44 6 74 C9.0525 73.731875 12.105 73.46375 15.25 73.1875 C16.20551758 73.11039795 17.16103516 73.0332959 18.14550781 72.95385742 C22.71493811 72.51151414 25.44667579 72.08401724 29 69 C31.73713695 68.62539184 34.22025584 68.86101279 37 69 C34.66325818 74.2576691 31.13126716 75.99082821 26 78 C17.58588177 80.10352956 8.67307455 79 0 79 C0 52.93 0 26.86 0 0 Z " fill="#E1E713" transform="translate(67,51)"/>
<path d="M0 0 C5.41814712 1.55815996 9.85502827 2.98455864 14 7 C15.73498116 10.46996232 15.60794181 14.21507195 15 18 C12.5625 21 12.5625 21 10 23 C9.505 23.495 9.505 23.495 9 24 C6.47905924 24.08847743 3.98569107 24.11527301 1.46484375 24.09765625 C0.33496788 24.09553383 0.33496788 24.09553383 -0.81773376 24.09336853 C-3.2326956 24.08775376 -5.64756601 24.07519883 -8.0625 24.0625 C-9.69596221 24.0574869 -11.32942586 24.05292366 -12.96289062 24.04882812 C-16.9753243 24.03862875 -20.98755936 24.01905645 -25 24 C-25 16.74 -25 9.48 -25 2 C-8.45220588 1.40900735 -8.45220588 1.40900735 -2 6 C0.89121977 9.84605679 1.3445264 12.54936598 1.1875 17.3125 C1.16042969 18.38113281 1.13335937 19.44976562 1.10546875 20.55078125 C1.07066406 21.35902344 1.03585938 22.16726562 1 23 C3.31 23 5.62 23 8 23 C7.55099318 13.43150991 6.33968165 7.43273021 0 0 Z " fill="#181816" transform="translate(99,89)"/>
<path d="M0 0 C4.29 0 8.58 0 13 0 C13 1.98 13 3.96 13 6 C11.02 6 9.04 6 7 6 C7 12.27 7 18.54 7 25 C8.98 25 10.96 25 13 25 C13 26.98 13 28.96 13 31 C11.02 31 9.04 31 7 31 C7 38.26 7 45.52 7 53 C8.98 53 10.96 53 13 53 C13 54.98 13 56.96 13 59 C8.71 59 4.42 59 0 59 C0 39.53 0 20.06 0 0 Z " fill="#DEE415" transform="translate(53,60)"/>
<path d="M0 0 C2.371875 -0.04125 4.74375 -0.0825 7.1875 -0.125 C7.92508545 -0.14320801 8.6626709 -0.16141602 9.42260742 -0.18017578 C13.47314023 -0.21408976 16.32507612 0.38785723 20 2 C21.32 2 22.64 2 24 2 C27.70967158 2 29.74009571 2.37004786 33 4 C33 4.33 33 4.66 33 5 C22.77 5 12.54 5 2 5 C2 6.65 2 8.3 2 10 C2.87736816 9.97905273 3.75473633 9.95810547 4.65869141 9.93652344 C7.93516683 9.868074 11.21087512 9.81806949 14.48779297 9.78027344 C15.90197795 9.76024157 17.31608097 9.73300752 18.72998047 9.69824219 C20.77071419 9.64934511 22.8103469 9.62694877 24.8515625 9.609375 C26.68968506 9.5779541 26.68968506 9.5779541 28.56494141 9.54589844 C32.67946584 10.08982278 34.82445891 11.36847116 38 14 C39.07664776 18.06365515 38.76013913 21.88257969 38 26 C35.27763795 29.54732025 33.55522185 29.89077603 29.1875 30.75 C28.135625 30.8325 27.08375 30.915 26 31 C26 31.66 26 32.32 26 33 C24.35 32.67 22.7 32.34 21 32 C21.7425 31.443125 22.485 30.88625 23.25 30.3125 C28.17687573 26.16944541 30.15208066 23.66495955 30.75 17.1875 C30.85045349 15.45924339 30.93940061 13.73011257 31 12 C28.03 11.505 28.03 11.505 25 11 C24.67 12.32 24.34 13.64 24 15 C24 13.68 24 12.36 24 11 C16.41 11 8.82 11 1 11 C1 16.94 1 22.88 1 29 C0.67 29 0.34 29 0 29 C0 19.43 0 9.86 0 0 Z " fill="#7E8114" transform="translate(73,56)"/>
<path d="M0 0 C5.41814712 1.55815996 9.85502827 2.98455864 14 7 C15.73498116 10.46996232 15.60794181 14.21507195 15 18 C12.5625 21 12.5625 21 10 23 C9.67 23.33 9.34 23.66 9 24 C6.32941149 24.14115161 3.67567762 24.04247107 1 24 C1 23.67 1 23.34 1 23 C3.31 23 5.62 23 8 23 C7.55099318 13.43150991 6.33968165 7.43273021 0 0 Z " fill="#292A16" transform="translate(99,89)"/>
<path d="M0 0 C4.875 1.875 4.875 1.875 6 3 C7.11670628 13.54489788 7.11670628 13.54489788 3.9375 17.6875 C0.58909819 19.18359443 -2.35381462 19.71402468 -6 20 C-6 20.66 -6 21.32 -6 22 C-7.65 21.67 -9.3 21.34 -11 21 C-10.2575 20.443125 -9.515 19.88625 -8.75 19.3125 C-1.94721394 13.59197535 -1.04331015 8.60730875 0 0 Z " fill="#2B2B16" transform="translate(105,67)"/>
<path d="M0 0 C10.23 0 20.46 0 31 0 C31 0.33 31 0.66 31 1 C30.39671875 1.03738281 29.7934375 1.07476562 29.171875 1.11328125 C28.37265625 1.17902344 27.5734375 1.24476562 26.75 1.3125 C25.56664062 1.39951172 25.56664062 1.39951172 24.359375 1.48828125 C21.92549889 1.81365881 21.92549889 1.81365881 20.28125 3.53125 C16.65583896 5.86541875 12.95846725 5.31572674 8.75 5.1875 C7.90953125 5.17396484 7.0690625 5.16042969 6.203125 5.14648438 C4.13514062 5.11123464 2.06748729 5.0574302 0 5 C0 3.35 0 1.7 0 0 Z " fill="#202016" transform="translate(74,119)"/>
<path d="M0 0 C2.58361518 -0.05407567 5.16609255 -0.093707 7.75 -0.125 C8.84441406 -0.15013672 8.84441406 -0.15013672 9.9609375 -0.17578125 C13.8044624 -0.21072239 16.74606772 -0.17499684 20 2 C20 2.33 20 2.66 20 3 C13.4 3 6.8 3 0 3 C0 2.01 0 1.02 0 0 Z " fill="#191916" transform="translate(74,57)"/>
<path d="M0 0 C3.53586014 3.17320782 5.58578031 5.16743695 6 10 C3.25722422 6.80009492 1.3697164 3.99500618 0 0 Z " fill="#E4E5CD" transform="translate(112,63)"/>
</svg>