<?xml version="1.0" encoding="utf-8"?>
<!-- Generator: Adobe Illustrator 19.2.1, SVG Export Plug-In . SVG Version: 6.00 Build 0)  -->
<svg version="1.1" id="layer" xmlns="http://www.w3.org/2000/svg" xmlns:xlink="http://www.w3.org/1999/xlink" x="0px" y="0px"
	 viewBox="0 0 652 652" style="enable-background:new 0 0 652 652;" xml:space="preserve">
<style type="text/css">
	.st0{fill:#008739;}
</style>
<g>
	<path d="M184.7,328.6c6.4,0,11.4-2,14.2-5c2-2,3.9-5.3,3.9-10.3c0-4.2-1.4-7.5-3.5-9.6c-1.7-1.6-4.4-2.8-7.2-3.1
		c2-0.9,3.1-2,4.2-4.1c1.1-2.2,1.5-4.2,1.5-6.4c0-4.6-1.4-7.9-3.2-9.8c-3.2-3.5-7.7-4.1-11.5-4.1h-20.3v52.4H184.7z M176.4,286.6
		h2.5c2.7,0,4.3,0.7,5.2,1.6c0.8,0.9,1.3,2.2,1.3,3.5c0,1.2-0.4,2.6-1.3,3.5c-1.4,1.5-3.8,1.7-5.2,1.7h-2.5V286.6z M176.4,307h2.8
		c3.4,0,6.8,0.1,8.4,1.7c0.8,0.8,1.3,2.1,1.3,3.8c0,1.5-0.5,2.7-1.1,3.4c-1.5,1.7-4.6,2.1-8.4,2.1h-3.1V307z M209,328.6h13.6v-52.4
		H209V328.6z M286.8,302.4c0-7-2.7-14.4-8.3-19.7c-5.3-5.1-12.9-7.8-20.7-7.8c-7.8,0-15.3,2.7-20.7,7.8c-5.6,5.3-8.3,12.7-8.3,19.7
		c0,6.9,2.7,14.2,8.3,19.6c5.3,5.1,12.9,7.8,20.7,7.8c7.8,0,15.3-2.7,20.7-7.8C284.1,316.7,286.8,309.3,286.8,302.4 M257.9,288.2
		c3.6,0,7.6,1.4,10.5,4.2c2.4,2.4,4.2,6,4.2,10.1c0,4-1.8,7.6-4.2,10.1c-2.4,2.4-5.9,4.1-10.5,4.1c-4.6,0-8.1-1.7-10.6-4.2
		c-2-1.9-4.2-5.1-4.2-9.7c0-3.7,1.3-7.5,4.2-10.3C250.1,289.5,254.1,288.2,257.9,288.2 M323.2,276.2h-30v52.4h13.6V308h14.9v-11.6
		h-14.9v-8.7h16.4V276.2z M383.6,302.4c0-7-2.7-14.4-8.3-19.7c-5.3-5.1-12.9-7.8-20.7-7.8s-15.3,2.7-20.7,7.8
		c-5.6,5.3-8.3,12.7-8.3,19.7c0,6.9,2.7,14.2,8.3,19.6c5.3,5.1,12.9,7.8,20.7,7.8s15.3-2.7,20.7-7.8
		C380.9,316.7,383.6,309.3,383.6,302.4 M354.7,288.2c3.6,0,7.6,1.4,10.5,4.2c2.4,2.4,4.2,6,4.2,10.1c0,4-1.8,7.6-4.2,10.1
		c-2.4,2.4-5.9,4.1-10.5,4.1c-4.6,0-8.1-1.7-10.6-4.2c-2-1.9-4.2-5.1-4.2-9.7c0-3.7,1.3-7.5,4.2-10.3
		C346.9,289.5,350.9,288.2,354.7,288.2 M389.9,276.2v52.4h13.6v-20.1l13.1,20.1h16.9l-16.4-21.5c2.4-0.5,5.2-1.7,7.2-3.6
		c2.6-2.5,4.2-6.4,4.2-10.9c0-4.2-1.5-8.7-4.5-11.8c-3.9-4-8.9-4.6-12.8-4.6H389.9z M403.5,286.7h2.6c3,0,5.3,0.8,6.5,2
		c1.2,1.1,1.8,2.8,1.8,4.4c0,1.7-0.7,3.4-1.7,4.4c-1.7,1.6-4.6,2.1-6.6,2.1h-2.6V286.7z M466.4,276.2h-29.8v52.4h29.8V317h-16.2v-9
		h15.3v-11.6h-15.3v-8.7h16.2V276.2z"/>
	<polygon points="125.7,320 105.4,275.2 97,328.6 101.4,328.6 107.1,288.8 125.7,329.7 144.5,288.8 149.9,328.6 154.4,328.6 
		146.5,275.2 	"/>
	<path d="M77.9,301.1h-5.8v-20.9h5.3c8.2,0,12.8,3.6,12.8,10.3C90.2,297.1,85.6,301.1,77.9,301.1 M67.8,328.6h4.3v-23.5h6.1
		c7.9,0,16.3-3.8,16.3-14.3c0-2.6-0.6-7.5-4.7-11c-3.5-3-7.7-3.6-13.1-3.6h-9V328.6z"/>
	<path d="M20.2,276.2v34c0,4.1,0.4,8.5,3.2,12.5c3.2,4.4,8.7,7,15.1,7c6.4,0,11.9-2.5,15.1-7c2.9-4,3.2-8.3,3.2-12.5v-34h-4.3v32.3
		c0,4.6,0,9.9-4.6,13.8c-2.3,1.9-6.2,3.3-9.5,3.3c-3.3,0-7.2-1.4-9.5-3.3c-4.6-3.9-4.6-9.2-4.6-13.8v-32.3H20.2z"/>
	<path d="M78,384.4c4.7,0,8.3-1.5,10.4-3.6c1.4-1.4,2.8-3.9,2.8-7.5c0-3-1-5.5-2.6-7c-1.2-1.1-3.2-2.1-5.2-2.3
		c1.4-0.6,2.3-1.5,3.1-3c0.8-1.6,1.1-3,1.1-4.7c0-3.4-1-5.7-2.4-7.2c-2.4-2.6-5.6-3-8.4-3H62.1v38.2H78z M72,353.7h1.8
		c1.9,0,3.2,0.5,3.8,1.1c0.6,0.6,0.9,1.6,0.9,2.6c0,0.9-0.3,1.9-0.9,2.5c-1,1.1-2.8,1.2-3.8,1.2H72V353.7z M72,368.6h2.1
		c2.5,0,4.9,0.1,6.1,1.3c0.6,0.6,1,1.5,1,2.8c0,1.1-0.3,1.9-0.8,2.5c-1.1,1.3-3.4,1.5-6.1,1.5H72V368.6z M117.7,346.1H96v38.2h21.7
		v-8.4h-11.8v-6.6h11.2v-8.4h-11.2v-6.4h11.8V346.1z M133,384.4h10V366l14.3-19.9h-12l-6.9,10.4l-7.2-10.4h-11.9L133,366V384.4z
		 M196.3,365.3c0-5.1-1.9-10.5-6-14.3c-3.9-3.7-9.4-5.7-15.1-5.7c-5.7,0-11.2,1.9-15.1,5.7c-4.1,3.8-6,9.2-6,14.3
		c0,5,1.9,10.4,6,14.3c3.9,3.7,9.4,5.7,15.1,5.7c5.7,0,11.2-1.9,15.1-5.7C194.3,375.6,196.3,370.3,196.3,365.3 M175.2,354.9
		c2.6,0,5.6,1,7.7,3c1.8,1.7,3.1,4.4,3.1,7.3c0,2.9-1.3,5.6-3.1,7.3c-1.8,1.8-4.3,3-7.7,3c-3.3,0-5.9-1.3-7.7-3
		c-1.4-1.4-3-3.7-3-7.1c0-2.7,1-5.5,3-7.5C169.5,355.9,172.4,354.9,175.2,354.9 M211.2,384.4V361l18.3,23.4h9.9v-38.2h-9.9v23.4
		l-18.3-23.4h-9.9v38.2H211.2z M260.5,384.4c6.5,0,11.6-2.7,14.7-5.8c3.7-3.7,5-8.2,5-13.2c0-4.1-0.9-9.6-5.3-13.9
		c-4.9-4.8-11.4-5.3-15.2-5.3h-13v38.2H260.5z M256.6,354.5h2.4c2.5,0,5.6,0.2,7.9,2.4c1.9,1.8,3,4.8,3,8.4c0,4.2-1.7,6.6-2.9,7.9
		c-2.6,2.5-6,2.8-8.4,2.8h-2V354.5z"/>
	<path d="M443.4,375.9c0.6,2.4,1.9,4.6,3.4,6.1c2.1,2,4.7,3,8.2,3c7,0,11.9-4.7,11.9-11.5c0-2.8-0.8-4.9-2.7-6.7
		c-1.5-1.5-3.5-2.5-5.9-3.6l-3.8-1.7c-1.5-0.7-3.1-1.3-4.3-2.6c-1.2-1.1-1.7-2.2-1.7-3.9c0-4,3-6.7,7.2-6.7c2.4,0,3.9,0.8,4.8,1.5
		c0.8,0.6,1.6,1.6,2.2,2.6l2.5-1.6c-0.9-1.5-2.1-2.8-3.4-3.7c-1.8-1.2-3.5-1.7-6-1.7c-6.2,0-10.4,3.9-10.4,9.6c0,2.5,0.7,4.3,2.5,6
		c1.6,1.5,3.3,2.3,4.8,3l3.9,1.8c2.1,0.9,3.7,1.7,4.9,2.8c1.4,1.3,2.1,3,2.1,5.1c0,5.8-4.4,8.4-8.5,8.4c-2.6,0-4.5-0.8-6.1-2.4
		c-1.2-1.2-2-2.9-2.4-4.7L443.4,375.9z"/>
	<polygon points="428.2,384.4 442.2,384.4 442.2,381.4 431.4,381.4 431.4,346.1 428.2,346.1 	"/>
	<rect x="417" y="346.1" width="3.1" height="38.2"/>
	<path d="M387.8,375.9c0.6,2.4,1.9,4.6,3.4,6.1c2.1,2,4.7,3,8.2,3c7,0,11.9-4.7,11.9-11.5c0-2.8-0.8-4.9-2.7-6.7
		c-1.5-1.5-3.5-2.5-5.9-3.6l-3.8-1.7c-1.5-0.7-3.1-1.3-4.3-2.6c-1.2-1.1-1.7-2.2-1.7-3.9c0-4,3-6.7,7.2-6.7c2.4,0,3.9,0.8,4.8,1.5
		c0.8,0.6,1.6,1.6,2.2,2.6l2.5-1.6c-0.9-1.5-2.1-2.8-3.4-3.7c-1.8-1.2-3.5-1.7-6-1.7c-6.2,0-10.4,3.9-10.4,9.6c0,2.5,0.7,4.3,2.5,6
		c1.6,1.5,3.3,2.3,4.8,3l3.9,1.8c2.1,0.9,3.7,1.7,4.9,2.8c1.4,1.3,2.1,3,2.1,5.1c0,5.8-4.4,8.4-8.5,8.4c-2.6,0-4.5-0.8-6.1-2.4
		c-1.2-1.2-2-2.9-2.4-4.7L387.8,375.9z"/>
	<path d="M360.2,375.9c0.6,2.4,1.9,4.6,3.4,6.1c2.1,2,4.7,3,8.2,3c7,0,11.9-4.7,11.9-11.5c0-2.8-0.8-4.9-2.7-6.7
		c-1.5-1.5-3.5-2.5-5.9-3.6l-3.8-1.7c-1.5-0.7-3.1-1.3-4.3-2.6c-1.2-1.1-1.7-2.2-1.7-3.9c0-4,3-6.7,7.2-6.7c2.4,0,3.9,0.8,4.8,1.5
		c0.8,0.6,1.6,1.6,2.2,2.6l2.5-1.6c-0.9-1.5-2.1-2.8-3.4-3.7c-1.8-1.2-3.5-1.7-6-1.7c-6.2,0-10.4,3.9-10.4,9.6c0,2.5,0.7,4.3,2.5,6
		c1.6,1.5,3.3,2.3,4.8,3l3.9,1.8c2.1,0.9,3.7,1.7,4.9,2.8c1.4,1.3,2.1,3,2.1,5.1c0,5.8-4.4,8.4-8.5,8.4c-2.6,0-4.5-0.8-6.1-2.4
		c-1.2-1.2-2-2.9-2.4-4.7L360.2,375.9z"/>
	<path d="M336.8,382.2c-9.2,0-16.7-7.6-16.7-16.9s7.5-16.9,16.7-16.9c9.2,0,16.7,7.6,16.7,16.9S346,382.2,336.8,382.2 M336.8,345.5
		c-11.4,0-19.9,8.5-19.9,19.8c0,11.3,8.6,19.8,19.9,19.8c11.4,0,19.9-8.5,19.9-19.8C356.7,354,348.2,345.5,336.8,345.5"/>
	<polygon points="296.3,384.4 299.4,384.4 299.4,364.8 312.6,364.8 312.6,361.9 299.4,361.9 299.4,349 313,349 313,346.1 
		296.3,346.1 	"/>
</g>
<g>
	<path class="st0" d="M552.6,263h3.3c1.2-2.8,2.7-5.4,4.7-7.8c-0.1-1.2-0.4-2.4-0.8-3.5C556.8,254.1,554,259.5,552.6,263 M549,271.7
		c-2.2,0-4.3-1.3-4.3-4.2h2.9c-0.4,0.6-0.5,1-0.5,1.4c0,0.9,0.9,1.3,1.8,1.3c1,0,2.1-0.5,2.1-1.5c0-0.3-0.1-0.7-0.5-1.2h2.8
		C553.3,270.4,551.1,271.7,549,271.7 M527,315.8c0.7-1.3,1.9-2.4,3.2-2.7c0-5.5,1.1-9.8,4.1-14c-5.7-3.7-12.7-8.3-12.7-13.6
		c0-2.2,1.3-5.5,1.3-8.1c0-2.1-0.8-3.9-3.8-5.1c-1.3-1.9-3-2.7-5.6-2.1c0.8,0.5,1.3,1.3,1.6,2.1c-1,0.4-1.8,1.1-2.6,1.9
		c-1.3-0.8-2.4-1.2-4-0.8c-1.6-1.3-3.8-1.3-5.4,0c1,0.4,1.6,0.9,2.2,1.7c-1,1.5-1.2,3-1.1,4.3c-0.8,0.1-1.5,0.3-2.1,0.8
		c-2.1-1.1-5.1,0.4-5.6,2.4c1-0.3,2.1-0.1,3,0.4c-0.2,0.6-0.3,1.2-0.3,1.8c0,2.4,1.5,4.5,5.1,4.9c2.5,0.2,4.2,1.3,4.2,3.1
		c0,1.1-0.8,1.7-2.1,1.7c-2.1,0-3,1.4-3,3c0,0.9,0.3,1.9,0.8,2.6c-1,1.1-1.8,1.4-3.2,1.8c1.6,1.7,3.4,2.2,5.6,1.4
		c0.9,0.5,1.7,0.8,2.4,0.8c3.5,0,3.1-5.6,6.2-5.6c1.1,0,1.5,0.7,1.5,1.6c0,1.4-0.8,3.2-1.1,4c0.8,0.5,2,0.9,3.3,0.6
		c-0.5,1.6-0.7,3.8,0.5,5.5c0.8-1.1,1.6-1.9,2.9-2.4c-0.4,2.7-0.1,4,0.8,5.2c0.8-1.3,1.6-2.1,3.2-2.2
		C525.9,312.6,525.8,314.4,527,315.8 M565.3,396.5c2.4-3.3,2.9-7.3,1.6-11.1c1.1,0.1,2.1,0,2.9-0.4c-1.8-2.1-2.6-4.1-3.3-6.3
		c-0.8-2.6-1.8-4.9-6.7-6.1c-0.9-5.6-0.6-10,3.8-14c-0.6-1.5-1.2-3-1.7-4.4c-6.7,4.1-7.1,12.8-6.3,19.6c-2.1,1.5-3.3,4.8-3.3,7.5
		c0,3.6,2.1,6.3,3.9,8.5c1.5,1.9,2.8,3.6,3.2,5.4c1-0.6,1.8-1.4,2.4-2.4C562.8,394,564,395.4,565.3,396.5 M518.2,390.9
		c0.7-1.4,1.8-2.5,3-3.1c1.6,0.9,2.9,1.2,4,1.2c5.4,0,6-8.9,10.3-8.9c1.5,0,1.8,1.1,2.2,2.5c0.5,2.1,1.2,4.4,5.3,3.4
		c1.5,1.1,2.3,2.4,2.3,4.1c2.3-1.7,2.5-3.6,1.6-6.2c0.7-1.3,1-2.3,1-3.1c0-3.1-4.7-2.8-4.7-7c0-0.9,0.2-2.1,0.8-3.5
		c1.8,0.5,3.4,1.3,4.3,3c0.6-1.1,0.8-2,0.8-2.8c0-2.6-2.8-3.7-2.8-5.4c2.2,0.4,3.9,1.2,4.8,2.4c0.6-0.7,0.8-1.4,0.8-2
		c0-2.5-4-4.5-4-6.6c2.2,0.3,3.8,1.1,5.1,2.8c0.6-0.6,0.8-1.3,0.8-1.9c0-2.6-3.3-5.4-3.3-7.6c0-1.5,1.5-2.9,10.3-4.3
		c0.4-2.5,0.7-4.7,0.7-6.1c0-3.5-1.7-4.7-7.9-7.2c-4.8,1.2-8.2,3.3-10.8,5.2c-2.4,1.7-4.2,2.8-6.3,2.8c-1.7,0-4.3-0.7-5.5-2
		c-0.8,0.7-1.2,1.7-1.2,2.7c0,1.5,0.9,3.1,2.2,3.9c-0.7,1.6-1.4,2.5-3.1,3c0.6,1.9,2.9,2.6,4.6,2.3c-0.4,1.2-1.3,2.1-2.4,2.6
		c0.9,1.2,2.4,1.9,4.1,1.7c-1.3,8.2-3.3,10.3-5.6,10.3c-2.5,0-5.4-2.5-8.3-2.5c-1.3,0-2.6,0.5-3.9,2c-2.5,0.2-4,1.5-4.6,4
		c1.3-0.6,1.9-0.6,3.3-0.1c0,0.6,0.1,1.3,0.1,1.9c-1.2,1-1.7,2.3-1.9,3.7c-1.8,1.3-2.6,3.5-1.6,5.4c0.9-1.2,1.7-1.7,2.5-1.7
		c0.8,0,1.9,0.4,3.1,0.8c-0.4,1.1-0.4,2.9,0.3,3.8C516.8,387,516.9,388.4,518.2,390.9 M583.3,393.4c0.4-1.2,1-2.3,1.8-3.2
		c1,0.3,1.8,0.5,2.6,0.5c3,0,4.1-2.6,4.7-7c0.6-4.4,1.6-6.5,3.1-6.5c2.1,0,4,4.2,7.3,4.2c1.5,0,2.7-0.9,3.2-1.5
		c1.5,0.5,2.8,1.4,3.4,3.1c0.6-1,0.9-1.9,0.9-2.7c0-1.5-1-2.9-2.5-4.2c0.2-4.2-2.6-4.7-5-5c-2.5-0.3-4-0.6-4-2.9
		c0-5.1,7.7-1.4,8-7.8c-1.9,1-3.7,0.4-5.6-0.6c4.4-0.6,6.4-1.3,6.7-4.3c-2.2,0.6-3.7,0-5.7-1.1c2.2-0.7,6.2-2,5.1-5.1
		c-0.7,0.4-2,0.1-3.4-0.3c-1.3-0.4-2.8-0.7-4-0.5c-1.6-2.9-4.4-3.4-7.4-3.4c-1.2,0-3.2,0.1-4.3,0.1c-4.1,0-6.6-1.2-6.8-7.5
		c0-0.6-0.1-1.3-0.2-2c0.4-0.3,2-0.7,4-0.7c3.5,0,8,1.1,8,5.5c0,0.7-0.1,1.5-0.4,2.4c1.1,0,2.3,0,3.4,0.2c0.2-1.1,0.3-2,0.3-2.7
		c0-6-5.1-9.4-12.9-9.4c-1.4,0-2.1,0.1-2.8,0.1c-0.9,0-1.6-0.2-3.4-1.7c-0.9-0.7-2.8-2.1-6-3.3c-5.5-2-9.4-3.5-11.6-9
		c5.6-0.6,17.6,4.8,22.5,12c2.1-3,0.7-6.6-2.9-11.8c3.8,2,8.1,5.5,13.4,10.3c1.9-2.2,0.6-5.9-5.7-12.1c6,1.9,11.9,4.1,17.7,7
		c1.1-3.6-2.6-7.4-10.9-11.5c16.8,0,25.1-2.8,24.8-7.9c-10.1,0.7-15.8,0.9-21,0.9c16.4-6.2,23.9-12.2,22.2-17.9
		c-6.7,3.5-13.6,6.4-20.5,9.2c14.2-10.9,19.8-18.9,16.2-23.4c-6.4,5.5-12.9,10.8-19.7,15.6c11.5-14.3,16-24.6,10.8-27.8
		c-5.1,7.6-10.3,14.4-16.2,21.3c8-16.6,9.6-27.5,4.1-30.1c-3.3,9.6-7.7,18.8-12.5,27.6c4.8-20,3.8-30-2.2-31.1
		c-1.8,16.4-8.2,44.5-20.2,56.8c-0.2-2.9,0.1-5.6,1.2-8.1l1.8,0.4c-0.8-3.8-0.4-7.4,1.3-10.9l1.9,0.4c-1.2-1.8-1.7-5.4-2.1-9.2
		c-0.2-1.9-0.5-3.9-0.8-5.2c1.8-2.8,2.3-6.2,2.3-9.7c0-3.1-0.5-6.2-0.9-8.8c-3.4,3.2-6,7-7.8,11.4h-11.8c-3.2,0-5.6,0.9-6.2,4.6
		c-4.3-0.4-6.6,2-6.6,5.3c0,1.3,0.3,2.6,1.1,4c1.1-1.5,3.1-2.4,4.9-2.4c2.3,0,4.4,1.2,5,3.7c2.9-0.3,6.2,1.3,5.3,4.8
		c-1.7-1.4-4.3-3.1-7.1-3.1c-1.8,0-4.9,0.7-7.3,0.7c-2.2,0-3.8-0.6-3.4-3c-1.3,0.9-1.9,2.2-1.9,3.4c0,1.8,1.3,3.7,4.7,3.7
		c3.8,0,5.8-2.5,8.8-2.5c2,0,3.6,1,5,2.4c-1.5,1-2.8,1-4,0c-0.6,5.7-3.4,8.7-8.9,8.7c1.1,1.5,2.9,2.4,4.6,2.9
		c-4.7,4-6.5,11.5-6.2,17.6c-9.4,6.4-15,9.9-16.5,9.9c-3.7,0-2.5-6.1-7.5-6.1c-0.5,0-1.1,0.1-1.7,0.2c-2.5-0.6-4.4,0-5.9,2.6
		c2.1-0.1,2.5,0.1,2.5,0.8c0,0.5-0.3,1.2-0.3,2.3c-1.5,0.2-2.8,0.9-3.7,2.1c-2.5,0-3.8,2.3-4.3,4.3c1.1-0.5,2.2-0.6,3.4-0.3
		c0.3,1.3,0.9,2.5,1.8,3.3c-0.4,0.6-0.8,1.5-1,2.4c-1.9,1-2.7,3.7-2.1,5.6c0.9-1.1,2.1-1.7,3.5-1.8c1.2,2.4,2.6,3.2,4.1,3.2
		c3.3,0,6.6-4.4,8.5-4.4c0.6,0,1.1,0.5,1.1,1.1c0,1.5-2.7,1.5-2.7,4.4c0,2.1,1.3,3.2,3.2,3.5c0.2,1.5-0.2,2.7-1.1,3.8
		c2.3,1.6,4.9-2.1,5.2-4.2c2-0.5,3.2-1.9,3.2-3.5c0-1.8-1.4-2.2-1.4-3.6c0-1.6,2-4.5,3.7-4.5c1,0,2,1,2.7,3.9c1.6-1.3,2.4-2.5,3-4.3
		c1.6,1,2.7,1.3,4.4,1.3c-0.7-1.3-0.8-2.1-0.8-3.7c1.7,1.3,3,1.8,5.1,1.7c-0.8-1.3-1-2.4-1-3.8c1.6,1.1,3,1.9,5.1,1.4
		c-0.7-0.9-1-1.9-1-3.2c2.1,1.8,4.8,2.6,8,3.1c5.8,0.8,13.9,3.7,13.9,9.8c0,2.2-1.1,5.1-1.1,7.7c0,2.1,0.7,4.2,2.3,8.3
		c-0.3,0.6-0.4,1.2-0.4,1.7c0,1.6,1,2.7,1,4.1c0,0.6-0.2,1.3-0.7,2.1c2.1,0.8,3.8,0.1,4.9-2.1c0.8,0.6,1.7,1.2,2.5,1.7
		c0.4-0.7,0.9-1.5,1.3-2.2c1.1,0.6,1.9,1,3.1,1.1c-1.4-4.6,1.1-7,3.8-7c2.4,0,5,2,5,6.1c0,2.5-0.9,7.1-2.8,7.1c-1,0-3.6-1.4-6.2-1.4
		c-1.8,0-3.1,0.6-4.4,1.9c-0.5,0.5-1.1,0.9-1.6,1.3c-1.3,1-2.5,1.8-2.1,3.7c1-0.6,1.8-0.8,3.1-0.8c0.3,1.1,0.8,2,1.7,2.6
		c-0.4,1.1-0.3,2.1,0,3.2c-1.6,1.4-1.6,3.2-1.1,5.3c0.6-1,1.9-1.9,3.2-1.9c1.4,1.1,2.5,1.4,4.5,1.2c0.3,1,0.9,1.8,1.7,2.5
		C581.5,390.3,581.9,391.7,583.3,393.4"/>
</g>
</svg>
