<?xml version="1.0" encoding="UTF-8"?>
<svg version="1.1" xmlns="http://www.w3.org/2000/svg" width="435" height="380">
<path d="M0 0 C143.55 0 287.1 0 435 0 C435 125.4 435 250.8 435 380 C291.45 380 147.9 380 0 380 C0 254.6 0 129.2 0 0 Z " fill="#FEFEFE" transform="translate(0,0)"/>
<path d="M0 0 C1.859375 0.12207031 1.859375 0.12207031 4 1 C5.640625 3.16699219 5.640625 3.16699219 7.25 6.046875 C7.85199219 7.10841797 8.45398438 8.16996094 9.07421875 9.26367188 C9.70972656 10.41416016 10.34523437 11.56464844 11 12.75 C11.6719035 13.94407691 12.34509494 15.13742996 13.01953125 16.33007812 C14.38272227 18.74451043 15.73921825 21.16250112 17.08984375 23.58398438 C19.69415022 28.24137907 22.34583205 32.87091258 25 37.5 C25.96631447 39.19261207 26.93245699 40.88532232 27.8984375 42.578125 C35.90249453 56.5839212 43.94814103 70.56654346 52.1550293 84.45458984 C57.92501751 94.23699361 63.56504121 104.09532579 69.23388672 113.93652344 C71.65013238 118.12771095 74.07412423 122.31438132 76.5 126.5 C80.1403401 132.78159848 83.77001185 139.06926337 87.39477539 145.35986328 C95.21732076 158.933548 103.0944988 172.4744954 111 186 C121.36158778 203.72761771 131.64719111 221.49769914 141.89550781 239.29101562 C149.23544631 252.03275517 156.59801614 264.76045262 164.01416016 277.45800781 C170.55370383 288.65542527 177.0491243 299.87803435 183.5234375 311.11328125 C184.78640112 313.30472047 186.04942312 315.49612605 187.3125 317.6875 C187.94414062 318.78336426 188.57578125 319.87922852 189.2265625 321.00830078 C193.60733859 328.60231381 198.0149683 336.18024067 202.4375 343.75 C204.12171753 346.63612468 205.80547752 349.52251513 207.48876953 352.40917969 C208.45248004 354.06134381 209.41692166 355.71308183 210.38232422 357.36425781 C211.55090222 359.36535217 212.71401569 361.36949366 213.875 363.375 C214.49117188 364.43460937 215.10734375 365.49421875 215.7421875 366.5859375 C217 369 217 369 217 371 C74.77 371 -67.46 371 -214 371 C-212.57181199 366.71543596 -211.48701477 363.8089992 -209.26953125 360.078125 C-208.44787476 358.68424561 -208.44787476 358.68424561 -207.60961914 357.26220703 C-207.01656982 356.26817871 -206.42352051 355.27415039 -205.8125 354.25 C-204.53580222 352.08632451 -203.25978329 349.92224834 -201.984375 347.7578125 C-201.32501953 346.64180664 -200.66566406 345.52580078 -199.98632812 344.37597656 C-196.81074612 338.97873616 -193.68628131 333.55233349 -190.5625 328.125 C-189.30469949 325.94270142 -188.04688692 323.7604098 -186.7890625 321.578125 C-185.52596731 319.3854595 -184.26294656 317.19275111 -183 315 C-172.81330291 297.31366862 -162.56977665 279.66201199 -152.27050781 262.04101562 C-140.60383498 242.07672608 -129.02228479 222.0645307 -117.5625 201.98071289 C-109.07512551 187.11504244 -100.54765617 172.27137029 -91.83837891 157.53442383 C-87.44172365 150.08090124 -83.13335068 142.57656061 -78.81518555 135.07739258 C-73.92721497 126.59357476 -68.99804845 118.13453117 -64.05517578 109.68261719 C-60.37069116 103.37378174 -56.73337311 97.04011496 -53.125 90.6875 C-48.55758969 82.64821207 -43.86028666 74.69133101 -39.125 66.75 C-33.18854806 56.7898191 -27.44331873 46.73677327 -21.81274414 36.59985352 C-17.99365452 29.73565729 -14.05941068 22.96152466 -9.97265625 16.25390625 C-7.35560671 11.93707007 -4.83216909 7.569738 -2.3125 3.1953125 C-1 1 -1 1 0 0 Z " fill="#010101" transform="translate(217,6)"/>
<path d="M0 0 C72.88965517 0 72.88965517 0 87.4765625 13.38671875 C90.89645747 17.00829983 91.10460298 19.18826295 91 24 C92.68291312 25.68291312 94.85566783 25.33276586 97.1171875 25.54394531 C111.2431289 26.90867683 123.4006206 31.12209527 132.75 42.1875 C140.01644204 52.21419233 141.43715826 62.92371358 140 75 C137.92701002 84.00058406 133.85233709 90.8098032 126.68359375 96.60546875 C125.01751577 97.98549158 123.5058288 99.44840133 122 101 C123.10021484 101.41185547 123.10021484 101.41185547 124.22265625 101.83203125 C131.85692491 105.04250429 139.52071796 110.26884749 142.89941406 118.07910156 C145.20057975 125.25546412 145.45006071 132.00226906 145.375 139.5 C145.38660156 140.65886719 145.39820313 141.81773437 145.41015625 143.01171875 C145.36879148 155.21432734 142.63260147 164.51706501 134.4765625 173.71875 C127.03553963 180.83309382 117.74466717 183.21206053 107.77636719 184.12841797 C106.90168667 184.21165251 106.02700615 184.29488705 105.12582016 184.38064384 C96.00043235 185.18579952 86.91941453 185.25469148 77.765625 185.1953125 C76.02301194 185.1915665 74.28039672 185.18872708 72.53778076 185.18673706 C68.02689441 185.17922518 63.51614396 185.15968938 59.00531006 185.1373291 C54.37204831 185.11659679 49.73876385 185.10767779 45.10546875 185.09765625 C36.07024422 185.07642704 27.03515485 185.04135228 18 185 C18 179.72 18 174.44 18 169 C21.50330933 168.96241577 21.50330933 168.96241577 25.07739258 168.92407227 C32.82865193 168.84027284 40.5798506 168.75163102 48.33102894 168.66066074 C53.02657217 168.60569893 57.72212185 168.55232454 62.41772461 168.50268555 C66.95652355 168.45464398 71.49525487 168.40229207 76.03397179 168.34705925 C77.75812769 168.32681434 79.48230199 168.3080741 81.20649147 168.29092598 C101.40474057 168.91922166 101.40474057 168.91922166 119.375 161.125 C124.96656533 153.81295303 126.90655482 145.03721832 126 136 C124.82330286 128.95820303 123.39325623 122.0252125 118 117 C113.74171939 113.97571044 108.97179938 112.67139314 104 111.25 C95.81996637 108.86615941 88.50085037 104.96707362 81 101 C81.93525944 98.66904572 82.48847306 97.29263555 84.70703125 96.0234375 C89.28257325 94.61427243 93.68328395 93.7319212 98.4375 93.125 C104.61325076 92.2417156 109.90353759 90.69822819 115 87 C119.1069399 80.90181651 119.20637117 74.80445249 119.25 67.6875 C119.270625 66.85798828 119.29125 66.02847656 119.3125 65.17382812 C119.35313428 58.73837461 118.49651266 53.73056072 114 48.8125 C109.59619548 46.1518681 104.8723746 44.60421441 100 43 C100.495 44.175625 100.495 44.175625 101 45.375 C104.0894051 56.5740935 101.20144609 69.71078513 96.15234375 79.98046875 C91.4942305 88.14400959 85.22837418 95.11613307 76 98 C78.31851162 100.68947348 79.95975622 101.98404536 83.30078125 103.30859375 C91.9923909 106.8996158 100.4484593 117.06962724 104.14453125 125.66015625 C106.73752261 132.46790388 108.12464232 138.70663225 108.1328125 146.01953125 C108.13410156 147.12361328 108.13539063 148.22769531 108.13671875 149.36523438 C108.13285156 150.50283203 108.12898438 151.64042969 108.125 152.8125 C108.12886719 153.96943359 108.13273437 155.12636719 108.13671875 156.31835938 C108.13542969 157.41599609 108.13414062 158.51363281 108.1328125 159.64453125 C108.13168457 160.64846924 108.13055664 161.65240723 108.12939453 162.68676758 C108 165 108 165 107 166 C104.3226862 166.09981214 101.67695825 166.13879875 99 166.125 C97.87464844 166.13080078 97.87464844 166.13080078 96.7265625 166.13671875 C91.12661053 166.12661053 91.12661053 166.12661053 90 165 C89.87880227 163.50716663 89.8203694 162.00913661 89.7890625 160.51171875 C89.38882109 139.44002561 89.38882109 139.44002561 80 121 C77.21138807 118.48250312 74.29381708 116.77991742 71 115 C70.22897949 114.56187988 69.45795898 114.12375977 68.66357422 113.67236328 C58.58422855 108.69022742 48.26566759 109.21809908 37.25 109.1875 C35.28122277 109.16431693 33.31247005 109.1389438 31.34375 109.11132812 C26.5624083 109.04896749 21.78171164 109.01624482 17 109 C17.10732846 120.45656599 17.21992606 131.91306673 17.33933926 143.36951351 C17.39461407 148.68862221 17.44804122 154.00773635 17.49731445 159.3269043 C17.54489094 164.45568867 17.59723104 169.5844039 17.65294075 174.71310616 C17.67339484 176.67439628 17.69210275 178.63570538 17.70907402 180.59702873 C17.73305069 183.33420584 17.76311404 186.071251 17.79467773 188.80834961 C17.80331093 190.03725418 17.80331093 190.03725418 17.81211853 191.29098511 C17.51772994 194.94663295 17.51772994 194.94663295 19 198 C21.65973991 198.13864764 24.29148646 198.21324326 26.953125 198.23828125 C28.1699295 198.25038887 28.1699295 198.25038887 29.41131592 198.26274109 C31.13974864 198.27661266 32.86820911 198.28732098 34.59667969 198.29516602 C37.19782958 198.31215917 39.79763337 198.35598544 42.3984375 198.40039062 C54.50678589 198.51327135 66.0949362 197.81978721 76 190 C79.15314785 187.89790143 79.86103081 187.7565239 83.44921875 187.8046875 C84.72055664 187.81435547 84.72055664 187.81435547 86.01757812 187.82421875 C87.33918945 187.84935547 87.33918945 187.84935547 88.6875 187.875 C89.58017578 187.88402344 90.47285156 187.89304687 91.39257812 187.90234375 C93.59532314 187.92590252 95.79752588 187.95879671 98 188 C98 192.5319966 97.00029882 193.82091597 94.01171875 197.07421875 C68.56828146 221.43075192 33.09807907 215 0 215 C0 144.05 0 73.1 0 0 Z " fill="#FAFAFA" transform="translate(177,141)"/>
<path d="M0 0 C7.30668932 0.45666808 12.39437986 3.26075831 17.4375 8.5625 C20.57196619 13.45226726 20.21507632 18.55169183 20.25 24.1875 C20.270625 25.00025391 20.29125 25.81300781 20.3125 26.65039062 C20.3552281 33.36404358 19.51906817 40.08732742 15 45.3125 C7.29601779 49.64598999 -0.40319608 51.33568509 -9.09765625 52.50390625 C-12.65060812 53.11120758 -15.01619798 54.01079865 -18 56 C-18.495 56.99 -18.495 56.99 -19 58 C-18.29746094 58.09667969 -17.59492188 58.19335938 -16.87109375 58.29296875 C-13.49784043 59.12366106 -11.05432233 60.55060715 -8.0625 62.3125 C-3.2799481 64.98031807 0.96455133 66.70538614 6.3125 68.0625 C13.04114866 69.83634842 18.21113586 72.02670861 22.296875 77.84765625 C27.39597911 87.14058873 28.26822999 97.51825431 25.75 107.6875 C23.97624651 113.56716434 21.97461348 118.02151582 16.5625 121.25 C4.5130058 127.16904978 -8.21695704 126.13906119 -21.35546875 126.09765625 C-23.11094624 126.0957875 -24.86642426 126.09436576 -26.62190247 126.09336853 C-31.20685303 126.08957932 -35.79177111 126.0797804 -40.37670898 126.06866455 C-45.06949423 126.05837246 -49.76228481 126.05385432 -54.45507812 126.04882812 C-63.63673289 126.03815435 -72.81836373 126.02112196 -82 126 C-82 128.64 -82 131.28 -82 134 C-82.33 134 -82.66 134 -83 134 C-83 111.56 -83 89.12 -83 66 C-72.97625 65.8453125 -72.97625 65.8453125 -62.75 65.6875 C-60.66655273 65.64197998 -58.58310547 65.59645996 -56.43652344 65.54956055 C-46.21309202 65.42032747 -38.03353003 65.71746882 -29 71 C-28.38552002 71.35416992 -27.77104004 71.70833984 -27.13793945 72.07324219 C-25.70716491 72.97166129 -24.34761297 73.98107312 -23 75 C-21.78183594 75.87398437 -21.78183594 75.87398437 -20.5390625 76.765625 C-17.73410201 79.23399023 -16.44341594 81.34259197 -14.8125 84.6875 C-14.32394531 85.66074219 -13.83539063 86.63398438 -13.33203125 87.63671875 C-10.22508101 95.48154033 -9.6410642 103.18702066 -9.375 111.5625 C-9.33632813 112.57119141 -9.29765625 113.57988281 -9.2578125 114.61914062 C-9.16454162 117.07915999 -9.08123107 119.53955365 -9 122 C-3.72 122 1.56 122 7 122 C7.08185891 118.08289945 7.14091527 114.16755414 7.1875 110.25 C7.21263672 109.15816406 7.23777344 108.06632812 7.26367188 106.94140625 C7.42669398 88.57424883 1.31218989 77.68813462 -11 65 C-11.51175781 64.42894531 -12.02351563 63.85789063 -12.55078125 63.26953125 C-15.01006388 61.11517315 -18.02322041 60.23370081 -21.0390625 59.0625 C-23 58 -23 58 -24 55 C-23.27554688 54.57589844 -22.55109375 54.15179688 -21.8046875 53.71484375 C-9.12711542 46.02378336 -3.57245223 37.26630596 0 23 C1.49145509 15.40713773 1.59678884 7.58474698 0 0 Z " fill="#030303" transform="translate(277,184)"/>
<path d="M0 0 C0.67898346 -0.00191345 1.35796692 -0.0038269 2.05752563 -0.00579834 C3.50173307 -0.00716152 4.94595271 -0.0034558 6.39013672 0.00488281 C8.5585646 0.01541613 10.72613213 0.00507988 12.89453125 -0.0078125 C34.4447296 -0.03383314 34.4447296 -0.03383314 43.4140625 5.265625 C44.31511719 5.78125 45.21617187 6.296875 46.14453125 6.828125 C48.2265625 8.265625 48.2265625 8.265625 49.2265625 10.265625 C46.17311665 11.28344028 44.12372458 11.38659741 40.92895508 11.37915039 C39.84806107 11.37907486 38.76716705 11.37899933 37.65351868 11.37892151 C36.48781845 11.37376022 35.32211823 11.36859894 34.12109375 11.36328125 C32.92675217 11.3618663 31.73241058 11.36045135 30.50187683 11.35899353 C26.68091342 11.3533885 22.86000825 11.34083511 19.0390625 11.328125 C16.45117272 11.32311065 13.86328202 11.31854763 11.27539062 11.31445312 C4.92575875 11.30341742 -1.42382949 11.28614937 -7.7734375 11.265625 C-7.4434375 16.215625 -7.1134375 21.165625 -6.7734375 26.265625 C29.8565625 26.760625 29.8565625 26.760625 67.2265625 27.265625 C67.2265625 27.595625 67.2265625 27.925625 67.2265625 28.265625 C64.2565625 28.595625 61.2865625 28.925625 58.2265625 29.265625 C58.22245361 29.89952148 58.21834473 30.53341797 58.21411133 31.18652344 C57.89468584 59.32663164 57.89468584 59.32663164 48.03515625 69.80078125 C42.31795633 74.43134274 35.38243524 77.40190856 28.00878906 77.37915039 C27.18824036 77.37907486 26.36769165 77.37899933 25.52227783 77.37892151 C24.64609802 77.37376022 23.76991821 77.36859894 22.8671875 77.36328125 C21.51062042 77.36115883 21.51062042 77.36115883 20.12664795 77.35899353 C17.24325223 77.35340411 14.35993468 77.34085353 11.4765625 77.328125 C9.51953237 77.32310863 7.56250103 77.31854596 5.60546875 77.31445312 C0.81246997 77.30343813 -3.98047052 77.28618074 -8.7734375 77.265625 C-8.81971414 67.5214012 -8.85528286 57.77720341 -8.87706184 48.03289223 C-8.88751301 43.5085424 -8.9016964 38.98426759 -8.92431641 34.45996094 C-8.94599743 30.09630976 -8.95799608 25.73273087 -8.96319199 21.36903 C-8.96689629 19.70160153 -8.97412957 18.03417715 -8.98489761 16.36677933 C-8.9993497 14.03691205 -9.00141811 11.70734606 -9.00048828 9.37744141 C-9.00767883 8.68332657 -9.01486938 7.98921173 -9.02227783 7.27406311 C-8.99157733 0.1965846 -6.57745383 0.01183451 0 0 Z " fill="#000000" transform="translate(202.7734375,155.734375)"/>
<path d="M0 0 C11.55 0 23.1 0 35 0 C35 10.125 35 10.125 34 15 C31 16 31 16 18 16 C18 32.83 18 49.66 18 67 C23.28 67 28.56 67 34 67 C34 71.95 34 76.9 34 82 C26.08 82.495 26.08 82.495 18 83 C18 102.8 18 122.6 18 143 C23.61 143 29.22 143 35 143 C35 148.28 35 153.56 35 159 C23.45 159 11.9 159 0 159 C0 106.53 0 54.06 0 0 Z " fill="#FAFAFA" transform="translate(139,167)"/>
<path d="M0 0 C0.67898346 -0.00191345 1.35796692 -0.0038269 2.05752563 -0.00579834 C3.50173307 -0.00716152 4.94595271 -0.0034558 6.39013672 0.00488281 C8.5585646 0.01541613 10.72613213 0.00507988 12.89453125 -0.0078125 C34.4447296 -0.03383314 34.4447296 -0.03383314 43.4140625 5.265625 C44.31511719 5.78125 45.21617187 6.296875 46.14453125 6.828125 C48.2265625 8.265625 48.2265625 8.265625 49.2265625 10.265625 C46.17311665 11.28344028 44.12372458 11.38659741 40.92895508 11.37915039 C39.84806107 11.37907486 38.76716705 11.37899933 37.65351868 11.37892151 C36.48781845 11.37376022 35.32211823 11.36859894 34.12109375 11.36328125 C32.92675217 11.3618663 31.73241058 11.36045135 30.50187683 11.35899353 C26.68091342 11.3533885 22.86000825 11.34083511 19.0390625 11.328125 C16.45117272 11.32311065 13.86328202 11.31854763 11.27539062 11.31445312 C4.92575875 11.30341742 -1.42382949 11.28614937 -7.7734375 11.265625 C-7.4434375 15.885625 -7.1134375 20.505625 -6.7734375 25.265625 C-7.4334375 25.265625 -8.0934375 25.265625 -8.7734375 25.265625 C-8.83130418 21.47402203 -8.86698804 17.68253189 -8.8984375 13.890625 C-8.91519531 12.81039062 -8.93195313 11.73015625 -8.94921875 10.6171875 C-8.95566406 9.5859375 -8.96210938 8.5546875 -8.96875 7.4921875 C-8.97922363 6.53908691 -8.98969727 5.58598633 -9.00048828 4.60400391 C-8.47337141 -0.82473305 -4.46253823 0.00802924 0 0 Z " fill="#070707" transform="translate(202.7734375,155.734375)"/>
<path d="M0 0 C0.66 0.33 1.32 0.66 2 1 C0.88820837 4.33537489 -0.47411298 5.63707344 -3 8 C-1.35 8.33 0.3 8.66 2 9 C1.67 9.66 1.34 10.32 1 11 C-2.40312738 9.94124926 -5.01353231 8.99097846 -8 7 C-8 6.34 -8 5.68 -8 5 C-6.3203125 3.67578125 -6.3203125 3.67578125 -4.125 2.3125 C-3.40570313 1.85488281 -2.68640625 1.39726562 -1.9453125 0.92578125 C-1.30335938 0.62027344 -0.66140625 0.31476563 0 0 Z " fill="#1F1F1F" transform="translate(261,234)"/>
<path d="M0 0 C0.66 0.33 1.32 0.66 2 1 C1 4 1 4 -1.0625 5.1875 C-1.701875 5.455625 -2.34125 5.72375 -3 6 C-3.66 5.01 -4.32 4.02 -5 3 C-2.625 1.4375 -2.625 1.4375 0 0 Z " fill="#171717" transform="translate(261,234)"/>
</svg>
