<?xml version="1.0" encoding="UTF-8" standalone="no"?>
<!-- Created with Inkscape (http://www.inkscape.org/) -->

<svg
   version="1.1"
   id="svg2"
   width="386.61334"
   height="299.41333"
   viewBox="0 0 386.61334 299.41333"
   sodipodi:docname="Baltbau Logo.eps"
   xmlns:inkscape="http://www.inkscape.org/namespaces/inkscape"
   xmlns:sodipodi="http://sodipodi.sourceforge.net/DTD/sodipodi-0.dtd"
   xmlns="http://www.w3.org/2000/svg"
   xmlns:svg="http://www.w3.org/2000/svg">
  <defs
     id="defs6" />
  <sodipodi:namedview
     id="namedview4"
     pagecolor="#ffffff"
     bordercolor="#000000"
     borderopacity="0.25"
     inkscape:showpageshadow="2"
     inkscape:pageopacity="0.0"
     inkscape:pagecheckerboard="0"
     inkscape:deskcolor="#d1d1d1" />
  <g
     id="g8"
     inkscape:groupmode="layer"
     inkscape:label="ink_ext_XXXXXX"
     transform="matrix(1.3333333,0,0,-1.3333333,0,299.41333)">
    <g
       id="g10"
       transform="scale(0.1)">
      <path
         d="m 1450.19,1686.14 c 183.27,-296.48 360.75,-596.65 538.53,-896.288 -536.97,0.5 -536.97,0.5 -1073.939,0.988 174.489,300.47 357.289,596.7 535.409,895.3"
         style="fill:#e5eb13;fill-opacity:1;fill-rule:nonzero;stroke:none"
         id="path12" />
      <path
         d="m 1450.19,1412.33 c 77.83,-131.11 160.22,-259.96 238.07,-391.02 4.4,-7.4 53.52,-87.119 48.87,-89.63 -287.46,0.5 -287.46,0.5 -574.92,0.992 143.99,239.828 143.99,239.828 287.98,479.658"
         style="fill:#e5eb13;fill-opacity:1;fill-rule:nonzero;stroke:none"
         id="path14" />
      <path
         d="m 815.98,0 c -0.359,0.230469 -0.75,0.429688 -1.179,0.589844 C 814.379,0.742188 813.91,0.550781 813.48,0 c 0,0.308594 -0.199,0.511719 -0.589,0.511719 -0.352,0 -0.551,0.078125 -0.551,0.308594 -0.11,-0.230469 -0.27,-0.269532 -0.43,-0.160157 -0.148,0.121094 -0.39,0.160157 -0.738,0.160157 -0.863,0.898437 -1.402,2.109377 -1.641,3.628907 0,0.32031 -0.082,0.42969 -0.23,0.32031 -0.199,-0.07812 -0.321,-0.03906 -0.43,0.19141 -0.672,4.60937 -0.781,9.05856 -0.391,13.43746 0.348,4.3321 1.051,8.5938 2.032,12.7735 0.898,3.8281 1.949,7.6601 3.238,11.4492 1.25,3.7891 2.66,7.418 4.18,10.9297 0.898,1.6797 1.64,3.3594 2.3,5.1211 0.668,1.7578 1.372,3.4765 2.149,5.1172 2.422,4.9609 5,9.8398 7.742,14.6914 2.77,4.8008 5.469,9.6406 8.078,14.4883 -0.539,-0.2383 -1.129,-0.668 -1.719,-1.3282 -0.621,-0.6601 -1.171,-1.25 -1.71,-1.8008 -2.43,-2.1093 -4.731,-4.289 -6.961,-6.5976 -2.188,-2.3008 -4.528,-4.4531 -7.071,-6.4414 -2.539,-2.0703 -4.957,-4.1406 -7.34,-6.25 -2.347,-2.0703 -4.808,-4.1797 -7.347,-6.25 -2.422,-2.1094 -4.84,-4.1406 -7.301,-6.1016 -2.5,-1.9883 -5.16,-3.8984 -8.012,-5.7773 -1.328,-0.7813 -2.648,-1.6016 -4.019,-2.461 -1.41,-0.9023 -2.848,-1.7617 -4.379,-2.6601 -1.559,-0.8516 -3.121,-1.75 -4.719,-2.6094 -1.57,-0.9023 -3.242,-1.4492 -5,-1.6797 -2.543,0 -4.34,0.3867 -5.473,1.168 -2.07,-0.2305 -3.75,-0.0781 -5,0.5117 -1.289,0.5391 -2.457,1.3984 -3.558,2.6094 -0.86,0.9805 -1.52,2.1914 -1.871,3.5586 -0.391,1.3711 -0.59,2.8125 -0.59,4.3711 0,1.5312 0.121,3.0508 0.32,4.6093 0.231,1.5313 0.539,3.0118 1.012,4.461 1.519,4.918 3.398,9.6484 5.66,14.1797 2.27,4.4883 4.609,8.789 7,12.8515 6.598,10.66 14.258,20.66 22.93,30 8.668,9.328 17.929,17.887 27.687,25.699 2.422,1.879 4.852,3.789 7.352,5.778 2.461,1.961 5.109,3.953 7.961,5.941 1.879,1.211 3.789,2.5 5.789,3.949 1.988,1.403 3.941,2.852 5.93,4.293 0.859,0.547 1.64,1.02 2.308,1.406 0.66,0.352 1.371,0.661 2.152,0.903 2.418,0.308 4.45,-0.16 6.09,-1.41 1.641,-1.289 2.578,-3.012 2.809,-5.192 0.199,-1.097 0.043,-2.109 -0.508,-2.969 -0.543,-0.898 -1.211,-1.609 -1.992,-2.148 -0.738,-0.551 -1.598,-0.863 -2.539,-0.98 -0.93,-0.122 -1.789,-0.27 -2.539,-0.512 -2.301,-0.539 -4.492,-1.442 -6.52,-2.692 -2.031,-1.289 -4.101,-2.5 -6.172,-3.707 -5.269,-3.32 -10.078,-6.961 -14.339,-10.902 -4.641,-3.949 -9.141,-7.848 -13.508,-11.719 -4.422,-3.828 -8.633,-8.05 -12.703,-12.66 -1.989,-2.219 -3.938,-4.449 -5.86,-6.75 -1.91,-2.351 -3.859,-4.648 -5.859,-6.961 -0.86,-1.0896 -1.75,-2.2185 -2.61,-3.4295 -0.902,-1.2187 -1.718,-2.5 -2.5,-3.789 -0.859,-1.211 -1.718,-2.461 -2.539,-3.711 -0.82,-1.289 -1.64,-2.5 -2.39,-3.7187 -1.563,-2.5313 -3.039,-5.1524 -4.449,-7.8516 -1.442,-2.6875 -2.93,-5.4687 -4.454,-8.3203 -0.668,-1.3281 -1.367,-2.6875 -2.07,-4.1797 -0.699,-1.4804 -1.289,-3 -1.719,-4.5273 -0.347,-1.8711 -0.55,-3.711 -0.66,-5.4727 -0.121,-1.75 0.391,-3.5078 1.481,-5.2695 0.781,-0.3086 1.949,-0.2695 3.55,0.1601 1.571,0.461 2.821,0.9297 3.68,1.4805 2.969,1.3281 5.86,2.9297 8.59,4.8086 2.73,1.8711 5.391,3.7109 7.891,5.582 3.519,2.6602 6.949,5.2696 10.308,7.9297 3.36,2.6211 6.641,5.2696 9.813,7.8907 6.597,5.6289 13.117,11.1289 19.527,16.5585 6.441,5.4692 12.852,10.9412 19.223,16.4102 L 810.199,98.3984 c -1.648,-0.5468 -3.289,-1.0976 -4.89,-1.6367 -1.559,-0.5508 -3.161,-1.2109 -4.688,-1.9922 -0.543,-0.1992 -1.133,-0.4687 -1.711,-0.8203 -0.629,-0.3203 -1.289,-0.5508 -2.07,-0.6679 -0.86,-0.0821 -1.762,-0.0391 -2.621,0.1992 -0.899,0.1914 -1.598,0.5781 -2.149,1.1289 -0.351,0.2304 -0.82,0.5898 -1.41,1.0898 -0.621,0.4727 -0.969,0.9024 -1.09,1.211 0,0.6718 0.66,1.25 1.989,1.7617 1.332,0.4687 2.421,0.9375 3.281,1.3671 6.289,2.973 12.738,5.781 19.379,8.441 6.64,2.61 13.511,5.192 20.551,7.731 3.82,1.211 7.851,2.5 12.031,3.871 4.179,1.367 8.32,2.578 12.5,3.547 4.179,1.211 8.429,2.422 12.687,3.641 4.301,1.21 8.75,2.07 13.364,2.609 1.636,0.242 3.359,0.351 5.117,0.43 1.761,0.043 3.441,0 5.121,-0.079 0.43,0 0.859,-0.07 1.289,-0.191 0.461,-0.078 0.781,-0.269 1.012,-0.469 0.199,0 0.269,-0.039 0.16,-0.078 -0.121,-0.082 -0.242,-0.152 -0.321,-0.273 0.2,-0.199 0.391,-0.348 0.551,-0.387 0.199,-0.082 0.27,-0.281 0.27,-0.59 0,-0.543 0.16,-0.941 0.469,-1.172 -0.54,-0.308 -1.129,-0.55 -1.79,-0.621 0.11,-0.469 -0.082,-0.859 -0.511,-1.179 -2.969,-0.54 -5.938,-1.29 -8.989,-2.219 -3,-0.942 -5.89,-1.879 -8.628,-2.891 -1.563,-0.551 -3.243,-1.14 -5.122,-1.719 -1.871,-0.632 -3.671,-1.25 -5.429,-1.921 -0.539,-0.188 -1.09,-0.43 -1.672,-0.622 -0.551,-0.238 -1.02,-0.468 -1.488,-0.668 -0.43,-0.109 -0.7,-0.39 -0.821,-0.738 -0.082,-0.39 -0.269,-0.82 -0.468,-1.25 -1.872,-2.07 -3.711,-4.293 -5.551,-6.601 -1.789,-2.301 -3.473,-4.61 -5,-6.9105 -0.891,-1.3321 -1.789,-2.6602 -2.731,-3.9492 -0.941,-1.3321 -1.84,-2.6915 -2.73,-4.1407 -1.762,-2.8515 -3.36,-5.7422 -4.852,-8.6289 -1.476,-2.9297 -3.039,-5.8203 -4.687,-8.6719 -1.672,-2.9687 -3.16,-5.9414 -4.449,-8.9101 l -7.93,-18.6289 c -0.192,-0.8594 -0.551,-1.6016 -0.973,-2.2305 -0.429,-0.5898 -0.82,-1.289 -1.179,-2.0312 -1.872,-5.0782 -3.629,-10.4688 -5.348,-16.25 -1.684,-5.7774 -2.692,-11.7188 -3.051,-17.89066 0.238,-0.73828 0.359,-1.67969 0.359,-2.8086 0,-1.09765 0.071,-1.96093 0.309,-2.62109 -0.238,-0.42969 -0.238,-0.9375 0,-1.48828 C 816.52,0.941406 816.41,0.429688 815.98,0 v 0"
         style="fill:#231f20;fill-opacity:1;fill-rule:nonzero;stroke:none"
         id="path16" />
      <path
         d="m 885.039,95.4297 c 0.981,0 1.949,0.2695 2.852,0.8203 0.937,0.5508 1.879,1.0898 2.73,1.6797 2.188,1.7617 4.457,3.6723 6.758,5.8203 2.312,2.148 4.422,4.34 6.25,6.52 0.242,0 0.351,0.16 0.351,0.511 -3.941,-1.441 -7.46,-3.511 -10.46,-6.289 -3.008,-2.73 -5.86,-5.742 -8.481,-9.0623 z m 11.84,-16.9492 c -0.859,-0.5508 -1.84,-0.9805 -2.859,-1.25 -1.051,-0.2813 -2.071,-0.5899 -3.04,-0.8985 -1.332,-0.3515 -2.82,-0.6718 -4.46,-1.0234 -1.68,-0.3086 -3.321,-0.4688 -4.961,-0.3867 -1.637,0.039 -3.2,0.3867 -4.68,0.9765 -1.488,0.6211 -2.738,1.6407 -3.719,3.0508 -0.781,1.0117 -1.211,2.2227 -1.32,3.6328 -0.121,1.4375 0,2.8868 0.308,4.3672 0.352,1.4922 0.821,2.9727 1.403,4.461 0.629,1.4804 1.25,2.8086 1.918,4.0195 0.551,0.4687 0.98,1.0195 1.332,1.6406 0.308,0.6602 0.539,1.211 0.66,1.6797 2.309,2.73 4.687,5.352 7.148,7.891 2.461,2.539 5.039,4.531 7.661,5.941 1.21,0.777 2.5,1.438 3.781,1.988 1.328,0.551 2.539,1.09 3.64,1.641 0.43,0.238 0.821,0.43 1.09,0.668 0.27,0.191 0.668,0.312 1.207,0.312 3.992,0 6.563,-0.671 7.782,-2.031 1.21,-1.41 1.789,-2.738 1.789,-4.07 -0.11,-0.43 -0.508,-0.93 -1.168,-1.481 -0.621,-0.55 -1.129,-1.089 -1.481,-1.64 -0.551,-0.547 -1.019,-1.059 -1.449,-1.559 -0.473,-0.512 -0.781,-0.98 -1.012,-1.41 -4.379,-3.828 -8.789,-7.2695 -13.168,-10.2305 -1.133,-0.8593 -2.582,-1.4882 -4.371,-1.8007 -1.84,-0.3086 -3.68,-0.3868 -5.551,-0.1602 -0.629,-0.6602 -1.289,-1.5195 -1.949,-2.5781 -0.672,-1.0117 -1.18,-2.1407 -1.57,-3.2813 -0.391,-1.1679 -0.539,-2.3008 -0.5,-3.4687 0.039,-1.1407 0.5,-2.1094 1.398,-2.8907 2.192,-0.1992 4.102,0 5.782,0.6602 1.64,0.6602 3.25,1.2109 4.769,1.6797 1.211,0.3125 2.461,0.6992 3.789,1.1289 1.332,0.4336 2.461,0.9023 3.473,1.332 2.308,1.0899 4.179,1.9883 5.668,2.6992 1.48,0.7422 2.89,1.4024 4.222,2.0704 1.329,0.6601 2.688,1.3593 4.098,2.1406 1.441,0.789 3.242,1.7578 5.473,2.9687 1.758,0.9024 3.508,1.8008 5.347,2.7422 1.801,0.9375 3.52,1.8281 5.192,2.6873 0.668,0.551 1.25,0.981 1.801,1.25 0.546,0.281 1.25,0.512 2.148,0.75 0.121,0 0.23,0.031 0.391,0.153 0.199,0.117 0.308,0.16 0.429,0.16 0.981,0 1.481,-0.16 1.481,-0.473 0,-0.348 -0.231,-0.82 -0.742,-1.41 -0.508,-0.617 -1.09,-1.2501 -1.789,-1.9102 -0.75,-0.668 -1.29,-1.2891 -1.758,-1.9493 0.109,0 0,-0.1601 -0.391,-0.4297 -0.391,-0.2812 -0.82,-0.5507 -1.332,-0.8203 -0.508,-0.2773 -0.937,-0.5507 -1.328,-0.8203 -0.391,-0.2773 -0.582,-0.4297 -0.582,-0.4297 -1.18,-0.8593 -2.66,-1.8398 -4.418,-2.8593 -1.762,-1.0508 -3.551,-2.1094 -5.313,-3.1602 -1.757,-1.0195 -3.398,-1.9883 -4.918,-2.8516 -1.531,-0.8984 -2.699,-1.4882 -3.48,-1.8398 l -11.871,-5.5781"
         style="fill:#231f20;fill-opacity:1;fill-rule:nonzero;stroke:none"
         id="path18" />
      <path
         d="m 1027.27,88.5195 c 0.46,-0.2382 1.05,-0.2773 1.83,-0.1601 0.74,0.1211 1.41,0.1914 1.88,0.3125 0.5,0.1172 0.78,0.0781 0.82,-0.0821 0.08,-0.1484 -0.39,-0.5781 -1.41,-1.25 -0.62,-0.539 -1.17,-1.0078 -1.64,-1.3593 -0.43,-0.3907 -0.98,-0.8594 -1.64,-1.4102 0,-0.1211 -0.12,-0.2695 -0.31,-0.5117 -0.12,-0.1094 -0.24,-0.1484 -0.35,-0.1484 -1.65,-2.5391 -4.26,-4.6094 -7.82,-6.25 -3.59,-1.6797 -7.61,-3.0899 -12.11,-4.3008 -1.21,-0.2383 -2.54,-0.3906 -3.98,-0.5078 -1.41,-0.1211 -2.849,0.0781 -4.259,0.5078 l -0.66,0.8203 c -0.781,0 -1.371,0.1601 -1.762,0.5117 -0.347,0.3086 -0.82,0.6172 -1.371,0.9688 -0.226,0.5507 -0.468,1.1406 -0.66,1.7187 -0.238,0.6328 -0.348,1.4102 -0.348,2.3906 0,0.2305 0,0.6211 0,1.1719 0,0.5391 0.071,1.0899 0.149,1.6406 0.121,1.5196 0.512,3.1172 1.172,4.6875 0.668,1.6016 1.328,3.1602 2,4.7227 0.187,0.9766 0.738,2.3867 1.558,4.1797 0.821,1.8398 1.563,3.5586 2.231,5.1991 0.66,1.641 1.09,2.93 1.29,3.789 0.23,0.891 -0.2,0.93 -1.29,0.149 -0.55,-0.539 -1.141,-0.93 -1.762,-1.207 -0.59,-0.27 -1.058,-0.704 -1.367,-1.25 -0.902,-0.551 -1.723,-1.051 -2.5,-1.481 -0.742,-0.43 -1.41,-1.062 -1.949,-1.8007 -1.684,-1.0898 -3.051,-2.2305 -4.141,-3.3203 -2.621,-2.1914 -5.082,-4.4492 -7.351,-6.7578 -2.219,-2.3008 -4.532,-4.4922 -6.829,-6.5625 -0.98,-1.2109 -1.921,-2.1094 -2.812,-2.6602 -0.551,-0.6601 -1.02,-1.1679 -1.367,-1.5586 -0.391,-0.3906 -0.821,-0.6992 -1.25,-0.9023 -0.434,-0.2266 -0.942,-0.3477 -1.492,-0.4297 -0.54,-0.0391 -1.321,-0.0781 -2.301,-0.0781 -0.668,0.3594 -1.367,0.4297 -2.149,0.3594 -0.781,0.4296 -1.371,0.8203 -1.8,1.1289 -0.469,0.3515 -0.739,0.6601 -0.93,0.9804 -0.16,0.3516 -0.199,0.7813 -0.16,1.3203 0.082,0.5508 0.269,1.25 0.59,2.1524 -0.122,0.1172 -0.161,0.3086 -0.161,0.668 -0.121,1.2109 0,2.7304 0.313,4.6093 0.348,1.8711 0.707,3.7813 1.168,5.7813 0.43,1.9492 0.859,3.8594 1.211,5.6601 0.398,1.8401 0.508,3.2811 0.359,4.3791 -0.16,1.09 -0.672,1.64 -1.488,1.64 -0.82,0 -2.192,-0.82 -4.063,-2.46 -3.16,-2.622 -6.289,-5.4302 -9.379,-8.3989 -3.082,-2.9727 -6.21,-6.0625 -9.41,-9.2227 -1.211,-1.207 -2.34,-2.5 -3.441,-3.9062 -1.09,-1.3711 -2.539,-2.3008 -4.289,-2.8906 -0.32,-0.5508 -0.711,-1.0899 -1.141,-1.6407 -0.469,-0.5507 -0.777,-1.25 -1.008,-2.1523 -0.55,-0.9688 -0.98,-1.9883 -1.332,-3.0391 -0.308,-1.0195 -1.289,-1.6797 -2.968,-1.8789 -0.86,-0.2304 -1.911,-0.039 -3.2,0.5899 -1.25,0.5781 -2.07,1.3203 -2.39,2.2187 -0.11,0.4297 -0.031,1.1016 0.16,2.0313 0.238,0.9414 0.43,1.8008 0.66,2.5781 0.981,3.9531 2.469,8.4805 4.379,13.6016 1.91,5.1093 3.59,11.0508 5.039,17.8908 0.191,0.738 0.742,1.359 1.641,1.789 1.09,0.98 2.461,1.332 4.101,0.98 1.68,-0.308 2.699,-0.98 3.129,-1.949 0.352,-0.781 0.309,-2.109 -0.082,-4.07 -0.348,-1.91 -0.859,-3.903 -1.488,-6.012 -0.578,-2.0702 -1.211,-3.9882 -1.789,-5.7382 -0.59,-1.7617 -0.981,-2.8516 -1.063,-3.3203 0.742,0.2304 1.453,0.6211 2.032,1.1679 0.628,0.5508 1.21,1.0938 1.761,1.6407 2.848,2.8515 5.629,5.7031 8.321,8.4809 2.699,2.812 5.777,5.46 9.296,8 1.211,0.781 2.622,1.64 4.223,2.66 1.598,0.98 3.16,1.562 4.68,1.8 1.219,0.11 2.5,-0.238 3.871,-0.98 1.367,-0.781 2.187,-1.719 2.379,-2.809 0.469,-3.519 0.551,-7.031 0.277,-10.55 -0.277,-3.5121 -0.707,-7.1918 -1.25,-11.0512 0.231,0.1094 0.621,0.3516 1.172,0.7422 0.551,0.3868 0.82,0.5078 0.82,0.4297 0.86,0.1875 1.559,0.6172 2.149,1.2071 0.551,0.621 1.09,1.2109 1.64,1.7617 2.852,2.8515 5.86,5.539 8.981,8.1215 3.129,2.617 6.41,5.117 9.808,7.5 1.332,0.898 2.774,1.718 4.372,2.5 1.57,0.738 3.21,1.328 4.85,1.64 0.97,0.238 1.91,0.238 2.81,0 0.86,-0.23 1.76,-0.433 2.62,-0.66 1.56,-0.863 2.38,-2.07 2.5,-3.633 0.08,-1.527 -0.2,-3.168 -0.82,-4.929 -0.67,-1.75 -1.49,-3.59 -2.5,-5.4692 -0.98,-1.832 -1.76,-3.5899 -2.31,-5.2695 -0.86,-1.5196 -1.4,-2.9727 -1.64,-4.2618 -0.23,-1.3203 -0.7,-2.8086 -1.48,-4.4492 -0.32,-0.5508 -0.59,-1.1719 -0.82,-1.9101 -0.24,-0.711 -0.39,-1.3282 -0.51,-1.8789 0,-1.0118 0.55,-1.4805 1.56,-1.4805 1.06,0 2.31,0.2305 3.79,0.7383 1.48,0.4726 3.01,1.0507 4.53,1.7226 1.56,0.6602 2.78,1.168 3.63,1.4805 0.9,0.3086 1.53,0.5469 1.92,0.668 0.39,0.1093 0.66,0.1914 0.9,0.3086 0.23,0.121 0.5,0.2304 0.82,0.3515 0.35,0.1211 0.93,0.3906 1.83,0.8203 0.75,0.4297 1.37,0.7813 1.8,1.0586 0.43,0.2696 0.86,0.5 1.33,0.6602 0.43,0.1601 0.9,0.3515 1.4,0.5117 0.47,0.1484 1.18,0.4687 2.04,0.8984 v 0"
         style="fill:#231f20;fill-opacity:1;fill-rule:nonzero;stroke:none"
         id="path20" />
      <path
         d="m 1036.68,95.4297 c 0.98,0 1.95,0.2695 2.89,0.8203 0.94,0.5508 1.84,1.0898 2.7,1.6797 2.22,1.7617 4.45,3.6723 6.75,5.8203 2.31,2.148 4.42,4.34 6.29,6.52 0.2,0 0.31,0.16 0.31,0.511 -3.94,-1.441 -7.42,-3.511 -10.46,-6.289 -3.01,-2.73 -5.86,-5.742 -8.48,-9.0623 z m 11.87,-16.9492 c -0.89,-0.5508 -1.83,-0.9805 -2.89,-1.25 -1.05,-0.2813 -2.07,-0.5899 -3.04,-0.8985 -1.33,-0.3515 -2.82,-0.6718 -4.46,-1.0234 -1.64,-0.3086 -3.32,-0.4688 -4.96,-0.3867 -1.64,0.039 -3.2,0.3867 -4.68,0.9765 -1.49,0.6211 -2.74,1.6407 -3.72,3.0508 -0.78,1.0117 -1.21,2.2227 -1.32,3.6328 -0.12,1.4375 0,2.8868 0.35,4.3672 0.31,1.4922 0.78,2.9727 1.4,4.461 0.59,1.4804 1.22,2.8086 1.88,4.0195 0.55,0.4687 0.98,1.0195 1.33,1.6406 0.31,0.6602 0.54,1.211 0.66,1.6797 2.31,2.73 4.69,5.352 7.15,7.891 2.5,2.539 5.04,4.531 7.66,5.941 1.21,0.777 2.5,1.438 3.82,1.988 1.29,0.551 2.5,1.09 3.6,1.641 0.47,0.238 0.82,0.43 1.09,0.668 0.28,0.191 0.67,0.312 1.21,0.312 3.99,0 6.57,-0.671 7.78,-2.031 1.21,-1.41 1.79,-2.738 1.79,-4.07 -0.11,-0.43 -0.47,-0.93 -1.13,-1.481 -0.66,-0.55 -1.17,-1.089 -1.48,-1.64 -0.55,-0.547 -1.06,-1.059 -1.49,-1.559 -0.47,-0.512 -0.78,-0.98 -1.01,-1.41 -4.38,-3.828 -8.79,-7.2695 -13.17,-10.2305 -1.09,-0.8593 -2.58,-1.4882 -4.37,-1.8007 -1.8,-0.3086 -3.67,-0.3868 -5.51,-0.1602 -0.66,-0.6602 -1.33,-1.5195 -1.99,-2.5781 -0.67,-1.0117 -1.17,-2.1407 -1.57,-3.2813 -0.39,-1.1679 -0.54,-2.3008 -0.5,-3.4687 0.07,-1.1407 0.54,-2.1094 1.4,-2.8907 2.19,-0.1992 4.14,0 5.78,0.6602 1.64,0.6602 3.25,1.2109 4.77,1.6797 1.21,0.3125 2.46,0.6992 3.79,1.1289 1.33,0.4336 2.5,0.9023 3.48,1.332 2.3,1.0899 4.18,1.9883 5.66,2.6992 1.48,0.7422 2.89,1.4024 4.22,2.0704 1.33,0.6601 2.69,1.3593 4.14,2.1406 1.4,0.789 3.24,1.7578 5.43,2.9687 1.76,0.9024 3.55,1.8008 5.35,2.7422 1.8,0.9375 3.55,1.8281 5.2,2.6873 0.66,0.551 1.25,0.981 1.79,1.25 0.55,0.281 1.29,0.512 2.15,0.75 0.12,0 0.24,0.031 0.43,0.153 0.16,0.117 0.27,0.16 0.39,0.16 1.02,0 1.49,-0.16 1.49,-0.473 0,-0.348 -0.24,-0.82 -0.75,-1.41 -0.47,-0.617 -1.09,-1.2501 -1.79,-1.9102 -0.75,-0.668 -1.29,-1.2891 -1.76,-1.9493 0.12,0 0,-0.1601 -0.39,-0.4297 -0.39,-0.2812 -0.82,-0.5507 -1.33,-0.8203 -0.47,-0.2773 -0.94,-0.5507 -1.33,-0.8203 -0.35,-0.2773 -0.55,-0.4297 -0.55,-0.4297 -1.21,-0.8593 -2.69,-1.8398 -4.45,-2.8593 -1.76,-1.0508 -3.51,-2.1094 -5.27,-3.1602 -1.76,-1.0195 -3.44,-1.9883 -4.96,-2.8516 -1.53,-0.8984 -2.7,-1.4882 -3.48,-1.8398 l -11.84,-5.5781"
         style="fill:#231f20;fill-opacity:1;fill-rule:nonzero;stroke:none"
         id="path22" />
      <path
         d="m 1090.23,123.629 c -0.11,0.32 0.16,0.941 0.82,1.801 0.67,0.902 1.45,1.718 2.31,2.5 0.9,0.742 1.76,1.289 2.66,1.64 0.86,0.309 1.6,0.16 2.14,-0.511 0.2,0 0.39,-0.039 0.59,-0.149 0.16,-0.121 0.27,-0.16 0.39,-0.16 0.78,-0.898 1.02,-1.949 0.74,-3.238 -0.27,-1.25 -0.86,-2.114 -1.72,-2.543 0.12,-0.239 0.12,-0.348 0,-0.43 -0.11,-0.039 -0.15,-0.199 -0.15,-0.391 -0.35,0.192 -0.47,0.122 -0.43,-0.347 0.04,-0.43 -0.12,-0.551 -0.59,-0.321 0.12,-0.308 0,-0.66 -0.39,-0.968 -0.39,-0.352 -0.58,-0.672 -0.58,-1.02 -0.24,0.117 -0.32,0.156 -0.32,0.078 0,-0.039 -0.11,-0.078 -0.35,-0.078 -0.23,-0.543 -0.7,-0.941 -1.4,-1.211 -0.71,-0.269 -1.22,-0.621 -1.57,-1.09 -0.23,0 -0.39,-0.043 -0.58,-0.16 -0.16,-0.121 -0.47,-0.039 -0.9,0.16 -0.67,0.231 -1.1,0.579 -1.33,1.09 -0.19,0.469 -0.27,1.059 -0.23,1.719 0.04,0.66 0.19,1.332 0.43,1.992 0.19,0.668 0.35,1.207 0.46,1.637 z m -6.75,-40.2306 c 0.35,-0.3086 1.29,-0.1992 2.81,0.4336 1.52,0.5782 3.44,1.3985 5.7,2.4571 2.23,1.0507 4.73,2.2304 7.5,3.5507 2.74,1.3321 5.47,2.461 8.24,3.4415 0.75,0.2382 1.65,0.5507 2.7,1.0195 1.05,0.4297 1.84,0.8203 2.38,1.1289 0.9,0.5508 1.76,1.0898 2.66,1.6406 0.86,0.5899 1.91,0.9414 3.12,1.1719 0.43,0.1172 0.67,0.3086 0.67,0.5898 0,0.2696 0.04,0.1875 0.15,-0.2812 0.24,-0.0703 0.39,-0.1094 0.51,-0.0703 0.12,0.0703 0.2,0.039 0.31,-0.0821 0,-0.4296 -0.27,-1.0586 -0.82,-1.7968 l -1.13,-1.0118 c -0.9,-0.75 -1.83,-1.4882 -2.81,-2.1914 -0.98,-0.7382 -2.11,-1.3671 -3.32,-1.9179 -0.98,-0.8907 -2.15,-1.711 -3.52,-2.461 -1.36,-0.7773 -2.73,-1.4804 -4.06,-2.1406 -1.21,-0.4297 -2.93,-1.4492 -5.19,-2.9687 -2.23,-1.5704 -4.61,-3.1289 -7.08,-4.8086 -2.46,-1.6407 -4.76,-3.0821 -6.83,-4.3321 -2.11,-1.289 -3.52,-1.7578 -4.3,-1.4101 -0.31,-0.3477 -0.55,-0.4688 -0.66,-0.4297 -0.12,0.082 -0.31,0.082 -0.67,0.082 -1.75,0 -3.24,0.1875 -4.53,0.5781 -1.25,0.3907 -2.3,1.1797 -3.2,2.3907 -0.31,1.3203 -0.31,2.6484 0,3.9804 0.35,1.2891 0.78,2.7696 1.33,4.4493 0.31,0.8593 0.66,1.6796 1.05,2.4687 0.39,0.7813 0.71,1.6016 0.9,2.4609 0.47,0.8907 0.9,1.8321 1.33,2.8086 0.43,0.9727 0.82,1.9102 1.17,2.8125 1.21,2.5 2.46,5.0781 3.79,7.6601 1.33,2.578 2.73,4.961 4.3,7.149 0.86,0.539 1.68,0.89 2.46,1.011 0.43,0.199 0.9,0.199 1.4,-0.082 0.47,-0.269 0.9,-0.308 1.21,-0.109 0.36,-0.43 0.71,-0.82 1.1,-1.141 0.39,-0.347 0.62,-0.777 0.74,-1.328 0.12,-0.781 0.2,-1.359 0.23,-1.789 0.08,-0.434 -0.03,-0.941 -0.23,-1.492 0.12,-0.781 -0.12,-1.598 -0.66,-2.5 -0.24,-0.309 -0.39,-0.66 -0.51,-1.051 -0.12,-0.391 -0.27,-0.777 -0.47,-1.25 -0.12,-0.0781 -0.2,-0.1171 -0.27,-0.0781 -0.04,0.0781 -0.12,0.0391 -0.24,-0.082 -0.23,-0.1094 -0.35,-0.2695 -0.35,-0.4687 0,-0.2305 -0.08,-0.3907 -0.31,-0.5 -0.78,-1.5704 -1.6,-3.1289 -2.46,-4.8086 -0.9,-1.6407 -1.72,-3.2032 -2.5,-4.6914 -0.74,-1.4805 -1.29,-2.7696 -1.64,-3.8594 -0.32,-1.1016 -0.32,-1.8008 0,-2.1524 v 0"
         style="fill:#231f20;fill-opacity:1;fill-rule:nonzero;stroke:none"
         id="path24" />
      <path
         d="m 1122.23,91.8008 c 0.78,0.1094 1.4,0.4687 1.99,1.0898 0.55,0.5899 1.13,1.1289 1.8,1.5586 2.85,2.543 5.58,5.043 8.24,7.5818 2.62,2.539 5.7,4.848 9.22,6.918 1.21,0.781 2.57,1.602 4.14,2.5 1.52,0.852 3.08,1.36 4.61,1.481 1.09,0 2.26,-0.43 3.55,-1.25 1.25,-0.821 1.95,-1.719 2.03,-2.731 0.12,-1.219 0,-2.469 -0.39,-3.789 -0.39,-1.328 -0.74,-2.578 -1.09,-3.789 -0.08,-0.859 -0.35,-2.3124 -0.74,-4.3007 -0.36,-1.9492 -0.75,-4.0586 -1.14,-6.25 -0.39,-2.1914 -0.7,-4.3008 -0.9,-6.25 -0.23,-1.9883 -0.27,-3.3984 -0.19,-4.3008 1.02,0.4297 1.87,0.8203 2.66,1.1797 0.78,0.3125 1.71,0.7422 2.81,1.2813 1.21,0.5508 1.95,0.8984 2.22,1.0195 0.28,0.082 0.47,0.1992 0.55,0.2305 0.12,0.039 0.28,0.1601 0.51,0.3203 0.23,0.1914 0.94,0.5781 2.15,1.25 0.78,0.6601 1.52,1.289 2.3,1.9101 0.78,0.5899 1.53,1.0586 2.31,1.3711 0.43,0.2266 1.05,0.3477 1.79,0.3477 0.9,0.5508 1.76,1.0508 2.58,1.4805 0.82,0.4296 1.53,0.9414 2.07,1.4882 0.98,-0.4296 1.49,-0.8593 1.49,-1.25 0,-0.3867 -0.12,-0.8593 -0.35,-1.4062 -0.79,-0.9727 -1.88,-1.832 -3.29,-2.6133 -0.66,-0.7891 -1.21,-1.3672 -1.64,-1.8398 -0.47,-0.4297 -1.05,-0.8203 -1.83,-1.1289 -1.21,-0.9805 -1.96,-1.6407 -2.31,-1.918 -0.31,-0.2734 -0.58,-0.4727 -0.74,-0.6602 -0.16,-0.1601 -0.43,-0.3515 -0.82,-0.5507 -0.39,-0.2305 -1.25,-0.7813 -2.54,-1.6797 -1.21,-0.6211 -2.58,-1.4805 -4.06,-2.543 -1.49,-1.0469 -2.89,-1.7891 -4.18,-2.2188 -1.13,-0.2382 -2.15,-0.3906 -3.05,-0.5078 -0.94,-0.082 -1.79,-0.1601 -2.58,-0.1601 -1.21,-0.1914 -2.26,0.4297 -3.2,1.9179 -0.94,1.4805 -1.41,2.8086 -1.41,4.0196 0,0.5508 0.16,1.6797 0.51,3.4023 0.31,1.6797 0.67,3.5078 1.06,5.4297 0.39,1.9102 0.78,3.75 1.17,5.5078 0.35,1.75 0.62,2.961 0.74,3.6328 0.08,1.5196 0.31,2.93 0.63,4.137 0.35,1.211 0.62,2.383 0.86,3.59 -0.9,-0.188 -1.68,-0.579 -2.31,-1.129 -0.66,-0.551 -1.33,-1.09 -1.99,-1.641 -1.99,-1.559 -3.91,-3.0898 -5.78,-4.6093 -1.88,-1.5586 -3.71,-3.2383 -5.59,-5.1211 -1.09,-1.0078 -2.3,-1.9883 -3.63,-2.9688 -1.33,-1.0078 -2.58,-2.1093 -3.79,-3.3203 -3.75,-3.9375 -6.76,-7.2187 -9.06,-9.8789 -2.31,-2.6211 -4.03,-4.0586 -5.12,-4.3008 -0.9,-0.1914 -1.91,0 -3.05,0.6719 -1.17,0.6602 -1.83,1.4375 -2.07,2.2969 -0.11,0.4727 -0.04,1.1406 0.24,1.9922 0.27,0.8984 0.58,1.7187 0.93,2.4687 0.98,4.6407 2.35,8.7813 4.11,12.461 1.75,3.6679 3.39,7.5 4.96,11.4415 0.19,0.547 0.54,1.168 0.97,1.84 0.43,0.66 0.79,1.25 0.98,1.789 0.23,0.789 0.39,1.531 0.51,2.23 0.12,0.699 0.23,1.367 0.31,1.918 0.23,0.192 0.47,0.5 0.74,0.891 0.28,0.39 0.59,0.672 0.94,0.902 1.21,0.899 2.54,1.098 4.02,0.668 1.49,-0.43 2.35,-1.211 2.54,-2.308 0.59,-1.332 0.59,-2.461 0,-3.481 -0.54,-0.973 -1.09,-1.91 -1.64,-2.812 -0.19,-0.618 -0.31,-1.289 -0.31,-1.95 0,-0.66 -0.12,-1.289 -0.35,-1.839 -0.67,-1.52 -1.33,-3.0395 -2.03,-4.6098 -0.75,-1.5196 -1.41,-3.2383 -2.07,-5.1094 v 0"
         style="fill:#231f20;fill-opacity:1;fill-rule:nonzero;stroke:none"
         id="path26" />
      <path
         d="m 1179.41,75.1602 c -0.19,-0.1993 -0.86,-0.8204 -1.95,-1.8008 -1.13,-1.0196 -1.84,-1.7188 -2.15,-2.1485 -0.9,-0.5507 -1.64,-1.1718 -2.22,-1.8007 -0.63,-0.6602 -1.02,-1.168 -1.25,-1.4805 -0.32,-0.5899 -0.16,-0.8203 0.5,-0.7383 0.67,0.0391 1.49,0.2695 2.46,0.6172 0.98,0.3906 2,0.8633 3.05,1.332 1.06,0.5078 1.72,0.8594 2.07,1.0899 h -0.15 l 4.1,2.3086 c 3.2,2.1914 5.54,4.0195 7.11,5.5117 1.52,1.4805 2.89,3.1211 4.1,4.8789 l -1.99,-0.6602 c -3.29,-1.5703 -5.71,-2.6992 -7.23,-3.3984 -1.56,-0.7109 -2.81,-1.332 -3.79,-1.8789 l -2.15,-1.6836 z m 39.22,21.75 c 0.24,0 0.51,0.039 0.86,0.082 0.31,0.0781 0.71,0.1992 1.13,0.4297 h 0.98 l 0.51,0.1601 h 1.64 c 1.76,-1.1015 2.38,-2.0703 1.91,-2.8906 -0.5,-0.8203 -1.36,-1.332 -2.57,-1.5703 -1.1,-0.5391 -2.54,-1.1289 -4.34,-1.7891 -1.84,-0.6718 -3.63,-1.2929 -5.47,-1.9218 -1.8,-0.5782 -3.44,-1.1289 -4.84,-1.5586 -1.45,-0.4297 -2.27,-0.6602 -2.46,-0.6602 -0.12,0 -0.2,0 -0.28,-0.082 -0.04,-0.0391 -0.19,-0.0781 -0.39,-0.0781 -0.23,-0.1211 -0.39,-0.1524 -0.51,-0.1524 -1.52,-3.0898 -2.73,-5.1992 -3.55,-6.3672 -0.82,-1.1328 -1.56,-2.0312 -2.23,-2.7031 l -0.97,-0.8164 c -2.54,-2.1133 -4.73,-3.8711 -6.6,-5.2734 -1.88,-1.4493 -3.48,-2.6602 -4.85,-3.629 -1.37,-1.0195 -2.58,-1.8007 -3.55,-2.3906 -0.98,-0.6172 -1.88,-1.0898 -2.66,-1.3984 v 0.1484 c -2.19,-1.207 -4.14,-2.0273 -5.82,-2.457 -1.72,-0.4727 -3.01,-0.6602 -3.87,-0.6602 -2.22,0 -3.71,0.4688 -4.57,1.3985 -0.82,0.9414 -1.21,2.1093 -1.21,3.5195 0,2.1094 0.94,4.1797 2.89,6.2891 1.92,2.0703 4.22,4.0625 6.92,5.9414 2.69,1.8281 5.58,3.5117 8.63,5 3.09,1.4804 5.78,2.7695 8.09,3.789 2.3,1.0508 3.98,1.8321 5.03,2.3008 1.06,0.5117 0.9,0.5899 -0.43,0.2695 L 1195.39,90 c -1.41,0 -3.32,-0.0781 -5.74,-0.2305 -2.42,-0.1992 -4.73,-0.5507 -6.92,-1.0976 -1.13,-0.1914 -2.14,-0.3906 -3.16,-0.5821 -0.98,-0.1601 -2.23,-0.121 -3.79,0.1094 h 0.2 c -0.12,0 -0.2,0 -0.28,0.0821 -0.04,0.039 -0.11,0.0781 -0.23,0.0781 -0.24,0 -0.51,0.082 -0.9,0.2304 -0.39,0.1602 -0.66,0.3204 -0.74,0.4297 h 0.15 c -0.89,0.75 -1.48,1.5313 -1.83,2.3125 -0.31,0.7383 -0.47,1.4766 -0.47,2.1485 0,0.6211 0.12,1.2109 0.39,1.7187 0.27,0.5 0.55,0.8906 0.74,1.25 0.55,0.8516 1.33,1.75 2.31,2.6094 1.01,0.9023 2.22,2.1134 3.63,3.6404 l 0.51,0.5 c 1.33,0.86 2.69,1.84 4.1,2.973 1.44,1.098 2.93,2.109 4.45,3.047 1.57,0.941 3.13,1.761 4.73,2.461 1.56,0.699 3.16,1.129 4.69,1.25 l 1.13,0.312 c 0.66,0 1.41,-0.152 2.15,-0.433 0.78,-0.27 1.44,-0.508 1.99,-0.739 0.55,-0.98 0.74,-1.761 0.59,-2.3 -0.2,-0.551 -0.47,-0.938 -0.94,-1.141 l -1.8,-0.969 -0.31,-0.199 c -0.35,-0.313 -0.82,-0.582 -1.49,-0.82 0.2,0.238 0,0.16 -0.58,-0.231 -0.63,-0.39 -1.17,-0.711 -1.72,-0.898 -0.9,-0.903 -2.11,-1.563 -3.63,-1.992 -1.57,-0.43 -2.82,-0.981 -3.79,-1.641 l -1.68,-1.02 -2.46,-1.9488 -1.49,-1.1797 c -1.4,-0.8516 -2.69,-1.9492 -3.79,-3.2813 1.76,0.2422 3.36,0.5117 4.81,0.8203 1.52,0.2422 3.24,0.4297 5.16,0.5899 1.95,0.1601 3.82,0.1914 5.7,0.082 0.97,-0.1211 2.07,-0.2812 3.28,-0.5117 1.21,-0.1992 2.26,-0.5899 3.16,-1.1289 h -0.19 c 1.21,-0.6719 1.87,-1.0586 1.91,-1.1797 0.04,-0.1094 0.12,-0.1523 0.24,-0.1523 l 0.15,-0.3086 c 0.12,0.0703 0.24,0.1484 0.35,0.1484 0.12,0 0.24,0 0.4,0.082 0.19,0.0391 0.31,0.0782 0.42,0.0782 l 0.82,0.3125 11.72,3.4804 c 0.32,0 0.75,0.0391 1.29,0.1485 v 0"
         style="fill:#231f20;fill-opacity:1;fill-rule:nonzero;stroke:none"
         id="path28" />
      <path
         d="m 1268.09,92.9688 c 3.2,1.2109 5.07,1.5625 5.7,1.0507 0.59,-0.4687 0.31,-1.2109 -0.9,-2.2187 -0.35,-0.3203 -0.74,-0.5508 -1.25,-0.6289 -0.51,-0.1211 -0.9,-0.6211 -1.25,-1.4805 -1.64,-1.4492 -2.77,-2.3516 -3.44,-2.7422 -0.66,-0.3906 -1.09,-0.5 -1.33,-0.4297 -1.75,-0.7382 -3.35,-1.75 -4.76,-2.9687 -1.45,-1.211 -2.89,-2.3008 -4.38,-3.2813 -1.48,-0.9687 -3.08,-1.75 -4.76,-2.3007 -1.72,-0.5469 -3.71,-0.5469 -6.06,0 -0.19,0 -0.43,0.082 -0.7,0.2304 -0.31,0.1992 -0.58,0.3203 -0.94,0.4297 -0.97,0.4297 -1.68,0.9414 -2.03,1.5703 -0.39,0.5821 -0.74,1.2813 -1.09,2.0703 -0.2,0.8516 -0.35,1.9493 -0.39,3.1993 -0.08,1.25 0,2.5429 0.23,3.871 -0.23,0.1094 -0.35,0.0704 -0.43,-0.0781 -0.04,-0.1601 -0.11,-0.2422 -0.23,-0.2422 -0.24,-0.1093 -0.43,-0.2695 -0.67,-0.4297 -0.19,-0.1484 -0.5,-0.3476 -0.82,-0.5781 -0.54,-0.6719 -1.05,-1.25 -1.56,-1.8008 -0.51,-0.5507 -1.13,-0.9804 -1.91,-1.332 -0.2,-0.4297 -0.51,-0.7773 -0.9,-0.9687 -0.39,-0.2383 -0.67,-0.4297 -0.9,-0.668 -0.12,0 -0.12,-0.082 -0.08,-0.2305 0.04,-0.2031 0.04,-0.2812 -0.08,-0.2812 -0.23,-0.0703 -0.54,-0.2305 -1.01,-0.3907 -0.43,-0.1484 -0.74,-0.4296 -0.98,-0.7382 -2.54,-1.7618 -5.19,-3.2422 -8.08,-4.4532 -0.75,-0.5468 -1.57,-1.0195 -2.39,-1.4062 -0.82,-0.3906 -1.6,-0.5117 -2.38,-0.4336 -0.55,0 -1.02,0 -1.41,0 -0.39,0 -0.86,0.1211 -1.4,0.3516 -0.86,0.1211 -1.76,0.1992 -2.62,0.2382 -0.9,0.0821 -1.6,0.4336 -2.15,1.0938 -1.21,0.7383 -1.52,2.1875 -0.97,4.2578 0,0.1211 0.03,0.1992 0.15,0.1992 0.12,0 0.16,0.0703 0.16,0.3125 0.12,1.2071 0.47,2.3399 1.05,3.3985 0.63,1.0117 1.25,1.9882 1.92,2.8515 0.86,1.5586 1.87,2.9688 2.97,4.2891 1.09,1.3281 2.14,2.6992 3.12,4.1484 0.9,0.7422 2.27,2.0313 4.14,3.7808 1.84,1.762 3.83,3.52 5.94,5.36 2.07,1.789 3.98,3.39 5.74,4.762 1.76,1.367 2.97,2.109 3.63,2.23 1.21,0.539 2.19,1.25 2.89,2.066 0.71,0.821 1.84,1.442 3.36,1.872 0.12,0 0.2,0.039 0.2,0.082 0,0.078 0.04,0.117 0.16,0.117 0.19,0 0.46,-0.039 0.74,-0.117 0.27,-0.043 0.51,0.039 0.74,0.277 0.66,-0.359 1.41,-0.508 2.3,-0.508 0.43,-0.551 0.94,-1.062 1.49,-1.57 0.55,-0.5 0.82,-1.051 0.82,-1.711 0.31,-0.36 0.39,-0.789 0.16,-1.328 -0.2,-0.551 -0.55,-0.942 -0.98,-1.172 -0.35,-0.32 -0.7,-0.43 -1.17,-0.391 -0.43,0.031 -0.86,-0.039 -1.29,-0.238 -1.13,-0.469 -2.15,-1.129 -3.17,-1.992 l -1.95,-1.328 c 0,0 -0.12,-0.121 -0.35,-0.309 -0.31,0 -0.66,-0.082 -1.06,-0.281 -0.39,-0.153 -0.7,-0.539 -0.89,-1.211 -0.9,-0.231 -1.76,-0.621 -2.66,-1.25 -0.86,-0.578 -1.76,-1.168 -2.62,-1.711 -0.54,-0.547 -1.05,-1.02 -1.48,-1.41 -0.47,-0.387 -0.94,-0.7776 -1.49,-1.2502 -0.89,-0.7383 -1.83,-1.5586 -2.81,-2.4571 -0.98,-0.8633 -1.91,-1.7617 -2.81,-2.6601 -0.55,-0.4297 -1.06,-0.9414 -1.56,-1.5625 -0.51,-0.5899 -1.14,-1.0586 -1.88,-1.3672 0,-0.4727 -0.23,-0.8633 -0.66,-1.1719 v -0.1602 c 0,-0.1093 0,-0.1484 0,-0.1484 -0.67,-0.3516 -1.21,-0.8203 -1.57,-1.4101 -0.39,-0.6211 -0.82,-1.211 -1.25,-1.7618 -0.23,-0.9687 -0.66,-1.8281 -1.32,-2.6093 -0.67,-0.7891 -1.02,-1.6094 -1.14,-2.461 1.1,0.3125 1.96,0.8203 2.62,1.4805 3.75,2.1914 7.31,4.5312 10.74,6.9922 3.4,2.457 6.92,5.0781 10.55,7.8086 0.98,0.8984 1.91,1.6093 2.85,2.1484 0.94,0.5511 1.88,1.4531 2.74,2.6601 h 0.5 v 0.16 c 0.12,0.313 0.28,0.582 0.47,0.821 0.24,0.23 0.39,0.539 0.51,0.972 0.12,0.238 0.16,0.508 0.16,0.817 0,0.351 0.11,0.632 0.35,0.863 0.31,0.078 0.7,0.16 1.13,0.16 0.43,0 0.78,0 1.02,0 h 2.11 c 0.46,-0.242 1.05,-0.512 1.83,-0.82 0.74,-0.352 1.13,-1.102 1.13,-2.313 -0.31,-1.008 -0.78,-1.949 -1.4,-2.808 -0.59,-0.8988 -1.21,-1.8402 -1.88,-2.809 -0.23,-0.9804 -0.62,-1.8828 -1.17,-2.6211 v -0.8593 c -0.43,-0.1914 -0.74,-0.7032 -0.98,-1.4414 -0.11,-0.5899 -0.19,-1.0196 -0.23,-1.3282 -0.08,-0.3515 -0.27,-0.8203 -0.59,-1.4922 l -0.97,-3.6289 c 0,-1.4414 0.27,-2.2617 0.82,-2.4609 0.55,-0.2305 1.21,-0.1992 2.07,0.1602 0.82,0.3086 1.72,0.7812 2.69,1.3984 0.98,0.5898 1.88,1.0625 2.66,1.4102 1.84,0.621 3.79,1.6406 5.74,2.9726 1.99,1.2891 3.75,2.3789 5.28,3.2774 v 0"
         style="fill:#231f20;fill-opacity:1;fill-rule:nonzero;stroke:none"
         id="path30" />
      <path
         d="m 1374.41,88.5195 c 0.43,-0.2382 1.06,-0.2773 1.84,-0.1601 0.74,0.1211 1.37,0.1914 1.87,0.3125 0.51,0.1172 0.79,0.0781 0.83,-0.0821 0.07,-0.1484 -0.4,-0.5781 -1.41,-1.25 -0.66,-0.539 -1.21,-1.0078 -1.64,-1.3593 -0.43,-0.3907 -0.98,-0.8594 -1.64,-1.4102 0,-0.1211 -0.12,-0.2695 -0.35,-0.5117 -0.08,-0.1094 -0.2,-0.1484 -0.32,-0.1484 -1.64,-2.5391 -4.25,-4.6094 -7.81,-6.25 -3.59,-1.6797 -7.62,-3.0899 -12.15,-4.3008 -1.17,-0.2383 -2.5,-0.3906 -3.94,-0.5078 -1.41,-0.1211 -2.85,0.0781 -4.3,0.5078 l -0.62,0.8203 c -0.79,0 -1.37,0.1601 -1.76,0.5117 -0.39,0.3086 -0.86,0.6172 -1.41,0.9688 -0.19,0.5507 -0.43,1.1406 -0.62,1.7187 -0.24,0.6328 -0.36,1.4102 -0.36,2.3906 0,0.2305 0,0.6211 0,1.1719 0,0.5391 0.04,1.0899 0.16,1.6406 0.12,1.5196 0.51,3.1172 1.17,4.6875 0.67,1.6016 1.33,3.1602 1.96,4.7227 0.23,0.9766 0.74,2.3867 1.6,4.1797 0.82,1.8398 1.56,3.5586 2.22,5.1991 0.63,1.641 1.1,2.93 1.29,3.789 0.24,0.891 -0.19,0.93 -1.29,0.149 -0.58,-0.539 -1.13,-0.93 -1.75,-1.207 -0.59,-0.27 -1.06,-0.704 -1.41,-1.25 -0.86,-0.551 -1.68,-1.051 -2.46,-1.481 -0.78,-0.43 -1.45,-1.062 -1.99,-1.8007 -1.64,-1.0898 -3.01,-2.2305 -4.1,-3.3203 -2.66,-2.1914 -5.08,-4.4492 -7.35,-6.7578 -2.26,-2.3008 -4.53,-4.4922 -6.83,-6.5625 -0.98,-1.2109 -1.92,-2.1094 -2.82,-2.6602 -0.54,-0.6601 -1.01,-1.1679 -1.4,-1.5586 -0.35,-0.3906 -0.78,-0.6992 -1.21,-0.9023 -0.43,-0.2266 -0.94,-0.3477 -1.49,-0.4297 -0.54,-0.0391 -1.33,-0.0781 -2.3,-0.0781 -0.67,0.3594 -1.37,0.4297 -2.15,0.3594 -0.78,0.4296 -1.37,0.8203 -1.84,1.1289 -0.43,0.3515 -0.74,0.6601 -0.9,0.9804 -0.15,0.3516 -0.19,0.7813 -0.15,1.3203 0.04,0.5508 0.23,1.25 0.58,2.1524 -0.11,0.1172 -0.15,0.3086 -0.15,0.668 -0.12,1.2109 0,2.7304 0.31,4.6093 0.31,1.8711 0.7,3.7813 1.17,5.7813 0.43,1.9492 0.82,3.8594 1.21,5.6601 0.39,1.8401 0.51,3.2811 0.35,4.3791 -0.19,1.09 -0.66,1.64 -1.48,1.64 -0.82,0 -2.19,-0.82 -4.06,-2.46 -3.17,-2.622 -6.29,-5.4302 -9.38,-8.3989 -3.08,-2.9727 -6.21,-6.0625 -9.41,-9.2227 -1.21,-1.207 -2.34,-2.5 -3.44,-3.9062 -1.13,-1.3711 -2.54,-2.3008 -4.3,-2.8906 -0.35,-0.5508 -0.7,-1.0899 -1.17,-1.6407 -0.43,-0.5507 -0.74,-1.25 -0.97,-2.1523 -0.55,-0.9688 -0.98,-1.9883 -1.33,-3.0391 -0.31,-1.0195 -1.29,-1.6797 -2.97,-1.8789 -0.86,-0.2304 -1.95,-0.039 -3.2,0.5899 -1.25,0.5781 -2.07,1.3203 -2.39,2.2187 -0.11,0.4297 -0.07,1.1016 0.16,2.0313 0.23,0.9414 0.43,1.8008 0.66,2.5781 0.98,3.9531 2.46,8.4805 4.38,13.6016 1.91,5.1093 3.59,11.0508 5,17.8908 0.23,0.738 0.78,1.359 1.68,1.789 1.09,0.98 2.46,1.332 4.1,0.98 1.64,-0.308 2.69,-0.98 3.12,-1.949 0.36,-0.781 0.32,-2.109 -0.07,-4.07 -0.39,-1.91 -0.86,-3.903 -1.49,-6.012 -0.58,-2.0702 -1.21,-3.9882 -1.79,-5.7382 -0.63,-1.7617 -0.98,-2.8516 -1.1,-3.3203 0.78,0.2304 1.49,0.6211 2.07,1.1679 0.63,0.5508 1.17,1.0938 1.72,1.6407 2.89,2.8515 5.66,5.7031 8.36,8.4809 2.66,2.812 5.78,5.46 9.3,8 1.21,0.781 2.61,1.64 4.22,2.66 1.56,0.98 3.12,1.562 4.68,1.8 1.21,0.11 2.5,-0.238 3.87,-0.98 1.37,-0.781 2.19,-1.719 2.38,-2.809 0.43,-3.519 0.55,-7.031 0.28,-10.55 -0.32,-3.5121 -0.71,-7.1918 -1.25,-11.0512 0.23,0.1094 0.58,0.3516 1.13,0.7422 0.55,0.3868 0.86,0.5078 0.86,0.4297 0.86,0.1875 1.56,0.6172 2.11,1.2071 0.55,0.621 1.13,1.2109 1.68,1.7617 2.85,2.8515 5.82,5.539 8.98,8.1215 3.13,2.617 6.37,5.117 9.81,7.5 1.29,0.898 2.77,1.718 4.33,2.5 1.6,0.738 3.25,1.328 4.89,1.64 0.97,0.238 1.91,0.238 2.81,0 0.86,-0.23 1.76,-0.433 2.62,-0.66 1.56,-0.863 2.38,-2.07 2.46,-3.633 0.11,-1.527 -0.16,-3.168 -0.82,-4.929 -0.63,-1.75 -1.49,-3.59 -2.47,-5.4692 -0.97,-1.832 -1.75,-3.5899 -2.3,-5.2695 -0.86,-1.5196 -1.44,-2.9727 -1.64,-4.2618 -0.23,-1.3203 -0.7,-2.8086 -1.48,-4.4492 -0.36,-0.5508 -0.63,-1.1719 -0.82,-1.9101 -0.24,-0.711 -0.4,-1.3282 -0.51,-1.8789 0,-1.0118 0.51,-1.4805 1.56,-1.4805 1.05,0 2.3,0.2305 3.79,0.7383 1.48,0.4726 3.01,1.0507 4.53,1.7226 1.56,0.6602 2.77,1.168 3.63,1.4805 0.9,0.3086 1.53,0.5469 1.92,0.668 0.35,0.1093 0.66,0.1914 0.9,0.3086 0.19,0.121 0.46,0.2304 0.82,0.3515 0.31,0.1211 0.93,0.3906 1.79,0.8203 0.78,0.4297 1.41,0.7813 1.84,1.0586 0.43,0.2696 0.86,0.5 1.33,0.6602 0.43,0.1601 0.9,0.3515 1.36,0.5117 0.51,0.1484 1.21,0.4687 2.07,0.8984 v 0"
         style="fill:#231f20;fill-opacity:1;fill-rule:nonzero;stroke:none"
         id="path32" />
      <path
         d="m 1497.07,60.5117 c -0.23,-0.3515 -0.66,-0.7422 -1.33,-1.1719 -0.66,-0.4296 -1.17,-0.6679 -1.48,-0.6679 -0.55,-0.7422 -1.25,-1.211 -2.07,-1.3321 -0.82,-0.0703 -1.41,-0.539 -1.72,-1.289 -0.12,0 -0.16,0 -0.16,0.0781 0,0.043 -0.11,0.082 -0.35,0.082 -0.66,-0.3125 -1.48,-0.9023 -2.54,-1.6406 -1.05,-0.7812 -2.11,-1.5195 -3.2,-2.2305 -1.13,-0.7382 -2.15,-1.3593 -3.09,-1.9882 -0.9,-0.5821 -1.56,-0.9024 -1.87,-0.9024 -0.24,-0.4297 -0.63,-0.7773 -1.17,-0.9687 -0.55,-0.2383 -1.02,-0.4688 -1.49,-0.6719 -0.74,-0.4688 -1.52,-0.8984 -2.3,-1.3984 -0.75,-0.5118 -1.57,-0.8985 -2.46,-1.25 -1.1,-0.9805 -2.35,-1.6797 -3.79,-2.1485 -11.45,-7.2304 -21.45,-11.7617 -30.08,-13.5195 -8.63,-1.7617 -15.47,-1.0938 -20.51,1.918 -5.08,3 -8.24,8.2812 -9.49,15.7382 -1.25,7.461 -0.31,16.8711 2.89,28.1602 0,0.3516 -0.08,0.5117 -0.2,0.5117 0.36,0.3516 0.47,0.6992 0.43,1.1719 -0.04,0.4297 0.16,0.7383 0.59,0.9766 -0.23,0.5507 -0.16,0.9804 0.16,1.25 0.31,0.2734 0.5,0.6601 0.5,1.2109 0.12,0.1211 0.36,0.5508 0.75,1.332 0.39,0.7774 0.74,1.6367 1.05,2.5391 0.35,0.9297 0.66,1.8281 0.98,2.6484 0.35,0.8203 0.5,1.3321 0.5,1.5703 1.22,1.5196 2.19,3.1993 2.97,5.0313 0.79,1.8008 1.64,3.3594 2.66,4.6914 v 0.668 c 0.74,2.3008 2.34,5.4688 4.77,9.4878 2.42,3.981 5.43,8.403 9.06,13.161 3.63,4.773 7.73,9.773 12.26,14.921 4.57,5.161 9.34,10.079 14.26,14.77 4.96,4.648 9.92,8.871 14.92,12.582 5,3.75 9.81,6.598 14.46,8.59 4.61,1.988 8.86,2.808 12.77,2.539 3.87,-0.27 7.23,-2.031 9.96,-5.352 0.78,-0.66 1.41,-1.597 1.95,-2.808 0.59,-1.211 1.06,-2.5 1.41,-3.949 0.39,-1.403 0.66,-2.813 0.74,-4.18 0.12,-1.402 0.12,-2.582 0,-3.551 0,-0.551 -0.15,-1.371 -0.47,-2.391 -0.35,-1.05 -0.62,-1.832 -0.82,-2.421 -0.23,-0.618 -0.5,-1.289 -0.86,-1.868 -0.31,-0.632 -0.58,-1.171 -0.82,-1.722 -0.74,-1.879 -1.36,-3.199 -1.79,-3.989 -0.24,-0.191 -0.51,-0.351 -0.82,-0.39 -0.35,-0.07 -0.39,-0.192 -0.16,-0.43 -0.55,0 -0.94,-0.109 -1.09,-0.308 -0.16,-0.231 -0.36,-0.391 -0.59,-0.512 -0.43,-0.11 -0.82,-0.11 -1.13,0 -0.35,0.121 -0.67,0.121 -0.98,0 -2.23,0.902 -3.71,2.269 -4.45,4.14 -0.55,1.29 -0.47,2.469 0.23,3.442 0.71,1.019 1.29,1.918 1.72,2.808 0.24,0.551 0.35,1.059 0.43,1.489 0.04,0.429 0.2,0.941 0.39,1.48 0.55,1.449 1.02,2.852 1.33,4.301 0.35,1.41 0.43,2.73 0.35,3.949 0,1.211 -0.55,2.102 -1.56,2.731 -1.06,0.59 -2.34,0.742 -3.91,0.39 -1.52,-0.308 -2.97,-0.781 -4.26,-1.328 -1.32,-0.543 -2.61,-1.133 -3.9,-1.793 -1.25,-0.668 -2.5,-1.328 -3.67,-2 -1.21,-0.66 -2.54,-1.25 -3.99,-1.789 -0.31,-0.668 -0.74,-1.101 -1.33,-1.328 -0.54,-0.242 -1.09,-0.551 -1.64,-0.98 -0.54,-0.231 -1.13,-0.622 -1.72,-1.172 -0.58,-0.551 -1.25,-0.981 -1.91,-1.328 -0.19,-0.192 -0.47,-0.352 -0.74,-0.391 -0.27,-0.039 -0.51,-0.191 -0.74,-0.43 -1.84,-1.64 -3.83,-3.281 -5.9,-4.922 -0.59,-0.55 -1.17,-1.019 -1.84,-1.41 -0.66,-0.39 -1.25,-0.859 -1.79,-1.398 -0.47,-0.672 -1.02,-1.25 -1.76,-1.801 -0.71,-0.551 -1.33,-1.09 -1.88,-1.68 -0.35,-0.191 -0.54,-0.468 -0.66,-0.82 -0.12,-0.309 -0.24,-0.59 -0.31,-0.82 -1.02,-0.86 -2,-1.758 -2.97,-2.621 -1.02,-0.899 -1.96,-1.829 -2.82,-2.809 -0.43,-0.309 -0.82,-0.699 -1.17,-1.168 -0.31,-0.434 -0.58,-0.863 -0.82,-1.293 l -0.66,-0.348 c -0.08,-0.199 -0.12,-0.39 -0.08,-0.472 0.08,-0.117 0.04,-0.239 -0.08,-0.348 -0.66,-0.672 -1.72,-1.922 -3.2,-3.789 -1.49,-1.883 -3.05,-3.832 -4.69,-5.863 -1.68,-2.028 -3.2,-3.989 -4.65,-5.938 -1.4,-1.91 -2.38,-3.32 -2.97,-4.179 -0.19,-0.43 -0.39,-0.86 -0.54,-1.25 -0.16,-0.391 -0.43,-0.661 -0.74,-0.903 -1.88,-2.73 -3.64,-5.539 -5.28,-8.398 -1.64,-2.8518 -3.24,-5.7815 -4.8,-8.7502 -0.67,-0.7813 -1.14,-1.5586 -1.41,-2.3789 -0.27,-0.8203 -0.66,-1.5235 -1.21,-2.0703 h 0.31 c -0.19,-0.1211 -0.35,-0.2696 -0.39,-0.5118 -0.08,-0.1914 -0.19,-0.2695 -0.43,-0.1484 0.24,-0.5508 0.16,-0.9023 -0.15,-1.0625 -0.36,-0.1484 -0.4,-0.4687 -0.16,-0.8984 -0.9,-1.211 -1.52,-2.4219 -1.91,-3.6289 -0.4,-1.211 -1.02,-2.543 -1.88,-3.9414 -0.35,-1.6797 -0.86,-3.25 -1.56,-4.7305 -0.74,-1.4805 -1.21,-3.1602 -1.41,-5 -0.35,-0.4688 -0.51,-0.8984 -0.51,-1.3281 0,-0.4297 -0.11,-0.9414 -0.31,-1.4805 -0.55,-2.4219 -1.01,-4.8125 -1.4,-7.1914 -0.4,-2.3399 -0.47,-5 -0.28,-7.9688 0,-2.2304 0.59,-4.4492 1.76,-6.6796 1.13,-2.2618 2.5,-3.8711 4.02,-4.8829 1.33,-0.8593 3.17,-1.207 5.51,-0.9765 2.38,0.2383 4.34,0.5469 5.86,0.9765 1.33,0.4336 2.73,0.8204 4.22,1.0938 1.48,0.2773 2.89,0.6289 4.18,1.0586 3.08,1.2109 6.09,2.5703 8.98,4.1406 2.93,1.5195 5.82,2.9688 8.67,4.2578 0.67,0.461 1.45,0.8516 2.31,1.25 0.9,0.3906 1.76,0.7813 2.66,1.25 0.54,0.543 1.32,0.9727 2.38,1.2813 1.01,0.3593 1.83,0.8984 2.38,1.6797 h 0.31 l 32.97,19.2617 c 6.29,3.6289 12.03,6.8789 17.23,9.7265 5.23,2.8516 9.69,5.1524 13.36,6.9102 3.67,1.7617 6.37,2.8906 8.08,3.3203 1.68,0.4297 2.15,0.1211 1.41,-0.9687 -0.78,-1.1407 -2.97,-3.0508 -6.6,-5.7813 -3.63,-2.7383 -8.95,-6.4883 -15.98,-11.2187 0,-0.3516 -0.54,-0.8204 -1.68,-1.4805 -1.09,-0.6602 -2.03,-1.2109 -2.77,-1.6406 0.12,0 0.19,0 0.23,0.082 0.04,0.0391 0.16,0.0781 0.24,0.0781 -1.21,-0.6679 -2.7,-1.6094 -4.53,-2.8203 -1.8,-1.207 -3.64,-2.418 -5.51,-3.707 -1.88,-1.25 -3.67,-2.4219 -5.35,-3.4414 -1.72,-1.0508 -3.01,-1.7891 -3.87,-2.2188 v 0"
         style="fill:#231f20;fill-opacity:1;fill-rule:nonzero;stroke:none"
         id="path34" />
      <path
         d="m 1575.66,172.582 c 0.59,-0.551 0.94,-0.98 1.18,-1.332 0.23,-0.309 0.23,-0.941 0,-1.801 0,-0.777 -0.2,-1.519 -0.59,-2.219 -0.39,-0.71 -0.74,-1.332 -1.05,-1.921 -0.24,-0.969 -0.55,-1.829 -0.9,-2.539 -0.39,-0.7 -0.71,-1.598 -0.94,-2.731 -1.09,-2.848 -2.15,-5.738 -3.2,-8.629 -1.06,-2.93 -2.15,-5.629 -3.36,-8.168 -1.21,-1.523 -2.15,-3.121 -2.74,-4.762 -0.58,-1.679 -1.17,-3.359 -1.72,-5.121 -2.85,-6.91 -5.74,-13.949 -8.59,-21.089 -2.85,-7.149 -5.55,-14.5395 -8.09,-22.1098 -0.31,-1.961 -0.82,-3.9493 -1.56,-5.9414 -0.7,-1.9493 -1.29,-3.9883 -1.72,-6.0977 0,-0.7813 -0.11,-1.4023 -0.31,-1.9492 -0.55,-1.7617 -0.78,-3.6328 -0.66,-5.6211 -0.55,0 -0.94,-0.1992 -1.18,-0.5899 -0.19,-0.3906 -0.54,-0.6211 -0.97,-0.7421 -0.9,0 -1.45,0.3515 -1.72,1.0898 -0.27,0.7109 -0.74,1.0234 -1.41,0.9023 -0.23,0.5508 -0.54,0.9805 -0.9,1.3282 -0.39,0.3125 -0.66,0.8203 -0.74,1.4804 0.08,1.5313 0.31,3.1719 0.63,4.9297 0.35,1.75 0.74,3.3203 1.17,4.6016 0.78,4.7305 1.8,9.2187 3.12,13.4414 1.33,4.2578 2.66,8.3168 3.95,12.3088 -0.08,0 -0.2,-0.082 -0.31,-0.199 l 0.15,0.199 v 0.308 c 0.43,0.231 0.71,0.59 0.82,1.09 0.12,0.473 0.28,0.942 0.51,1.371 0.43,1.559 1.09,3.52 1.99,5.86 0.86,2.379 1.8,4.8 2.78,7.269 1.01,2.461 1.95,4.84 2.89,7.141 0.93,2.351 1.68,4.14 2.22,5.469 v 0.16 c 1.33,2.73 2.5,5.551 3.56,8.402 1.05,2.848 2.11,5.777 3.2,8.75 0.9,2.18 1.72,4.449 2.46,6.828 0.78,2.352 1.49,4.571 2.15,6.68 0.55,1.641 0.94,3.281 1.17,4.922 0.2,0.668 1.02,1.219 2.39,1.679 1.36,0.43 2.5,0.551 3.39,0.321 0.86,-0.242 1.49,-0.551 1.88,-0.981 0.39,-0.468 0.74,-1.09 1.05,-1.988 v 0"
         style="fill:#231f20;fill-opacity:1;fill-rule:nonzero;stroke:none"
         id="path36" />
      <path
         d="m 1567.93,95.4297 c 0.98,0 1.95,0.2695 2.89,0.8203 0.94,0.5508 1.84,1.0898 2.73,1.6797 2.19,1.7617 4.46,3.6723 6.76,5.8203 2.31,2.148 4.38,4.34 6.25,6.52 0.24,0 0.32,0.16 0.32,0.511 -3.95,-1.441 -7.43,-3.511 -10.47,-6.289 -3.01,-2.73 -5.82,-5.742 -8.48,-9.0623 z m 11.87,-16.9492 c -0.89,-0.5508 -1.83,-0.9805 -2.89,-1.25 -1.05,-0.2813 -2.07,-0.5899 -3.04,-0.8985 -1.33,-0.3515 -2.82,-0.6718 -4.46,-1.0234 -1.64,-0.3086 -3.28,-0.4688 -4.92,-0.3867 -1.68,0.039 -3.24,0.3867 -4.72,0.9765 -1.49,0.6211 -2.7,1.6407 -3.72,3.0508 -0.74,1.0117 -1.21,2.2227 -1.28,3.6328 -0.12,1.4375 0,2.8868 0.31,4.3672 0.31,1.4922 0.78,2.9727 1.4,4.461 0.59,1.4804 1.25,2.8086 1.88,4.0195 0.55,0.4687 1.02,1.0195 1.33,1.6406 0.35,0.6602 0.54,1.211 0.66,1.6797 2.31,2.73 4.69,5.352 7.19,7.891 2.46,2.539 5,4.531 7.66,5.941 1.21,0.777 2.46,1.438 3.78,1.988 1.33,0.551 2.54,1.09 3.64,1.641 0.43,0.238 0.78,0.43 1.05,0.668 0.28,0.191 0.71,0.312 1.25,0.312 3.95,0 6.53,-0.671 7.74,-2.031 1.21,-1.41 1.83,-2.738 1.83,-4.07 -0.11,-0.43 -0.51,-0.93 -1.17,-1.481 -0.66,-0.55 -1.17,-1.089 -1.48,-1.64 -0.55,-0.547 -1.06,-1.059 -1.49,-1.559 -0.43,-0.512 -0.78,-0.98 -0.97,-1.41 -4.42,-3.828 -8.79,-7.2695 -13.21,-10.2305 -1.09,-0.8593 -2.54,-1.4882 -4.37,-1.8007 -1.8,-0.3086 -3.64,-0.3868 -5.51,-0.1602 -0.67,-0.6602 -1.33,-1.5195 -1.99,-2.5781 -0.67,-1.0117 -1.18,-2.1407 -1.57,-3.2813 -0.39,-1.1679 -0.54,-2.3008 -0.46,-3.4687 0.03,-1.1407 0.5,-2.1094 1.36,-2.8907 2.23,-0.1992 4.14,0 5.78,0.6602 1.64,0.6602 3.25,1.2109 4.81,1.6797 1.17,0.3125 2.46,0.6992 3.79,1.1289 1.29,0.4336 2.46,0.9023 3.44,1.332 2.3,1.0899 4.21,1.9883 5.7,2.6992 1.48,0.7422 2.89,1.4024 4.18,2.0704 1.33,0.6601 2.69,1.3593 4.14,2.1406 1.41,0.789 3.24,1.7578 5.43,2.9687 1.76,0.9024 3.55,1.8008 5.35,2.7422 1.84,0.9375 3.55,1.8281 5.2,2.6873 0.66,0.551 1.28,0.981 1.83,1.25 0.55,0.281 1.25,0.512 2.11,0.75 0.12,0 0.27,0.031 0.43,0.153 0.16,0.117 0.31,0.16 0.43,0.16 0.98,0 1.48,-0.16 1.48,-0.473 0,-0.348 -0.27,-0.82 -0.74,-1.41 -0.51,-0.617 -1.13,-1.2501 -1.83,-1.9102 -0.71,-0.668 -1.29,-1.2891 -1.72,-1.9493 0.11,0 -0.04,-0.1601 -0.43,-0.4297 -0.39,-0.2812 -0.82,-0.5507 -1.29,-0.8203 -0.51,-0.2773 -0.94,-0.5507 -1.33,-0.8203 -0.39,-0.2773 -0.59,-0.4297 -0.59,-0.4297 -1.21,-0.8593 -2.69,-1.8398 -4.45,-2.8593 -1.76,-1.0508 -3.51,-2.1094 -5.27,-3.1602 -1.76,-1.0195 -3.4,-1.9883 -4.96,-2.8516 -1.53,-0.8984 -2.7,-1.4882 -3.44,-1.8398 l -11.88,-5.5781"
         style="fill:#231f20;fill-opacity:1;fill-rule:nonzero;stroke:none"
         id="path38" />
      <path
         d="m 1652.15,114.73 c 0.23,0.11 0.43,0.192 0.58,0.231 0.16,0.078 0.16,-0.082 -0.07,-0.391 0.11,-0.23 0.35,-0.269 0.74,-0.078 0.39,0.156 0.7,0.199 0.9,0.156 0.23,-0.078 0.19,-0.429 -0.08,-1.097 -0.27,-0.621 -0.94,-1.949 -2.07,-3.942 0.12,-0.117 -0.35,-0.859 -1.49,-2.308 -1.09,-1.403 -2.42,-3.039 -4.02,-4.84 -1.6,-1.84 -3.12,-3.5899 -4.61,-5.2696 -1.48,-1.7226 -2.5,-2.8516 -3.05,-3.4023 -0.89,-0.8594 -2.18,-2.3399 -3.86,-4.3789 -1.72,-2.0313 -3.64,-4.1797 -5.78,-6.3985 -2.15,-2.2695 -4.42,-4.3828 -6.84,-6.3711 -2.42,-1.9492 -4.77,-3.2812 -6.99,-3.9414 -2.27,-0.6679 -4.34,-0.4297 -6.21,0.7422 -1.84,1.1289 -3.32,3.707 -4.46,7.6484 0.24,0.4297 0.24,0.9024 0,1.3321 -0.19,0.4297 -0.31,0.7773 -0.31,0.9765 0.12,1.5625 0.31,3.0118 0.67,4.3711 0.31,1.3711 0.66,2.8203 0.97,4.3789 0,0.7813 0.2,1.5235 0.59,2.2305 0.39,0.7031 0.78,1.4024 1.13,2.0703 0.39,0.6211 0.74,1.2813 1.09,1.9492 0.32,0.6602 0.51,1.4414 0.51,2.3006 0.43,0.781 0.78,1.531 1.06,2.231 0.27,0.742 0.5,1.519 0.74,2.379 0.66,0.671 1.33,1.492 2.07,2.5 0.7,0.98 1.84,1.14 3.36,0.472 0.35,-0.082 0.62,-0.269 0.82,-0.472 0.23,-0.227 0.51,-0.469 0.82,-0.661 0.47,-0.238 0.74,-0.386 0.94,-0.507 0.15,-0.121 0.27,-0.43 0.39,-0.981 0,-0.351 -0.08,-0.621 -0.24,-0.82 -0.15,-0.231 -0.23,-0.539 -0.23,-1.008 0,-0.082 -0.2,-0.16 -0.51,-0.16 -0.23,-0.551 -0.43,-1.09 -0.66,-1.641 -0.24,-0.551 -0.43,-1.09 -0.67,-1.64 -0.11,-0.231 -0.19,-0.352 -0.23,-0.352 -0.08,0 -0.08,-0.0781 -0.08,-0.3085 -0.23,-0.3203 -0.35,-0.711 -0.35,-1.0586 0,-0.3906 -0.04,-0.7031 -0.16,-0.9414 0,-0.1914 -0.04,-0.3516 -0.15,-0.3907 -0.12,-0.0703 -0.16,-0.1484 -0.16,-0.2695 -0.59,-1.8398 -1.29,-3.9805 -2.15,-6.4101 -0.9,-2.418 -1.56,-4.5704 -1.99,-6.4414 0.23,-1.0977 1.29,-1.2071 3.2,-0.3868 1.96,0.8164 4.14,2.0664 6.6,3.7071 2.47,1.6406 4.89,3.4804 7.19,5.5117 2.31,2.0312 3.95,3.75 4.92,5.1914 1.02,0.8594 1.88,1.7968 2.66,2.8088 0.74,0.98 1.64,1.918 2.62,2.781 0.47,0.469 1.32,1.328 2.65,2.648 1.33,1.329 2.7,2.661 4.1,4.032 1.45,1.398 2.78,2.5 3.99,3.398 1.21,0.86 1.91,1.129 2.11,0.82 v 0"
         style="fill:#231f20;fill-opacity:1;fill-rule:nonzero;stroke:none"
         id="path40" />
      <path
         d="m 1657.93,95.4297 c 0.98,0 1.95,0.2695 2.89,0.8203 0.94,0.5508 1.84,1.0898 2.73,1.6797 2.19,1.7617 4.46,3.6723 6.76,5.8203 2.31,2.148 4.38,4.34 6.25,6.52 0.24,0 0.32,0.16 0.32,0.511 -3.95,-1.441 -7.43,-3.511 -10.47,-6.289 -3.01,-2.73 -5.82,-5.742 -8.48,-9.0623 z m 11.87,-16.9492 c -0.89,-0.5508 -1.83,-0.9805 -2.89,-1.25 -1.05,-0.2813 -2.07,-0.5899 -3.04,-0.8985 -1.33,-0.3515 -2.82,-0.6718 -4.46,-1.0234 -1.64,-0.3086 -3.28,-0.4688 -4.92,-0.3867 -1.68,0.039 -3.24,0.3867 -4.72,0.9765 -1.49,0.6211 -2.7,1.6407 -3.72,3.0508 -0.74,1.0117 -1.21,2.2227 -1.28,3.6328 -0.12,1.4375 0,2.8868 0.31,4.3672 0.31,1.4922 0.78,2.9727 1.4,4.461 0.59,1.4804 1.25,2.8086 1.88,4.0195 0.55,0.4687 1.02,1.0195 1.33,1.6406 0.35,0.6602 0.54,1.211 0.66,1.6797 2.31,2.73 4.69,5.352 7.19,7.891 2.46,2.539 5,4.531 7.66,5.941 1.21,0.777 2.46,1.438 3.78,1.988 1.33,0.551 2.54,1.09 3.64,1.641 0.43,0.238 0.78,0.43 1.05,0.668 0.28,0.191 0.71,0.312 1.25,0.312 3.95,0 6.53,-0.671 7.74,-2.031 1.21,-1.41 1.83,-2.738 1.83,-4.07 -0.11,-0.43 -0.51,-0.93 -1.17,-1.481 -0.66,-0.55 -1.17,-1.089 -1.48,-1.64 -0.55,-0.547 -1.06,-1.059 -1.49,-1.559 -0.43,-0.512 -0.78,-0.98 -0.97,-1.41 -4.42,-3.828 -8.79,-7.2695 -13.21,-10.2305 -1.09,-0.8593 -2.54,-1.4882 -4.37,-1.8007 -1.8,-0.3086 -3.64,-0.3868 -5.51,-0.1602 -0.67,-0.6602 -1.33,-1.5195 -1.99,-2.5781 -0.67,-1.0117 -1.18,-2.1407 -1.57,-3.2813 -0.39,-1.1679 -0.54,-2.3008 -0.46,-3.4687 0.03,-1.1407 0.5,-2.1094 1.36,-2.8907 2.23,-0.1992 4.14,0 5.78,0.6602 1.64,0.6602 3.25,1.2109 4.81,1.6797 1.17,0.3125 2.46,0.6992 3.79,1.1289 1.29,0.4336 2.46,0.9023 3.44,1.332 2.3,1.0899 4.21,1.9883 5.7,2.6992 1.48,0.7422 2.89,1.4024 4.18,2.0704 1.33,0.6601 2.69,1.3593 4.14,2.1406 1.41,0.789 3.24,1.7578 5.43,2.9687 1.76,0.9024 3.55,1.8008 5.35,2.7422 1.84,0.9375 3.55,1.8281 5.2,2.6873 0.66,0.551 1.28,0.981 1.83,1.25 0.55,0.281 1.25,0.512 2.11,0.75 0.12,0 0.27,0.031 0.43,0.153 0.16,0.117 0.31,0.16 0.43,0.16 0.98,0 1.48,-0.16 1.48,-0.473 0,-0.348 -0.27,-0.82 -0.74,-1.41 -0.51,-0.617 -1.13,-1.2501 -1.83,-1.9102 -0.71,-0.668 -1.29,-1.2891 -1.72,-1.9493 0.11,0 -0.04,-0.1601 -0.43,-0.4297 -0.39,-0.2812 -0.82,-0.5507 -1.29,-0.8203 -0.51,-0.2773 -0.94,-0.5507 -1.33,-0.8203 -0.39,-0.2773 -0.59,-0.4297 -0.59,-0.4297 -1.21,-0.8593 -2.69,-1.8398 -4.45,-2.8593 -1.76,-1.0508 -3.51,-2.1094 -5.27,-3.1602 -1.76,-1.0195 -3.4,-1.9883 -4.96,-2.8516 -1.53,-0.8984 -2.7,-1.4882 -3.44,-1.8398 l -11.88,-5.5781"
         style="fill:#231f20;fill-opacity:1;fill-rule:nonzero;stroke:none"
         id="path42" />
      <path
         d="m 1738.36,112.27 c -0.2,-0.36 -0.27,-0.629 -0.24,-0.821 0.04,-0.238 -0.11,-0.469 -0.58,-0.668 0,-0.23 -0.16,-0.351 -0.47,-0.351 -0.23,-0.551 -0.66,-0.86 -1.25,-0.981 -0.59,-0.109 -1.13,-0.429 -1.56,-0.969 -2.19,-0.671 -4.49,-1.488 -6.92,-2.5 -2.42,-0.98 -4.76,-2.031 -7.03,-3.21 -2.22,-1.168 -4.29,-2.34 -6.17,-3.5512 -1.87,-1.2071 -3.28,-2.418 -4.3,-3.629 -0.86,-0.8593 -1.79,-1.8007 -2.77,-2.7812 -1.02,-1.0078 -1.87,-2.1094 -2.66,-3.3164 -0.31,-0.8633 -0.66,-1.9531 -1.05,-3.2813 -0.39,-1.332 -0.74,-2.6211 -1.09,-3.8711 -0.32,-1.289 -0.67,-2.3789 -1.06,-3.3906 -0.39,-0.9804 -0.74,-1.6094 -1.09,-1.8008 -0.2,-0.4296 -0.63,-1.0586 -1.29,-1.8398 -0.67,-0.7383 -1.21,-1.0898 -1.68,-0.9688 -1.64,-0.789 -3.05,-0.6679 -4.18,0.3516 -1.17,0.9688 -1.56,2.3399 -1.25,4.0977 0.23,1.0898 0.7,2.7304 1.48,4.9609 0.78,2.1914 1.29,3.9102 1.49,5.082 0,0 0,0.0782 0,0.1875 0.11,0.3203 0.15,0.6719 0.15,0.9805 0.9,1.5195 1.61,3.1211 2.15,4.7695 0.55,1.6797 1.21,3.2422 1.99,4.8008 0,0.1211 0.08,0.1992 0.24,0.2305 0.16,0.039 0.27,0.1601 0.27,0.2382 0.55,2.231 1.21,4.371 2.03,6.52 0.82,2.152 1.57,4.222 2.23,6.171 0.12,0.469 0.27,0.79 0.51,1.02 0.23,0.199 0.43,0.469 0.66,0.82 0.55,0.2 1.02,0.43 1.41,0.66 0.39,0.2 0.78,0.321 1.21,0.321 0.23,0.23 0.51,0.347 0.82,0.347 0.23,0 0.47,-0.039 0.74,-0.117 0.28,-0.039 0.55,-0.082 0.74,-0.082 1.02,-0.109 1.72,-0.469 2.15,-1.129 1.33,-1.761 1.21,-3.398 -0.31,-4.961 -0.12,-0.859 -0.31,-1.757 -0.59,-2.617 -0.27,-0.902 -0.47,-1.683 -0.58,-2.301 3.87,2.848 7.65,4.801 11.37,5.899 3.74,1.129 7.22,1.75 10.39,1.992 0.89,0.117 1.91,0.227 3.04,0.348 1.17,0.082 2.19,-0.121 3.05,-0.66 v 0"
         style="fill:#231f20;fill-opacity:1;fill-rule:nonzero;stroke:none"
         id="path44" />
      <path
         d="m 1761.95,36.9102 c 4.18,1.332 7.89,2.539 11.21,3.6406 3.29,1.0898 6.45,2.1797 9.46,3.2812 3.04,1.1289 6.13,2.3399 9.26,3.6289 3.12,1.3282 6.6,2.9297 10.46,4.8086 5.28,2.6094 10.43,5.3125 15.47,8.0391 5.08,2.7812 9.89,5.4727 14.46,8.0898 4.53,2.6524 8.78,5.1524 12.65,7.5821 3.91,2.4179 7.42,4.6797 10.47,6.75 -2.62,-0.9688 -5.62,-1.9102 -9.06,-2.7696 -3.4,-0.9023 -6.37,-1.9492 -8.91,-3.1601 -1.29,-0.1992 -2.38,-0.6289 -3.28,-1.211 -0.86,-0.6289 -1.99,-0.8984 -3.28,-0.8984 -2.54,-1.2109 -4.96,-2.2305 -7.27,-3.0898 -2.3,-0.8203 -4.68,-1.7227 -7.07,-2.6914 -1.44,-0.5508 -2.81,-1.1407 -4.14,-1.7188 -1.33,-0.6328 -2.73,-1.3711 -4.29,-2.2305 -2.31,-0.9023 -3.83,-1.4804 -4.61,-1.7617 -0.75,-0.2695 -1.21,-0.3906 -1.33,-0.3906 -0.08,-0.1094 -0.47,-0.3477 -1.13,-0.7383 -0.67,-0.3906 -2.04,-1.1719 -4.14,-2.3789 -1.84,-1.1406 -3.33,-1.9609 -4.46,-2.5 -1.09,-0.5508 -2.11,-1.0195 -3.04,-1.4922 -0.9,-0.4297 -1.92,-0.9297 -2.97,-1.4804 -1.02,-0.5469 -2.43,-1.3672 -4.18,-2.4571 -3.21,-1.9922 -6.33,-3.9531 -9.42,-5.8633 -3.04,-1.9179 -6.21,-3.9062 -9.37,-6.0195 -0.78,-0.6601 -1.64,-1.3281 -2.58,-1.9492 -0.94,-0.6602 -1.84,-1.4492 -2.7,-2.3399 0.86,-0.1992 1.64,-0.0781 2.31,0.3516 0.66,0.4297 1.13,0.7774 1.48,0.9688 z m 33.13,46.332 c -0.31,0.1172 -0.51,0.2383 -0.51,0.3086 0,0.1211 -0.08,0.0781 -0.31,-0.1524 -0.35,-0.1171 -0.43,0.043 -0.24,0.4336 0.16,0.3868 0.08,0.5078 -0.27,0.3868 0.23,0.2304 0.35,0.5507 0.35,1.0117 0,0.4297 0.12,0.8593 0.31,1.289 0,0.2422 -0.11,0.3907 -0.31,0.4297 -0.23,0.043 -0.35,0.1992 -0.35,0.3906 0.12,0.5899 0.31,1.4493 0.59,2.6602 0.27,1.2109 0.54,2.4609 0.82,3.7109 0.27,1.25 0.54,2.418 0.82,3.4805 0.27,1.0078 0.54,1.6406 0.74,1.8672 2.54,6.4924 5,12.9334 7.42,19.3824 2.42,6.399 4.96,12.891 7.58,19.368 l 4.14,9.222 c 0.12,0.668 0.19,1.289 0.31,1.918 0.12,0.582 0.35,1.09 0.67,1.563 0.23,0.308 0.5,0.578 0.89,0.82 0.39,0.188 0.71,0.578 0.9,1.129 -3.83,-1.289 -7.97,-2.969 -12.42,-5 -4.45,-2.031 -8.48,-4.102 -12.11,-6.211 -1.21,-0.66 -2.3,-1.211 -3.24,-1.641 -0.94,-0.429 -2.15,-0.55 -3.71,-0.308 -1.41,0.191 -2.77,0.898 -4.1,2.031 -1.33,1.168 -2,2.34 -2,3.547 0,0.781 0.28,1.453 0.83,2.07 0.54,0.59 1.24,1.172 2.07,1.723 0.82,0.547 1.71,1.098 2.65,1.558 0.94,0.512 1.76,0.942 2.54,1.25 8.13,3.829 16.41,7.43 24.81,10.711 8.39,3.321 17.46,6.051 27.1,8.239 3.99,1.019 7.97,1.84 12.04,2.582 4.06,0.699 8.2,1.09 12.38,1.207 2.54,0.121 5,0.043 7.42,-0.239 2.42,-0.269 4.57,-0.781 6.49,-1.48 1.95,-0.699 3.55,-1.719 4.88,-2.969 1.33,-1.25 2.26,-2.812 2.81,-4.691 0.08,-0.539 0.08,-1.289 -0.08,-2.219 -0.19,-0.941 -0.39,-1.84 -0.58,-2.742 -0.55,-1.637 -1.49,-3.16 -2.82,-4.609 -1.32,-1.438 -2.73,-2.809 -4.29,-4.098 -3.95,-3.633 -8.4,-6.953 -13.32,-10 -4.96,-3.012 -9.73,-5.863 -14.38,-8.473 2.54,-0.117 5.08,-0.238 7.7,-0.359 2.58,-0.07 5.11,-0.348 7.65,-0.82 5.04,-0.54 9.3,-1.598 12.7,-3.2 3.4,-1.601 5.66,-2.808 6.76,-3.711 1.21,-0.98 2.3,-2.269 3.28,-3.867 0.97,-1.601 1.76,-3.16 2.3,-4.691 0.43,-1.559 0.63,-3.082 0.51,-4.602 -0.12,-1.57 -0.43,-3.008 -0.9,-4.379 -0.51,-1.371 -1.09,-2.66 -1.76,-3.871 -0.62,-1.207 -1.25,-2.34 -1.79,-3.3201 5.04,0.6721 10.11,1.5701 15.23,2.7421 5.12,1.129 10.27,2.149 15.43,3.039 3.17,0.551 6.41,1.059 9.65,1.488 3.24,0.434 6.48,0.782 9.8,0.973 0.2,0.238 1.22,0.359 2.97,0.43 1.76,0.039 3.44,0 5,-0.071 1.6,-0.121 2.7,-0.281 3.32,-0.429 0.59,-0.16 -0.07,-0.352 -2.07,-0.59 -0.11,-0.43 -0.5,-0.742 -1.13,-0.981 0,-0.109 0.08,-0.109 0.31,0 0.24,0.122 0.43,0.122 0.67,0 -0.98,-0.89 -2.19,-1.359 -3.56,-1.48 -1.37,-0.121 -2.69,-0.27 -4.02,-0.508 0.19,-0.312 0.66,-0.351 1.33,-0.082 0.62,0.281 1.13,0.32 1.44,0.082 -1.4,-0.543 -2.5,-0.82 -3.28,-0.82 -0.78,0 -1.8,-0.274 -3.12,-0.82 l -3.13,-0.661 c -1.21,-0.671 -3.05,-1.14 -5.47,-1.41 -2.38,-0.269 -4.37,-0.621 -5.9,-1.0505 -0.78,-0.2383 -1.56,-0.3907 -2.34,-0.5117 -0.74,-0.1172 -1.56,-0.2696 -2.46,-0.4688 -1.1,-0.1211 -2.74,-0.4687 -4.92,-1.0195 -2.23,-0.5391 -4.69,-1.211 -7.42,-1.9492 -2.78,-0.7813 -5.67,-1.6016 -8.76,-2.5 -3.08,-0.8594 -5.97,-1.7618 -8.74,-2.6915 -2.74,-0.9414 -5.2,-1.8398 -7.31,-2.6601 -2.15,-0.8203 -3.71,-1.5586 -4.73,-2.2305 -0.97,-0.539 -1.91,-1.207 -2.77,-2.0273 -0.9,-0.8633 -1.76,-1.6406 -2.66,-2.4219 -2.85,-1.9492 -5.74,-4.0195 -8.63,-6.168 -2.93,-2.1523 -5.94,-4.0312 -8.98,-5.6718 -4.73,-3.6289 -9.96,-7.1094 -15.67,-10.3907 -5.74,-3.3203 -11.64,-6.3984 -17.81,-9.3281 -6.17,-2.8906 -12.3,-5.6719 -18.48,-8.2422 -6.13,-2.5781 -12.03,-5 -17.61,-7.3476 -2,-0.8594 -3.99,-1.6407 -6.02,-2.3828 -2.03,-0.6993 -4.1,-1.4102 -6.17,-2.0274 -2.11,-0.9023 -4.34,-1.6797 -6.68,-2.3516 -2.38,-0.621 -4.65,-1.1289 -6.84,-1.4414 -1.01,-0.1171 -1.95,-0.1171 -2.81,0.0821 -0.9,0.1484 -1.83,0.3515 -2.81,0.539 -0.98,0.2422 -2.19,0.3203 -3.63,0.2813 -1.41,-0.082 -2.7,0.1914 -3.79,0.7383 -1.96,0.6601 -2.89,1.6797 -2.7,3.0507 0.16,1.3594 0.82,2.8086 2.03,4.3711 2.11,2.1875 4.34,4.3008 6.68,6.3282 2.39,2.0312 4.81,3.9804 7.35,5.8593 6.17,4.0625 11.91,7.6211 17.3,10.7032 5.39,3.0898 10.7,5.8593 15.98,8.3203 5.27,2.5 10.7,4.8789 16.25,7.1875 5.54,2.3008 11.56,4.7617 18.04,7.4219 5.51,1.8789 11.1,3.6289 16.84,5.3476 5.7,1.6797 11.37,3.3203 16.95,4.8516 0.78,0.4687 1.64,0.8203 2.66,1.1679 0.98,0.3125 1.95,0.5821 2.97,0.8204 0.97,0.2304 1.99,0.4296 3.05,0.582 1.01,0.1601 1.87,0.3594 2.53,0.5508 0.55,0.4687 1.18,1.0586 1.92,1.7578 0.7,0.6992 1.33,1.332 1.87,1.8711 0.78,0.6679 1.6,1.4883 2.46,2.4995 0.9,0.981 1.76,2.04 2.58,3.211 0.82,1.129 1.56,2.301 2.23,3.469 0.66,1.141 1.13,2.192 1.48,3.211 0.43,1.399 0.67,2.969 0.75,4.68 0.03,1.719 -0.2,3.168 -0.75,4.379 -0.54,0.66 -1.29,1.25 -2.22,1.8 -0.94,0.54 -1.96,1.012 -3.05,1.321 -3.32,1.097 -7.23,1.918 -11.8,2.39 -4.57,0.508 -9.1,0.618 -13.59,0.43 -2.19,-0.121 -4.26,-0.32 -6.17,-0.59 -1.96,-0.269 -3.83,-0.582 -5.71,-0.902 -2.07,-0.231 -4.02,-0.617 -5.86,-1.25 -1.79,-0.578 -3.63,-1.008 -5.5,-1.207 -2.19,-0.121 -4.07,0.277 -5.63,1.129 -1.52,0.898 -2.73,1.918 -3.59,3.129 0.55,1.019 1.29,1.64 2.22,1.91 0.94,0.281 1.88,0.672 2.86,1.211 0.89,0.359 1.68,0.711 2.34,1.097 0.63,0.391 1.37,0.743 2.11,1.051 1.21,0.551 2.38,1.211 3.48,1.922 1.09,0.699 2.14,1.328 3.12,1.871 2.19,1.207 4.34,2.418 6.37,3.629 2.03,1.219 4.06,2.43 6.17,3.641 1.09,0.898 2.15,1.597 3.2,2.148 1.06,0.539 2.03,1.09 2.89,1.641 2,1.211 3.95,2.609 5.94,4.219 1.99,1.562 3.91,3.039 5.78,4.332 1.84,1.558 3.71,3.128 5.51,4.73 1.8,1.598 3.16,3.629 4.02,6.168 -0.86,0.23 -1.91,0.309 -3.12,0.23 -1.21,-0.031 -2.42,-0.109 -3.63,-0.23 -8.56,-0.43 -16.57,-1.641 -24.07,-3.629 -7.46,-1.961 -14.49,-4.223 -21.09,-6.762 -0.12,-0.55 -0.08,-0.937 0.08,-1.211 0.15,-0.308 0.54,-0.277 1.09,0.082 -0.23,-0.468 -0.08,-0.75 0.39,-0.941 0.51,-0.16 0.74,-0.469 0.74,-0.898 0,-0.86 -0.35,-2.34 -1.05,-4.45 -0.7,-2.07 -1.52,-4.339 -2.38,-6.761 -0.9,-2.418 -1.84,-4.809 -2.82,-7.149 -0.97,-2.383 -1.71,-4.222 -2.14,-5.551 -2.07,-4.371 -4.22,-8.511 -6.45,-12.339 -2.19,-3.871 -4.1,-7.852 -5.74,-12.032 -0.55,-1.211 -1.13,-2.379 -1.76,-3.5582 -0.59,-1.1289 -1.17,-2.5 -1.72,-4.0195 -0.19,-0.4727 -0.39,-0.8594 -0.58,-1.25 -0.16,-0.3907 -0.28,-0.7422 -0.39,-1.0508 -0.24,-0.4688 -0.4,-0.8594 -0.51,-1.25 -0.12,-0.3907 -0.2,-0.7813 -0.31,-1.25 -0.47,-0.6719 -1.02,-1.211 -1.65,-1.6407 -0.11,-0.2382 -0.15,-0.4296 -0.11,-0.6679 0.08,-0.1914 0,-0.4297 -0.24,-0.6602 l -2.3,-4.7695"
         style="fill:#231f20;fill-opacity:1;fill-rule:nonzero;stroke:none"
         id="path46" />
      <path
         d="m 1971.6,92.9688 c 3.2,1.2109 5.08,1.5625 5.7,1.0507 0.59,-0.4687 0.32,-1.2109 -0.89,-2.2187 -0.36,-0.3203 -0.75,-0.5508 -1.25,-0.6289 -0.51,-0.1211 -0.9,-0.6211 -1.25,-1.4805 -1.64,-1.4492 -2.78,-2.3516 -3.44,-2.7422 -0.67,-0.3906 -1.09,-0.5 -1.33,-0.4297 -1.76,-0.7382 -3.36,-1.75 -4.76,-2.9687 -1.45,-1.211 -2.9,-2.3008 -4.38,-3.2813 -1.48,-0.9687 -3.09,-1.75 -4.77,-2.3007 -1.71,-0.5469 -3.71,-0.5469 -6.01,0 -0.24,0 -0.47,0.082 -0.74,0.2304 -0.32,0.1992 -0.59,0.3203 -0.94,0.4297 -0.98,0.4297 -1.68,0.9414 -2.03,1.5703 -0.39,0.5821 -0.74,1.2813 -1.1,2.0703 -0.19,0.8516 -0.35,1.9493 -0.39,3.1993 -0.07,1.25 0,2.5429 0.24,3.871 -0.24,0.1094 -0.35,0.0704 -0.43,-0.0781 -0.04,-0.1601 -0.12,-0.2422 -0.24,-0.2422 -0.23,-0.1093 -0.43,-0.2695 -0.66,-0.4297 -0.2,-0.1484 -0.51,-0.3476 -0.82,-0.5781 -0.55,-0.6719 -1.06,-1.25 -1.56,-1.8008 -0.51,-0.5507 -1.14,-0.9804 -1.92,-1.332 -0.19,-0.4297 -0.51,-0.7773 -0.9,-0.9687 -0.39,-0.2383 -0.66,-0.4297 -0.89,-0.668 -0.12,0 -0.12,-0.082 -0.08,-0.2305 0.04,-0.2031 0.04,-0.2812 -0.08,-0.2812 -0.23,-0.0703 -0.55,-0.2305 -1.02,-0.3907 -0.43,-0.1484 -0.74,-0.4296 -0.97,-0.7382 -2.54,-1.7618 -5.2,-3.2422 -8.09,-4.4532 -0.74,-0.5468 -1.56,-1.0195 -2.38,-1.4062 -0.82,-0.3906 -1.6,-0.5117 -2.38,-0.4336 -0.55,0 -1.02,0 -1.41,0 -0.39,0 -0.86,0.1211 -1.41,0.3516 -0.86,0.1211 -1.75,0.1992 -2.61,0.2382 -0.9,0.0821 -1.61,0.4336 -2.15,1.0938 -1.21,0.7383 -1.53,2.1875 -0.98,4.2578 0,0.1211 0.04,0.1992 0.16,0.1992 0.11,0 0.15,0.0703 0.15,0.3125 0.12,1.2071 0.47,2.3399 1.06,3.3985 0.62,1.0117 1.25,1.9882 1.91,2.8515 0.86,1.5586 1.88,2.9688 2.97,4.2891 1.09,1.3281 2.15,2.6992 3.13,4.1484 0.89,0.7422 2.26,2.0313 4.14,3.7808 1.83,1.762 3.82,3.52 5.93,5.36 2.07,1.789 3.99,3.39 5.75,4.762 1.75,1.367 2.97,2.109 3.63,2.23 1.21,0.539 2.19,1.25 2.89,2.066 0.7,0.821 1.84,1.442 3.36,1.872 0.12,0 0.19,0.039 0.19,0.082 0,0.078 0.04,0.117 0.16,0.117 0.2,0 0.47,-0.039 0.74,-0.117 0.28,-0.043 0.51,0.039 0.75,0.277 0.66,-0.359 1.4,-0.508 2.3,-0.508 0.43,-0.551 0.94,-1.062 1.48,-1.57 0.55,-0.5 0.82,-1.051 0.82,-1.711 0.32,-0.36 0.4,-0.789 0.16,-1.328 -0.19,-0.551 -0.55,-0.942 -0.98,-1.172 -0.35,-0.32 -0.7,-0.43 -1.17,-0.391 -0.43,0.031 -0.86,-0.039 -1.29,-0.238 -1.13,-0.469 -2.14,-1.129 -3.16,-1.992 l -1.95,-1.328 c 0,0 -0.12,-0.121 -0.36,-0.309 -0.31,0 -0.66,-0.082 -1.05,-0.281 -0.39,-0.153 -0.7,-0.539 -0.9,-1.211 -0.9,-0.231 -1.76,-0.621 -2.65,-1.25 -0.86,-0.578 -1.76,-1.168 -2.62,-1.711 -0.55,-0.547 -1.06,-1.02 -1.49,-1.41 -0.46,-0.387 -0.93,-0.7776 -1.48,-1.2502 -0.9,-0.7383 -1.84,-1.5586 -2.81,-2.4571 -0.98,-0.8633 -1.92,-1.7617 -2.82,-2.6601 -0.54,-0.4297 -1.05,-0.9414 -1.56,-1.5625 -0.51,-0.5899 -1.13,-1.0586 -1.87,-1.3672 0,-0.4727 -0.24,-0.8633 -0.67,-1.1719 v -0.1602 c 0,-0.1093 0,-0.1484 0,-0.1484 -0.66,-0.3516 -1.21,-0.8203 -1.56,-1.4101 -0.39,-0.6211 -0.82,-1.211 -1.25,-1.7618 -0.23,-0.9687 -0.66,-1.8281 -1.33,-2.6093 -0.66,-0.7891 -1.01,-1.6094 -1.13,-2.461 1.09,0.3125 1.95,0.8203 2.62,1.4805 3.75,2.1914 7.3,4.5312 10.74,6.9922 3.4,2.457 6.91,5.0781 10.55,7.8086 0.97,0.8984 1.95,1.6093 2.85,2.1484 0.93,0.5511 1.87,1.4531 2.73,2.6601 h 0.51 v 0.16 c 0.12,0.313 0.27,0.582 0.47,0.821 0.23,0.23 0.39,0.539 0.51,0.972 0.11,0.238 0.15,0.508 0.15,0.817 0,0.351 0.12,0.632 0.35,0.863 0.32,0.078 0.71,0.16 1.14,0.16 0.43,0 0.78,0 1.01,0 h 2.11 c 0.47,-0.242 1.06,-0.512 1.84,-0.82 0.78,-0.352 1.13,-1.102 1.13,-2.313 -0.31,-1.008 -0.78,-1.949 -1.41,-2.808 -0.58,-0.8988 -1.21,-1.8402 -1.87,-2.809 -0.24,-0.9804 -0.63,-1.8828 -1.17,-2.6211 v -0.8593 c -0.43,-0.1914 -0.74,-0.7032 -0.98,-1.4414 -0.12,-0.5899 -0.19,-1.0196 -0.23,-1.3282 -0.08,-0.3515 -0.28,-0.8203 -0.59,-1.4922 l -0.98,-3.6289 c 0,-1.4414 0.28,-2.2617 0.82,-2.4609 0.55,-0.2305 1.22,-0.1992 2.07,0.1602 0.82,0.3086 1.72,0.7812 2.7,1.3984 0.98,0.5898 1.87,1.0625 2.66,1.4102 1.83,0.621 3.79,1.6406 5.74,2.9726 1.99,1.2891 3.75,2.3789 5.27,3.2774 v 0"
         style="fill:#231f20;fill-opacity:1;fill-rule:nonzero;stroke:none"
         id="path48" />
      <path
         d="m 1973.75,95.1211 c 0.35,0.7773 0.59,1.3281 0.74,1.6406 0.16,0.3086 0.31,0.6602 0.43,0.9688 0.12,0.3593 0.24,0.7109 0.39,1.1015 0.2,0.3868 0.43,1.0078 0.74,1.867 0.47,0.903 0.9,1.762 1.33,2.66 0.43,0.86 0.94,1.602 1.49,2.153 0,0.187 0.04,0.386 0.08,0.539 0.07,0.199 0.07,0.32 0.07,0.429 0.12,0.239 0.28,0.512 0.51,0.899 0.24,0.391 0.31,0.742 0.31,1.101 0.55,0.192 0.98,0.661 1.25,1.36 0.28,0.75 0.71,1.332 1.25,1.762 -0.11,0.199 -0.15,0.39 -0.07,0.468 0.03,0.121 0.07,0.27 0.07,0.512 0.98,0.66 1.96,1.25 2.97,1.828 0.98,0.551 2.03,0.711 3.13,0.469 0.97,-0.539 1.76,-1.328 2.3,-2.297 0.31,-1.102 0.28,-2.113 -0.15,-3.051 -0.47,-0.941 -0.94,-1.679 -1.49,-2.23 -0.55,-1.321 -1.01,-2.379 -1.4,-3.199 -0.4,-0.821 -0.75,-1.641 -1.1,-2.383 -0.31,-0.778 -0.66,-1.598 -1.05,-2.5002 -0.39,-0.8594 -0.9,-2.0274 -1.57,-3.4375 -0.54,-1.3321 -1.09,-2.2305 -1.56,-2.7305 -0.51,-0.5117 -1.09,-1.5313 -1.76,-3.0508 -0.07,-0.5508 -0.43,-1.4102 -1.05,-2.5391 -0.59,-1.1718 -1.06,-2.2304 -1.41,-3.1601 -0.31,-0.9024 -0.31,-1.5703 0,-1.8789 0.35,-0.3516 1.33,0.1172 2.97,1.3281 3.87,2.6211 7.38,5.6289 10.63,8.9805 3.24,3.3203 6.64,6.7617 10.15,10.2815 0.43,0.539 0.98,1.289 1.64,2.148 0.67,0.891 1.33,1.789 2,2.731 0.66,0.941 1.21,1.757 1.71,2.461 0.51,0.699 0.9,1.168 1.25,1.41 0.32,0.308 0.83,0.617 1.49,0.898 0.62,0.27 1.29,0.27 1.87,0 0.63,-0.281 1.1,-0.859 1.49,-1.801 0.39,-0.937 0.47,-2.379 0.23,-4.379 -0.54,-1.32 -1.01,-2.46 -1.36,-3.39 -0.39,-0.899 -0.71,-2 -0.94,-3.2111 -0.2,-0.7773 -0.47,-1.8672 -0.74,-3.3594 -0.28,-1.4804 -0.47,-3 -0.67,-4.5273 -0.15,-1.5625 -0.15,-2.9727 -0.08,-4.2227 0.12,-1.25 0.47,-1.9882 1.02,-2.2187 1.29,-0.5508 2.54,-0.711 3.71,-0.3906 1.13,0.2695 2.31,0.7812 3.52,1.5586 3.43,1.6406 5.82,2.8125 7.18,3.5117 1.37,0.75 2.54,1.3281 3.48,1.8398 0.9,0.4688 2.07,1.0195 3.44,1.5586 1.36,0.5508 3.83,1.4102 7.34,2.6211 -0.12,-0.0781 -0.15,-0.3516 -0.15,-0.8203 -0.24,-0.1211 -0.2,-0.1211 0.15,-0.0781 0.31,0.0781 0.55,0.0781 0.67,0.0781 -0.24,-0.8594 -0.82,-1.6797 -1.84,-2.3789 -0.98,-0.711 -1.8,-1.332 -2.46,-1.8789 -0.12,0 -0.39,-0.2305 -0.82,-0.6602 -0.43,-0.4726 -0.7,-0.6719 -0.82,-0.6719 l -9.57,-5.9296 c -2.54,-1.5704 -4.85,-2.9297 -6.92,-4.1407 -2.11,-1.2187 -3.28,-1.8007 -3.63,-1.8007 -0.86,-0.3086 -1.52,-0.5469 -1.87,-0.668 -0.39,-0.1094 -1.02,-0.2695 -1.92,-0.5 -0.86,-0.1992 -1.76,-0.2813 -2.62,-0.1602 -0.89,0.1211 -1.6,0.2696 -2.14,0.5078 -1.21,0.4336 -2.04,1.211 -2.5,2.3008 -0.43,1.1016 -0.67,2.3125 -0.75,3.6406 -0.04,1.3204 0.04,2.6524 0.28,4.0196 0.19,1.3711 0.39,2.582 0.47,3.5508 -0.08,0.6718 -0.08,1.2187 0,1.6406 0.11,0.4297 0.27,0.9414 0.5,1.4883 -0.43,-0.3086 -0.82,-0.6993 -1.17,-1.1289 -0.31,-0.4688 -0.74,-0.7813 -1.29,-1.0196 -0.35,-0.4297 -0.62,-0.6992 -0.9,-0.8203 -0.31,-0.1211 -0.54,-0.2305 -0.74,-0.3086 -0.23,-0.1211 -0.47,-0.2812 -0.74,-0.5117 -0.27,-0.2305 -0.55,-0.5508 -0.74,-0.9805 -0.35,0 -0.55,-0.0703 -0.59,-0.1875 -0.08,-0.082 -0.15,-0.2031 -0.27,-0.3125 -0.08,0 -0.16,-0.2382 -0.16,-0.6679 -1.21,-1.0899 -2.3,-1.8711 -3.28,-2.3828 -0.98,-0.5079 -2.03,-1.3672 -3.12,-2.5391 -1.02,-0.5899 -1.76,-1.25 -2.31,-2.0703 -0.55,-0.8203 -1.29,-1.5196 -2.15,-2.0703 -0.54,-0.668 -1.29,-1.1289 -2.15,-1.4883 -0.11,-0.2305 -0.27,-0.4219 -0.5,-0.6602 -0.2,-0.1914 -0.43,-0.3086 -0.67,-0.3086 -0.19,-0.7812 -0.66,-1.2929 -1.29,-1.5625 -0.66,-0.2773 -1.29,-0.75 -1.83,-1.4101 -4.18,-0.6602 -7.03,-0.3477 -8.56,0.9804 -1.56,1.3204 -2.3,3.1211 -2.3,5.3516 0,2.2578 0.51,4.8008 1.56,7.5781 1.02,2.8125 2.15,5.4297 3.36,7.8516 v 0"
         style="fill:#231f20;fill-opacity:1;fill-rule:nonzero;stroke:none"
         id="path50" />
      <path
         d="m 2040.66,95.4297 c 1.02,0 1.96,0.2695 2.89,0.8203 0.94,0.5508 1.84,1.0898 2.74,1.6797 2.19,1.7617 4.45,3.6723 6.76,5.8203 2.3,2.148 4.37,4.34 6.25,6.52 0.23,0 0.35,0.16 0.35,0.511 -3.99,-1.441 -7.46,-3.511 -10.47,-6.289 -3.05,-2.73 -5.86,-5.742 -8.52,-9.0623 z m 11.88,-16.9492 c -0.86,-0.5508 -1.84,-0.9805 -2.89,-1.25 -1.02,-0.2813 -2.03,-0.5899 -3.05,-0.8985 -1.29,-0.3515 -2.77,-0.6718 -4.45,-1.0234 -1.64,-0.3086 -3.28,-0.4688 -4.92,-0.3867 -1.64,0.039 -3.21,0.3867 -4.69,0.9765 -1.49,0.6211 -2.74,1.6407 -3.71,3.0508 -0.78,1.0117 -1.21,2.2227 -1.33,3.6328 -0.12,1.4375 0,2.8868 0.31,4.3672 0.35,1.4922 0.82,2.9727 1.41,4.461 0.62,1.4804 1.25,2.8086 1.91,4.0195 0.55,0.4687 0.98,1.0195 1.29,1.6406 0.35,0.6602 0.59,1.211 0.67,1.6797 2.3,2.73 4.72,5.352 7.18,7.891 2.46,2.539 5.04,4.531 7.66,5.941 1.21,0.777 2.46,1.438 3.79,1.988 1.33,0.551 2.54,1.09 3.63,1.641 0.43,0.238 0.78,0.43 1.06,0.668 0.27,0.191 0.7,0.312 1.25,0.312 3.94,0 6.52,-0.671 7.73,-2.031 1.21,-1.41 1.84,-2.738 1.84,-4.07 -0.12,-0.43 -0.51,-0.93 -1.18,-1.481 -0.66,-0.55 -1.13,-1.089 -1.48,-1.64 -0.55,-0.547 -1.02,-1.059 -1.48,-1.559 -0.43,-0.512 -0.75,-0.98 -0.98,-1.41 -4.38,-3.828 -8.79,-7.2695 -13.2,-10.2305 -1.1,-0.8593 -2.54,-1.4882 -4.34,-1.8007 -1.84,-0.3086 -3.67,-0.3868 -5.55,-0.1602 -0.66,-0.6602 -1.29,-1.5195 -1.95,-2.5781 -0.66,-1.0117 -1.21,-2.1407 -1.56,-3.2813 -0.39,-1.1679 -0.59,-2.3008 -0.51,-3.4687 0.04,-1.1407 0.51,-2.1094 1.41,-2.8907 2.18,-0.1992 4.1,0 5.74,0.6602 1.68,0.6602 3.24,1.2109 4.8,1.6797 1.21,0.3125 2.46,0.6992 3.79,1.1289 1.33,0.4336 2.46,0.9023 3.44,1.332 2.34,1.0899 4.22,1.9883 5.7,2.6992 1.49,0.7422 2.89,1.4024 4.22,2.0704 1.29,0.6601 2.7,1.3593 4.1,2.1406 1.45,0.789 3.25,1.7578 5.43,2.9687 1.76,0.9024 3.56,1.8008 5.39,2.7422 1.8,0.9375 3.52,1.8281 5.16,2.6873 0.66,0.551 1.29,0.981 1.84,1.25 0.54,0.281 1.25,0.512 2.14,0.75 0.12,0 0.24,0.031 0.39,0.153 0.2,0.117 0.32,0.16 0.43,0.16 0.98,0 1.49,-0.16 1.49,-0.473 0,-0.348 -0.24,-0.82 -0.74,-1.41 -0.51,-0.617 -1.1,-1.2501 -1.84,-1.9102 -0.7,-0.668 -1.29,-1.2891 -1.72,-1.9493 0.12,0 -0.04,-0.1601 -0.39,-0.4297 -0.39,-0.2812 -0.86,-0.5507 -1.33,-0.8203 -0.5,-0.2773 -0.93,-0.5507 -1.33,-0.8203 -0.39,-0.2773 -0.58,-0.4297 -0.58,-0.4297 -1.21,-0.8593 -2.7,-1.8398 -4.45,-2.8593 -1.76,-1.0508 -3.52,-2.1094 -5.28,-3.1602 -1.76,-1.0195 -3.4,-1.9883 -4.92,-2.8516 -1.56,-0.8984 -2.69,-1.4882 -3.48,-1.8398 l -11.87,-5.5781"
         style="fill:#231f20;fill-opacity:1;fill-rule:nonzero;stroke:none"
         id="path52" />
      <path
         d="m 2088.98,91.8008 c 0.79,0.1094 1.41,0.4687 2,1.0898 0.54,0.5899 1.13,1.1289 1.79,1.5586 2.85,2.543 5.59,5.043 8.25,7.5818 2.61,2.539 5.7,4.848 9.21,6.918 1.22,0.781 2.58,1.602 4.15,2.5 1.52,0.852 3.04,1.36 4.6,1.481 1.1,0 2.27,-0.43 3.56,-1.25 1.25,-0.821 1.95,-1.719 2.03,-2.731 0.12,-1.219 0,-2.469 -0.39,-3.789 -0.39,-1.328 -0.74,-2.578 -1.09,-3.789 -0.08,-0.859 -0.36,-2.3124 -0.75,-4.3007 -0.35,-1.9492 -0.74,-4.0586 -1.13,-6.25 -0.39,-2.1914 -0.7,-4.3008 -0.9,-6.25 -0.23,-1.9883 -0.27,-3.3984 -0.19,-4.3008 1.01,0.4297 1.87,0.8203 2.65,1.1797 0.78,0.3125 1.72,0.7422 2.82,1.2813 1.21,0.5508 1.95,0.8984 2.22,1.0195 0.28,0.082 0.47,0.1992 0.55,0.2305 0.12,0.039 0.27,0.1601 0.51,0.3203 0.23,0.1914 0.93,0.5781 2.15,1.25 0.78,0.6601 1.52,1.289 2.3,1.9101 0.78,0.5899 1.52,1.0586 2.3,1.3711 0.43,0.2266 1.06,0.3477 1.8,0.3477 0.9,0.5508 1.76,1.0508 2.58,1.4805 0.82,0.4296 1.52,0.9414 2.07,1.4882 0.98,-0.4296 1.48,-0.8593 1.48,-1.25 0,-0.3867 -0.11,-0.8593 -0.35,-1.4062 -0.78,-0.9727 -1.87,-1.832 -3.28,-2.6133 -0.66,-0.7891 -1.21,-1.3672 -1.64,-1.8398 -0.47,-0.4297 -1.05,-0.8203 -1.83,-1.1289 -1.22,-0.9805 -1.96,-1.6407 -2.31,-1.918 -0.31,-0.2734 -0.59,-0.4727 -0.74,-0.6602 -0.16,-0.1601 -0.43,-0.3515 -0.82,-0.5507 -0.39,-0.2305 -1.25,-0.7813 -2.54,-1.6797 -1.21,-0.6211 -2.58,-1.4805 -4.06,-2.543 -1.49,-1.0469 -2.89,-1.7891 -4.18,-2.2188 -1.14,-0.2382 -2.15,-0.3906 -3.05,-0.5078 -0.94,-0.082 -1.8,-0.1601 -2.58,-0.1601 -1.21,-0.1914 -2.26,0.4297 -3.2,1.9179 -0.94,1.4805 -1.41,2.8086 -1.41,4.0196 0,0.5508 0.16,1.6797 0.51,3.4023 0.31,1.6797 0.66,3.5078 1.05,5.4297 0.4,1.9102 0.79,3.75 1.18,5.5078 0.35,1.75 0.62,2.961 0.74,3.6328 0.08,1.5196 0.31,2.93 0.62,4.137 0.36,1.211 0.63,2.383 0.86,3.59 -0.9,-0.188 -1.68,-0.579 -2.34,-1.129 -0.63,-0.551 -1.29,-1.09 -1.95,-1.641 -2,-1.559 -3.91,-3.0898 -5.78,-4.6093 -1.88,-1.5586 -3.72,-3.2383 -5.59,-5.1211 -1.09,-1.0078 -2.31,-1.9883 -3.63,-2.9688 -1.33,-1.0078 -2.58,-2.1093 -3.79,-3.3203 -3.75,-3.9375 -6.76,-7.2187 -9.06,-9.8789 -2.31,-2.6211 -4.03,-4.0586 -5.12,-4.3008 -0.9,-0.1914 -1.92,0 -3.05,0.6719 -1.17,0.6602 -1.83,1.4375 -2.07,2.2969 -0.12,0.4727 -0.04,1.1406 0.24,1.9922 0.27,0.8984 0.58,1.7187 0.93,2.4687 0.98,4.6407 2.35,8.7813 4.1,12.461 1.76,3.6679 3.4,7.5 4.97,11.4415 0.19,0.547 0.54,1.168 0.97,1.84 0.43,0.66 0.78,1.25 0.98,1.789 0.23,0.789 0.39,1.531 0.51,2.23 0.11,0.699 0.23,1.367 0.31,1.918 0.23,0.192 0.47,0.5 0.74,0.891 0.27,0.39 0.59,0.672 0.94,0.902 1.21,0.899 2.54,1.098 4.02,0.668 1.49,-0.43 2.35,-1.211 2.54,-2.308 0.59,-1.332 0.59,-2.461 0,-3.481 -0.55,-0.973 -1.09,-1.91 -1.64,-2.812 -0.2,-0.618 -0.31,-1.289 -0.31,-1.95 0,-0.66 -0.12,-1.289 -0.35,-1.839 -0.67,-1.52 -1.33,-3.0395 -2.04,-4.6098 -0.74,-1.5196 -1.4,-3.2383 -2.07,-5.1094 v 0"
         style="fill:#231f20;fill-opacity:1;fill-rule:nonzero;stroke:none"
         id="path54" />
      <path
         d="m 0,235.551 h 2899.65 v -9.34 H 0 v 9.34"
         style="fill:#231f20;fill-opacity:1;fill-rule:nonzero;stroke:none"
         id="path56" />
      <path
         d="m 63.9805,487.148 c 8.7187,0 15.3203,-0.507 19.6093,-1.488 16.5702,-3.781 24.1402,-20.578 24.1402,-36.281 0,-13.828 -6.71,-27.188 -20.1909,-31.719 -7.5,-2.461 -17.3086,-3.32 -25.0391,-3.32 h -9.9219 v 72.808 z m 10.5508,-76.597 c 19.4882,0 36.5197,-3.672 44.1407,-23.051 2.308,-6.129 3.558,-12.77 3.558,-19.879 0,-25.98 -17.539,-40.199 -42.6597,-40.199 H 52.5781 v 83.129 z m -48.793,-48.442 c 0,-19.609 -1.207,-34.3 -25.7383,-35.66 v -2.82 h 89.6094 c 22.8126,0 46.7186,0.75 57.8516,23.91 2.93,6.133 4.418,12.852 4.418,20.352 0,18.988 -10.16,36.41 -28.328,42.89 -4.289,1.598 -10.43,2.93 -18.242,4.301 8.089,2.809 15.203,5.617 21.211,11.867 6.601,6.883 9.929,15.711 9.929,26.371 0,24.141 -18.051,35.66 -39.8474,37.379 -2.5821,0.242 -7.8516,0.242 -16.0508,0.242 H 0 v -2.82 c 7.46094,-0.351 13.7109,-1.48 19.1406,-7.101 2.5391,-2.7 4.4102,-5.899 5.2383,-9.93 0.8516,-4.059 1.3594,-10.192 1.3594,-18.629 v -90.352"
         style="fill:#231f20;fill-opacity:1;fill-rule:nonzero;stroke:none"
         id="path58" />
      <path
         d="m 315.27,459.449 25.75,-63.508 h -50 z m 27.699,-68.508 13.871,-34.101 c 2.34,-5.629 3.43,-10.16 3.43,-13.481 0,-13.238 -12.258,-15.937 -22.809,-16.91 v -2.82 h 80.551 v 2.82 c -13.012,1.481 -19.262,3.321 -25.864,14.84 -2.347,4.141 -5.507,11.133 -9.57,20.82 L 329.262,490.941 H 322.27 L 277.379,375.352 c -4.02,-10.551 -7.34,-18.403 -9.801,-23.672 -5.859,-12.231 -13.828,-24.379 -28.668,-25.231 v -2.82 h 54.918 v 2.82 c -10.777,0.852 -19.726,6.992 -19.726,18.75 0,5.153 1.839,12.262 5.507,21.211 l 3.051,7.61 6.399,16.921 h 53.91"
         style="fill:#231f20;fill-opacity:1;fill-rule:nonzero;stroke:none"
         id="path60" />
      <path
         d="m 578.199,490.941 h -78.32 v -2.82 c 24.422,-0.851 25.742,-16.281 25.742,-35.66 v -90.352 c 0,-8.32 -0.461,-14.449 -1.32,-18.519 -2.852,-11.988 -12.66,-17.031 -24.422,-17.031 v -2.93 H 646.25 l 1.602,50.242 -2.973,0.27 c -6.719,-32.852 -19.84,-46.719 -53.039,-46.719 h -39.379 v 125.039 c 0,19.73 1.25,34.34 25.738,35.66 v 2.82"
         style="fill:#231f20;fill-opacity:1;fill-rule:nonzero;stroke:none"
         id="path62" />
      <path
         d="m 797.66,362.109 c 0,-19.73 -1.371,-34.449 -25.898,-35.66 v -2.82 h 78.359 v 2.82 c -24.422,1.211 -25.742,16.051 -25.742,35.66 v 125.039 c 18.121,0 31.012,-1.097 38.59,-3.316 20.121,-5.633 27.109,-18.75 30.902,-38.363 l 2.809,0.23 -2.192,45.242 H 728.629 l -2.219,-45.242 2.809,-0.23 c 6.64,33.363 21.211,39.613 51.871,41.172 5.898,0.39 11.41,0.507 16.57,0.507 V 362.109"
         style="fill:#231f20;fill-opacity:1;fill-rule:nonzero;stroke:none"
         id="path64" />
      <path
         d="m 1046.25,487.148 c 8.67,0 15.31,-0.507 19.61,-1.488 16.52,-3.781 24.14,-20.578 24.14,-36.281 0,-13.828 -6.76,-27.188 -20.23,-31.719 -7.47,-2.461 -17.27,-3.32 -25,-3.32 h -9.93 v 72.808 z m 10.51,-76.597 c 19.49,0 36.56,-3.672 44.14,-23.051 2.34,-6.129 3.55,-12.77 3.55,-19.879 0,-25.98 -17.54,-40.199 -42.65,-40.199 h -26.96 v 83.129 z m -48.79,-48.442 c 0,-19.609 -1.21,-34.3 -25.74,-35.66 v -2.82 h 89.61 c 22.81,0 46.71,0.75 57.89,23.91 2.93,6.133 4.41,12.852 4.41,20.352 0,18.988 -10.19,36.41 -28.32,42.89 -4.3,1.598 -10.43,2.93 -18.28,4.301 8.08,2.809 15.19,5.617 21.21,11.867 6.6,6.883 9.92,15.711 9.92,26.371 0,24.141 -18.01,35.66 -39.84,37.379 -2.58,0.242 -7.85,0.242 -16.06,0.242 h -80.54 v -2.82 c 7.5,-0.351 13.75,-1.48 19.14,-7.101 2.58,-2.7 4.41,-5.899 5.27,-9.93 0.86,-4.059 1.33,-10.192 1.33,-18.629 v -90.352"
         style="fill:#231f20;fill-opacity:1;fill-rule:nonzero;stroke:none"
         id="path66" />
      <path
         d="m 1297.54,459.449 25.74,-63.508 h -50.04 z m 27.69,-68.508 13.83,-34.101 c 2.35,-5.629 3.44,-10.16 3.44,-13.481 0,-13.238 -12.27,-15.937 -22.77,-16.91 v -2.82 h 80.5 v 2.82 c -12.96,1.481 -19.21,3.321 -25.85,14.84 -2.31,4.141 -5.51,11.133 -9.58,20.82 l -53.32,128.832 h -6.99 l -44.84,-115.589 c -4.06,-10.551 -7.35,-18.403 -9.81,-23.672 -5.89,-12.231 -13.86,-24.379 -28.67,-25.231 v -2.82 h 54.88 v 2.82 c -10.78,0.852 -19.72,6.992 -19.72,18.75 0,5.153 1.83,12.262 5.51,21.211 l 3.08,7.61 6.37,16.921 h 53.94"
         style="fill:#231f20;fill-opacity:1;fill-rule:nonzero;stroke:none"
         id="path68" />
      <path
         d="m 1534.34,470.738 c 2.57,12.621 12.38,16.762 24.41,17.383 v 2.82 h -78.32 v -2.82 c 9.41,-0.461 14.69,-2.34 19.1,-7.101 2.58,-2.579 4.42,-5.899 5.27,-9.93 0.86,-4.059 1.37,-10.192 1.37,-18.629 v -74.41 c 0,-9.461 0.24,-15.942 0.71,-19.5 4.29,-31.75 36.4,-39.102 63.86,-39.102 22.19,0 39.26,5.16 51.14,15.473 12.85,11.019 13.12,24.137 13.12,40.199 v 77.34 c 0,19.609 1.45,34.449 25.74,35.66 v 2.82 h -56.52 v -2.82 c 24.41,-1.211 25.74,-16.051 25.74,-35.66 v -68.512 c 0,-12.5 -0.12,-20.469 -0.47,-23.789 -1.01,-10.32 -3.71,-16.289 -10.08,-22.07 -10.27,-9.18 -26.6,-14.57 -43.63,-14.57 -17.54,0 -28.44,5.5 -36.29,18.359 -2.58,4.293 -4.29,8.941 -5.15,13.98 -0.86,5.039 -1.33,13.121 -1.33,24.411 v 69.378 c 0,9.922 0.47,17.032 1.33,21.09 v 0"
         style="fill:#231f20;fill-opacity:1;fill-rule:nonzero;stroke:none"
         id="path70" />
      <path
         d="m 1985.47,495.23 c -54.92,0 -88.91,-40.429 -88.91,-92.648 0,-52.852 33.36,-83.133 83.87,-83.133 18.87,0 38.87,4.422 54.53,15.199 2.85,1.954 5.04,2.813 6.88,2.813 1.48,0 3.08,-0.582 6.13,-1.723 v 50.782 h -54.3 v -2.848 c 16.68,0 28.21,-4.262 28.21,-22.891 0,-22.07 -16.96,-37.383 -38.29,-37.383 -27.69,0 -45.7,24.024 -52.93,48.403 -2.93,9.918 -4.41,20.469 -4.41,31.64 0,23.399 6.13,44.368 18.4,62.5 11.25,16.68 24.14,25.27 44.61,25.27 31.13,0 45.58,-27.731 53.67,-53.832 l 2.81,0.242 -1.44,53.32 h -3.21 c -1.71,-5.281 -4.14,-7.972 -7.46,-7.972 -1.48,0 -3.08,0.39 -4.92,1.133 l -7.23,3.277 c -12.14,5.391 -22.65,7.851 -36.01,7.851 v 0"
         style="fill:#231f20;fill-opacity:1;fill-rule:nonzero;stroke:none"
         id="path72" />
      <path
         d="m 2254.02,323.629 63.13,148.09 v -109.61 c 0,-19.609 -1.33,-34.449 -25.86,-35.66 v -2.82 h 78.32 v 2.82 c -11.52,0.621 -21.45,5.153 -24.26,16.91 -0.97,4.063 -1.48,10.313 -1.48,18.75 v 90.352 c 0,19.609 1.25,34.34 25.74,35.66 v 2.82 h -50.35 l -55.04,-131.019 -53.09,131.019 h -53.2 v -2.82 c 24.37,-1.32 25.74,-15.93 25.74,-35.66 v -90.352 c 0,-19.609 -1.37,-34.449 -25.74,-35.66 v -2.82 h 56.48 v 2.82 c -24.37,1.211 -25.74,16.051 -25.74,35.66 v 107.379 l 62.78,-145.859 h 2.57"
         style="fill:#231f20;fill-opacity:1;fill-rule:nonzero;stroke:none"
         id="path74" />
      <path
         d="m 2524.18,487.148 c 8.71,0 15.35,-0.507 19.65,-1.488 16.52,-3.781 24.14,-20.578 24.14,-36.281 0,-13.828 -6.76,-27.188 -20.24,-31.719 -7.46,-2.461 -17.3,-3.32 -25,-3.32 h -9.92 v 72.808 z m 10.55,-76.597 c 19.49,0 36.52,-3.672 44.14,-23.051 2.34,-6.129 3.55,-12.77 3.55,-19.879 0,-25.98 -17.54,-40.199 -42.65,-40.199 h -26.96 v 83.129 z m -48.79,-48.442 c 0,-19.609 -1.21,-34.3 -25.74,-35.66 v -2.82 h 89.6 c 22.82,0 46.72,0.75 57.86,23.91 2.96,6.133 4.41,12.852 4.41,20.352 0,18.988 -10.16,36.41 -28.28,42.89 -4.3,1.598 -10.43,2.93 -18.28,4.301 8.08,2.809 15.19,5.617 21.21,11.867 6.6,6.883 9.92,15.711 9.92,26.371 0,24.141 -18.01,35.66 -39.84,37.379 -2.58,0.242 -7.85,0.242 -16.06,0.242 h -80.54 v -2.82 c 7.5,-0.351 13.75,-1.48 19.14,-7.101 2.57,-2.7 4.41,-5.899 5.27,-9.93 0.86,-4.059 1.33,-10.192 1.33,-18.629 v -90.352"
         style="fill:#231f20;fill-opacity:1;fill-rule:nonzero;stroke:none"
         id="path76" />
      <path
         d="m 2847.19,362.109 c 0,-19.73 -1.33,-34.449 -25.86,-35.66 v -2.82 h 78.32 v 2.82 c -24.26,1.211 -25.74,16.172 -25.74,35.66 v 90.352 c 0,19.609 1.48,34.449 25.74,35.66 v 2.82 h -78.32 v -2.82 c 24.53,-1.211 25.86,-15.93 25.86,-35.66 v -39.34 h -87.03 v 39.34 c 0,19.609 1.48,34.449 25.74,35.66 v 2.82 h -78.32 v -2.82 c 24.53,-1.32 25.74,-16.051 25.74,-35.66 v -90.352 c 0,-19.609 -1.21,-34.3 -25.74,-35.66 v -2.82 h 78.32 v 2.82 c -24.38,1.211 -25.74,16.172 -25.74,35.66 v 45.231 h 87.03 v -45.231"
         style="fill:#231f20;fill-opacity:1;fill-rule:nonzero;stroke:none"
         id="path78" />
      <path
         d="m 1722.15,1231.6 c 0,-43.9 -20.2,-77.73 -58.79,-89.61 48.67,-12.46 74.8,-40.35 74.8,-102.69 0,-48.679 -9.49,-77.741 -31.44,-99.101 -20.78,-18.398 -45.7,-27.898 -83.71,-30.859 -10.08,-0.59 -13.63,-0.59 -235,-0.59 v 44.488 h 186.95 c 27.31,0 52.81,2.383 63.48,5.352 35.04,9.5 45.11,31.449 45.11,78.32 0,58.79 -29.68,75.98 -85.46,80.16 -13.64,14.22 -29.07,23.13 -42.15,28.48 7.73,4.14 14.84,8.9 21.99,14.25 40.94,0.59 53.98,3.56 66.45,11.25 16.01,9.5 23.16,28.52 23.16,59.97 0,41.52 -12.46,62.3 -48.67,70.03 -7.11,1.76 -27.89,3.56 -45.71,3.56 h -185.15 v 44.49 l 216.01,-0.58 c 46.88,-1.18 118.13,-29.69 118.13,-116.92 z m -394.69,-111.56 h -48.08 V 953.238 h 48.08 V 908.75 h -97.93 v 440.35 h 97.93 v -44.49 h -48.08 v -143.05 h 48.08 z m 248.09,45.08 c -10.71,-8.28 -19.61,-13.64 -35.04,-19.57 21.99,-8.91 30.86,-11.29 49.26,-27.89 32.07,-32.07 45.7,-67.66 45.7,-119.89 0,-11.872 -0.59,-23.75 -2.35,-34.45 -1.79,-1.761 -43.35,-4.73 -51.64,-4.73 2.39,11.879 3.56,24.34 3.56,38.558 0,69.452 -32.07,108.632 -90.24,120.512 -9.84,1.95 -20.54,1.87 -31.71,1.79 -2.27,0 -4.54,-0.04 -6.84,-0.04 h -73.59 V 868.98 h 85.46 c 38.56,0 67.66,11.84 87.82,34.418 h 58.16 c -26.09,-48.089 -75.35,-76.558 -141.25,-76.558 h -140.04 v 593.51 h 144.81 c 52.81,0 93.16,-19.61 116.33,-65.9 h -56.41 c -15.43,18.99 -47.46,23.75 -70,23.75 h -84.88 v -216.64 h 74.18 c 73.59,0 109.21,37.39 109.21,105.04 0,11.88 -1.21,22.58 -3.55,32.66 24.92,0 45.66,-1.8 51.6,-2.97 1.21,-8.32 1.8,-16.6 1.8,-25.51 0,-53.44 -17.81,-86.05 -40.35,-105.66 z M 1449.84,1800 853.52,767.191 h 1192.61 z"
         style="fill:#171717;fill-opacity:1;fill-rule:evenodd;stroke:none"
         id="path80" />
    </g>
  </g>
</svg>
